<svg xmlns="http://www.w3.org/2000/svg" viewBox="0 0 130.12 30.46"><defs><style>.cls-1{fill:none;stroke:#fff;stroke-miterlimit:10;stroke-width:2px;}</style></defs><g id="Layer_2" data-name="Layer 2"><g id="Layer_1-2" data-name="Layer 1"><path class="cls-1" d="M19.36,23H9.92L7.17,28.85H1.64l14-27.32h5.65l4.51,27.32H20.12Zm-7.45-4.2h6.91l-.95-7.68c-.19-1.56-.34-4.35-.34-4.35h-.08s-1.15,2.82-1.83,4.28Z"/><path class="cls-1" d="M33.15,1.53h11a8.86,8.86,0,0,1,5.65,1.69A6,6,0,0,1,51.9,8.14c0,3.21-1.83,5.47-5,6.38v.12a5.28,5.28,0,0,1,4.2,5.69,7.67,7.67,0,0,1-2.52,5.73c-1.87,1.79-4.35,2.79-8.06,2.79H27.88ZM34.22,24.3h6.3c3,0,5-1.34,5-4.2,0-2.33-1.56-3.48-3.85-3.48h-6Zm7.94-11.73c2.26,0,4.43-.72,4.43-3.7,0-1.72-1-2.87-3.2-2.87H37.77l-1.26,6.57Z"/><path class="cls-1" d="M53.32,17.73C53.32,8.94,58.4,1,67.56,1c7.07,0,11.77,4.7,11.77,11.92,0,8.59-4.81,16.54-14.13,16.54C58.17,29.46,53.32,25.07,53.32,17.73ZM65.43,25c6.15,0,8.32-6.61,8.32-11.88,0-4.24-2-7.56-6.53-7.56-6,0-8.33,6.61-8.33,12.11C58.89,21.7,60.73,25,65.43,25Z"/><path class="cls-1" d="M81,19.26,84.41,1.53h5.46L86.36,19.68c-.65,3.25.57,5.23,4.39,5.23,3.44,0,4.93-1.91,5.46-4.54L99.84,1.53h5.43l-3.75,19.33c-1.07,5.43-4.62,8.45-10.88,8.45C83.91,29.31,79.67,26.06,81,19.26Z"/><path class="cls-1" d="M107.67,1.53h21.24L128,6.16h-7.9l-4.4,22.69h-5.46l4.39-22.69h-7.87Z"/></g></g></svg>