<svg xmlns="http://www.w3.org/2000/svg" viewBox="0 0 200 41.34"><defs><style>.cls-1{fill:#fff;}</style></defs><g id="Layer_2" data-name="Layer 2"><g id="Layer_1-2" data-name="Layer 1"><path class="cls-1" d="M14.65.72H26.47L41.18,40.4H28.86l-1.94-5.83H13.48L11.54,40.4H0Zm1.44,25.86h8.22l-2.5-7.77c-.61-1.94-1.5-5.1-1.5-5.1H20.2s-.83,3.16-1.5,5.1Z"/><path class="cls-1" d="M44.45.72H65c3.89,0,6.78.94,8.88,2.55a9.6,9.6,0,0,1,3.78,7.83,7.5,7.5,0,0,1-4.94,7.6v.17a9.62,9.62,0,0,1,6.83,9.54A11.06,11.06,0,0,1,75,37.9c-2.38,1.67-5.49,2.5-9.6,2.5H44.45ZM63,16.15c2.22,0,3.72-1.06,3.72-3.16S65.21,9.71,63,9.71H55.83v6.44ZM64.1,31.3c2.49,0,4.22-1.5,4.22-3.88,0-2.56-1.89-3.83-4.28-3.83H55.83V31.3Z"/><path class="cls-1" d="M82,20.7C82,8.82,89.79,0,102.11,0s20.2,8.82,20.2,20.7-7.88,20.64-20.2,20.64S82,32.58,82,20.7Zm28.53,0c0-6.49-2.83-11.43-8.38-11.43s-8.38,4.94-8.38,11.43,2.83,11.38,8.38,11.38S110.55,27.19,110.55,20.7Z"/><path class="cls-1" d="M126.36,25.25V.72H138v25.2c0,3.66,2,5.93,6.27,5.93,3.94,0,5.94-2.55,5.94-6.16V.72h11.6V25.25c0,9.77-5.83,15.87-17.71,15.87S126.36,35.18,126.36,25.25Z"/><path class="cls-1" d="M165.82.72H200V10.6H188.63V40.4H177V10.6H165.82Z"/></g></g></svg>