<svg xmlns="http://www.w3.org/2000/svg" viewBox="0 0 127.28 28.46"><defs><style>.cls-1{fill:#fff;}</style></defs><g id="Layer_2" data-name="Layer 2"><g id="Layer_1-2" data-name="Layer 1"><path class="cls-1" d="M17.72,22H8.29L5.54,27.85H0L14,.53h5.65l4.51,27.32H18.49Zm-7.45-4.2h6.92l-1-7.68c-.19-1.56-.34-4.35-.34-4.35h-.08S14.67,8.59,14,10.05Z"/><path class="cls-1" d="M31.51.53h11a8.86,8.86,0,0,1,5.65,1.69,6,6,0,0,1,2.14,4.92c0,3.21-1.84,5.47-5,6.38v.12a5.29,5.29,0,0,1,4.2,5.69,7.67,7.67,0,0,1-2.52,5.73c-1.88,1.79-4.36,2.79-8.06,2.79H26.24ZM32.58,23.3h6.3c3,0,5-1.34,5-4.2,0-2.33-1.57-3.48-3.86-3.48h-6Zm8-11.73c2.25,0,4.43-.72,4.43-3.7C45,6.15,44,5,41.75,5H36.13l-1.26,6.57Z"/><path class="cls-1" d="M51.68,16.73C51.68,7.94,56.76,0,65.93,0,73,0,77.69,4.7,77.69,11.92c0,8.59-4.81,16.54-14.13,16.54C56.53,28.46,51.68,24.07,51.68,16.73ZM63.79,24c6.15,0,8.33-6.61,8.33-11.88,0-4.24-2-7.56-6.53-7.56-6,0-8.33,6.61-8.33,12.11C57.26,20.7,59.09,24,63.79,24Z"/><path class="cls-1" d="M79.34,18.26,82.77.53h5.47L84.72,18.68c-.65,3.25.58,5.23,4.4,5.23,3.43,0,4.92-1.91,5.46-4.54L98.21.53h5.42L99.89,19.86c-1.07,5.43-4.62,8.45-10.89,8.45C82.28,28.31,78,25.06,79.34,18.26Z"/><path class="cls-1" d="M106,.53h21.24l-.88,4.63h-7.91L114.1,27.85h-5.46L113,5.16h-7.87Z"/></g></g></svg>