<svg xmlns="http://www.w3.org/2000/svg" viewBox="0 0 204.87 45.34"><defs><style>.cls-1{fill:none;stroke:#fff;stroke-miterlimit:10;stroke-width:4px;}</style></defs><g id="Layer_2" data-name="Layer 2"><g id="Layer_1-2" data-name="Layer 1"><path class="cls-1" d="M17.52,2.72H29.34L44.05,42.4H31.73l-1.94-5.83H16.36L14.41,42.4H2.87ZM19,28.58h8.22l-2.5-7.77c-.61-1.94-1.5-5.1-1.5-5.1h-.11s-.83,3.16-1.5,5.1Z"/><path class="cls-1" d="M47.32,2.72H67.86c3.88,0,6.77.94,8.87,2.55a9.6,9.6,0,0,1,3.78,7.83,7.5,7.5,0,0,1-4.94,7.6v.17a9.62,9.62,0,0,1,6.83,9.54,11.06,11.06,0,0,1-4.56,9.49c-2.38,1.67-5.49,2.5-9.6,2.5H47.32ZM65.91,18.15c2.22,0,3.72-1.06,3.72-3.16s-1.55-3.28-3.77-3.28H58.7v6.44ZM67,33.3c2.49,0,4.22-1.5,4.22-3.88,0-2.56-1.89-3.83-4.28-3.83H58.7V33.3Z"/><path class="cls-1" d="M84.89,22.7C84.89,10.82,92.66,2,105,2s20.2,8.82,20.2,20.7S117.3,43.34,105,43.34,84.89,34.58,84.89,22.7Zm28.53,0c0-6.49-2.83-11.43-8.38-11.43s-8.38,4.94-8.38,11.43S99.49,34.08,105,34.08,113.42,29.19,113.42,22.7Z"/><path class="cls-1" d="M129.23,27.25V2.72h11.6v25.2c0,3.66,2,5.93,6.27,5.93,3.94,0,5.94-2.55,5.94-6.16v-25h11.6V27.25c0,9.77-5.83,15.87-17.7,15.87S129.23,37.18,129.23,27.25Z"/><path class="cls-1" d="M168.69,2.72h34.18V12.6H191.5V42.4H179.9V12.6H168.69Z"/></g></g></svg>