<svg xmlns="http://www.w3.org/2000/svg" viewBox="0 0 55 46.49"><defs><style>.cls-1{fill:#fff;}</style></defs><g id="Layer_2" data-name="Layer 2"><g id="Layer_1-2" data-name="Layer 1"><path class="cls-1" d="M47.15,0H7.86A7.89,7.89,0,0,0,0,7.86V38.63a7.88,7.88,0,0,0,7.86,7.86H47.15A7.87,7.87,0,0,0,55,38.63V7.86A7.88,7.88,0,0,0,47.15,0ZM45.28,11.68,29.9,25.81a3.89,3.89,0,0,1-5.25,0L9.27,11.68a3.82,3.82,0,0,1-1-4.27A3.8,3.8,0,0,1,11.89,5H42.66a3.79,3.79,0,0,1,3.61,2.46A3.82,3.82,0,0,1,45.28,11.68ZM47.15,42.2H7.86a3.57,3.57,0,0,1-3.57-3.57V11.86a8,8,0,0,0,2.08,3L21.75,29a8.17,8.17,0,0,0,11,0L48.18,14.83a8,8,0,0,0,2.53-4.54V38.63A3.57,3.57,0,0,1,47.15,42.2Z"/></g></g></svg>