<svg xmlns="http://www.w3.org/2000/svg" viewBox="0 0 165.34 30.42"><defs><style>.cls-1{fill:none;stroke:#fff;stroke-miterlimit:10;stroke-width:2px;}</style></defs><g id="Layer_2" data-name="Layer 2"><g id="Layer_1-2" data-name="Layer 1"><path class="cls-1" d="M19.83,25.49h-.07a9.39,9.39,0,0,1-7.87,3.93C5.51,29.42,1,25.29,1,17.81,1,9.33,6.84,1,15.9,1,21.48,1,26,3.83,26.44,10.13H21.13c-.3-2.87-2.41-4.58-5.65-4.58-5.81,0-8.9,6.11-8.9,12.18,0,4.55,2.1,7.26,6.49,7.26a7.35,7.35,0,0,0,7.53-6.42H14.14l.8-4.24H26.25L23.46,28.85H19.37Z"/><path class="cls-1" d="M42.67,23H33.24l-2.75,5.85H25l14-27.32h5.65l4.51,27.32H43.44Zm-7.44-4.2h6.91l-1-7.68c-.19-1.56-.34-4.35-.34-4.35h-.08s-1.14,2.82-1.83,4.28Z"/><path class="cls-1" d="M56.46,1.53h5.47l-4.4,22.73H69.76l-.88,4.59H51.19Z"/><path class="cls-1" d="M76.9,1.53h5.46L78,24.26H90.19l-.88,4.59H71.63Z"/><path class="cls-1" d="M97.33,1.53h19l-.88,4.63H101.92l-1.19,6.15h11.92l-.88,4.5H99.86L98.4,24.26h13.87l-.88,4.59H92.06Z"/><path class="cls-1" d="M120,1.53h11c5.38,0,8.25,3,8.25,7.26,0,3.94-2.37,6.27-6,7.18v.12a4.42,4.42,0,0,1,3.36,4.7c0,1.56-.3,3.93-.3,6,0,.84.15,1.57.53,1.76v.27h-5.27a3.39,3.39,0,0,1-.42-2c0-1.72.23-3.7.23-5.27,0-2.44-1.38-3.67-4.13-3.67h-5l-2.1,11h-5.47Zm3.14,12.11h5.69c2.64,0,5-1.22,5-4.24,0-2.21-1.23-3.43-3.63-3.43h-5.54Z"/><path class="cls-1" d="M145.77,18.15,140.42,1.53H146l2.33,7.84c.49,1.68,1,4.08,1,4.08h.08s1.29-2.21,2.48-3.93l5.54-8h5.92L151.19,18.3l-2,10.55h-5.46Z"/></g></g></svg>