<svg xmlns="http://www.w3.org/2000/svg" viewBox="0 0 267.26 45.34"><defs><style>.cls-1{fill:none;stroke:#fff;stroke-miterlimit:10;stroke-width:4px;}</style></defs><g id="Layer_2" data-name="Layer 2"><g id="Layer_1-2" data-name="Layer 1"><path class="cls-1" d="M32.08,38.18H32c-2.5,3.61-6.55,5.16-11.38,5.16a17.43,17.43,0,0,1-13.1-5.27C3.83,34.19,2,28.86,2,22.7,2,11,9.44,2,21.7,2,32.08,2,38.63,7.38,39.9,16.21H28.69c-.61-2.56-3-4.66-6.54-4.66-5.55,0-8.38,4.66-8.38,11.15S17,34,22.59,34c4.22,0,6.27-2.27,7-4.94H24.31V20.87H40.68V42.4H33Z"/><path class="cls-1" d="M57.77,2.72H69.59L84.3,42.4H72L70,36.57H56.61l-2,5.83H43.12Zm1.45,25.86h8.21l-2.5-7.77c-.61-1.94-1.5-5.1-1.5-5.1h-.11s-.83,3.16-1.5,5.1Z"/><path class="cls-1" d="M87.57,2.72h11.6V32.47h17V42.4H87.57Z"/><path class="cls-1" d="M120.31,2.72h11.6V32.47h17V42.4H120.31Z"/><path class="cls-1" d="M153.06,2.72H184v9.44H164.66v5.38h16.15v8.71H164.66v6.22h19.86V42.4H153.06Z"/><path class="cls-1" d="M189.52,2.72h19.7c8.1,0,15,3.72,15,11.82,0,4.55-2.33,7.77-6.49,9.66v.17a8.35,8.35,0,0,1,5.55,6.54c1.05,4.78.16,10.49,1.61,10.88v.61H213.44c-1.11-.78-.67-5.66-1.5-9.21-.72-3-2.06-4.61-5.44-4.61h-5.38V42.4h-11.6Zm11.6,17.59h6.21c3.33,0,5.16-1.44,5.16-4.21,0-2.61-1.66-4.28-5-4.28h-6.38Z"/><path class="cls-1" d="M238.68,28.47,225.09,2.72h12.6l4.21,8.83c1.45,3,2.67,6.38,2.67,6.38h.11s1.27-3.39,2.72-6.38l4.22-8.83h12.32L250.28,28.47V42.4h-11.6Z"/></g></g></svg>