<svg xmlns="http://www.w3.org/2000/svg" viewBox="0 0 261.94 41.34"><defs><style>.cls-1{fill:#fff;}</style></defs><g id="Layer_2" data-name="Layer 2"><g id="Layer_1-2" data-name="Layer 1"><path class="cls-1" d="M30.08,36.18H30c-2.5,3.61-6.55,5.16-11.38,5.16a17.43,17.43,0,0,1-13.1-5.27C1.83,32.19,0,26.86,0,20.7,0,9,7.44,0,19.7,0,30.08,0,36.63,5.38,37.9,14.21H26.69c-.61-2.56-3-4.66-6.54-4.66-5.55,0-8.38,4.66-8.38,11.15S15,32,20.59,32c4.22,0,6.27-2.27,7-4.94H22.31V18.87H38.68V40.4H31Z"/><path class="cls-1" d="M55.77.72H67.59L82.3,40.4H70L68,34.57H54.61l-2,5.83H41.12Zm1.45,25.86h8.21l-2.5-7.77c-.61-1.94-1.5-5.1-1.5-5.1h-.11s-.83,3.16-1.5,5.1Z"/><path class="cls-1" d="M85.57.72h11.6V30.47h17V40.4H85.57Z"/><path class="cls-1" d="M118.31.72h11.6V30.47h17V40.4H118.31Z"/><path class="cls-1" d="M151.06.72H182v9.44H162.66v5.38h16.15v8.71H162.66v6.22h19.86V40.4H151.06Z"/><path class="cls-1" d="M187.52.72h19.7c8.1,0,15,3.72,15,11.82,0,4.55-2.33,7.77-6.49,9.66v.17a8.35,8.35,0,0,1,5.55,6.54c1.05,4.78.16,10.49,1.61,10.88v.61H211.44c-1.11-.78-.67-5.66-1.5-9.21-.72-3.05-2.06-4.61-5.44-4.61h-5.38V40.4h-11.6Zm11.6,17.59h6.21c3.33,0,5.16-1.44,5.16-4.21,0-2.61-1.66-4.28-5-4.28h-6.38Z"/><path class="cls-1" d="M236.68,26.47,223.09.72h12.6l4.21,8.83c1.45,3,2.67,6.38,2.67,6.38h.11s1.27-3.39,2.72-6.38L249.62.72h12.32L248.28,26.47V40.4h-11.6Z"/></g></g></svg>