<svg xmlns="http://www.w3.org/2000/svg" viewBox="0 0 49 49"><defs><style>.cls-1{fill:#fff;}</style></defs><g id="Layer_2" data-name="Layer 2"><g id="Layer_1-2" data-name="Layer 1"><path class="cls-1" d="M35.48,0h-22A13.54,13.54,0,0,0,0,13.52v22A13.54,13.54,0,0,0,13.52,49h22A13.54,13.54,0,0,0,49,35.48v-22A13.54,13.54,0,0,0,35.48,0Zm9.17,35.48a9.18,9.18,0,0,1-9.17,9.17h-22a9.18,9.18,0,0,1-9.17-9.17v-22a9.18,9.18,0,0,1,9.17-9.17h22a9.18,9.18,0,0,1,9.17,9.17v22Z"/><path class="cls-1" d="M24.5,11.87A12.63,12.63,0,1,0,37.13,24.5,12.65,12.65,0,0,0,24.5,11.87Zm0,20.91a8.28,8.28,0,1,1,8.28-8.28A8.3,8.3,0,0,1,24.5,32.78Z"/><path class="cls-1" d="M37.66,8.19a3.19,3.19,0,1,0,0,6.37,3.19,3.19,0,1,0,0-6.37Z"/></g></g></svg>