<svg xmlns="http://www.w3.org/2000/svg" viewBox="0 0 881.84 480.98"><defs><style>.cls-1{font-size:100px;font-family:NHaasGroteskDSPro-95Blk, Neue Haas Grotesk Display Pro;letter-spacing:0.02em;}.cls-2{letter-spacing:0.02em;}.cls-3{letter-spacing:0.04em;}.cls-4{fill:#dcf6db;}.cls-5{font-size:37px;font-family:NHaasGroteskDSPro-66MdIt, Neue Haas Grotesk Display Pro;font-weight:500;font-style:italic;letter-spacing:0.13em;}.cls-6{letter-spacing:0.13em;}.cls-7{letter-spacing:0.13em;}</style></defs><g id="Layer_2" data-name="Layer 2"><g id="Layer_1-2" data-name="Layer 1"><text class="cls-1" transform="translate(0.2 85.75)">L<tspan class="cls-2" x="59.5" y="0">ucidi</tspan><tspan class="cls-3" x="296.5" y="0">t</tspan><tspan class="cls-2" x="337.49" y="0">y</tspan></text><path class="cls-4" d="M.83,158.16H21v3.47H13.43V178.5H8.36V161.63H.83Z"/><path class="cls-4" d="M24.21,158.16h5.08v8h9.83v-8H44.2V178.5H39.12v-9H29.29v9H24.21Z"/><path class="cls-4" d="M48.75,158.16H67.16v3.47H53.82v4.55H65.51v3.38H53.82v5.49H67.26v3.45H48.75Z"/><path class="cls-4" d="M95,177.56A14.49,14.49,0,0,1,88.61,179c-7.38,0-12-4.49-12-10.58s4.62-10.61,12-10.61,12,4.52,12,10.61a10.1,10.1,0,0,1-2.73,7.08l2.66,1.94-2.59,2.3ZM91.59,175l-2.21-1.65L92,171.1l2.28,1.71a8.32,8.32,0,0,0,1.15-4.44c0-4.07-2.17-7.23-6.75-7.23s-6.86,3.16-6.86,7.23,2.27,7.2,6.86,7.2A7.24,7.24,0,0,0,91.59,175Z"/><path class="cls-4" d="M103.84,172V158.16h5.07V172c0,2.11,1.3,3.59,4.69,3.59,3.22,0,4.73-1.54,4.73-3.64V158.16h5.07V172c0,4.36-3.29,6.89-9.69,6.89S103.84,176.36,103.84,172Z"/><path class="cls-4" d="M133.76,158.16H139l8.82,20.34h-5.28l-1.68-4.33h-9l-1.65,4.33h-5.14ZM133,171h6.61l-2.24-5.86c-.42-1.08-1-3.12-1-3.12h-.07s-.63,2-1,3.12Z"/><path class="cls-4" d="M150.63,158.16h11.48c4.83,0,8,2.27,8,5.66,0,2.39-1.36,4.21-4.58,4.92v.08c2.31.54,3.5,1.63,3.81,4.1.35,2.87.21,5.06,1.09,5.38v.2h-4.87c-.63-.23-.7-2.51-.91-4.7s-1.75-3.47-4.9-3.47h-4.09v8.17h-5.08Zm5.08,9h5.39c2.76,0,4.13-1.17,4.13-2.79s-1.3-2.88-4-2.88h-5.53Z"/><path class="cls-4" d="M181.19,158.16h5.25l8.82,20.34H190l-1.68-4.33h-9l-1.64,4.33h-5.15ZM180.45,171h6.62l-2.24-5.86c-.42-1.08-1-3.12-1-3.12h-.07s-.63,2-1.05,3.12Z"/><path class="cls-4" d="M198.05,158.16h5.15l8.33,11.35a31.32,31.32,0,0,1,1.75,2.84h.07s-.14-2.1-.14-3.53V158.16h5V178.5h-4.9l-8.54-11.24a32.18,32.18,0,0,1-1.79-2.82h-.07s.14,2.14.14,3.56v10.5h-5Z"/><path class="cls-4" d="M221.79,175.4l13.65-13.72v-.08H222.66v-3.44h18.8v3.44l-13.2,13.31V175H241.7v3.5H221.79Z"/><path class="cls-4" d="M245.41,158.16h5.08V178.5h-5.08Z"/><path class="cls-4" d="M255.07,158.16h5.14l8.34,11.35c.8,1.11,1.75,2.84,1.75,2.84h.07s-.14-2.1-.14-3.53V158.16h5V178.5h-4.9l-8.54-11.24c-.8-1.08-1.79-2.82-1.79-2.82h-.06s.14,2.14.14,3.56v10.5h-5Z"/><path class="cls-4" d="M279.78,158.16h18.41v3.47H284.85v4.55h11.7v3.38h-11.7v5.49H298.3v3.45H279.78Z"/><path class="cls-4" d="M306.87,158.16h5.32l4.41,11.77c.49,1.34,1.08,3.25,1.08,3.25h.07s.6-1.94,1.09-3.25l4.38-11.77h5.14l-8.44,20.34H315.3Z"/><path class="cls-4" d="M328.74,168.37c0-6.09,4.69-10.61,12.08-10.61s12,4.52,12,10.61-4.65,10.58-12,10.58S328.74,174.46,328.74,168.37Zm18.94,0c0-4.07-2.24-7.23-6.82-7.23s-6.94,3.16-6.94,7.23,2.35,7.2,6.94,7.2S347.68,172.41,347.68,168.37Z"/><path class="cls-4" d="M356.32,158.16h5.08v16.89h11.76v3.45H356.32Z"/><path class="cls-4" d="M376.8,174.37h5.11v4.13H376.8Z"/><path class="cls-4" d="M391.5,168.77c0-6.23,3.95-10.19,10-10.19s10,3.93,10,10.19-3.78,10.18-10,10.18S391.5,175,391.5,168.77Zm15.05,0c0-4.13-1.47-6.89-5-6.89s-5.07,2.73-5.07,6.89,1.5,6.88,5.07,6.88S406.55,173,406.55,168.77Z"/><path class="cls-4" d="M419.78,170.76c3-1.94,6.3-3.3,6.3-5.8,0-1.83-1.19-3.05-3.33-3.05-2.41,0-3.85,1.42-3.92,4h-4.48c0-4.44,2.8-7.26,8.51-7.26,5.21,0,8.15,2.87,8.15,6.23,0,3.67-3.08,5.41-6,7-1.85,1-4,2.22-4.83,3.47h11.06v3.19H414C414.18,174.77,417.05,172.49,419.78,170.76Z"/><text class="cls-5" transform="translate(0.2 126.71) scale(1.1 0.9)">loo·si·duh·<tspan class="cls-6" x="212.86" y="0">t</tspan><tspan class="cls-7" x="229.43" y="0">ee</tspan></text><path d="M6,208.24H9.79v15.44h8.73v3.15H6Z"/><path d="M20.4,220.17a6.78,6.78,0,0,1,7-7,7,7,0,0,1,0,14.09A6.78,6.78,0,0,1,20.4,220.17Zm10.35,0c0-2.6-1.23-4.36-3.39-4.36S24,217.57,24,220.17s1.2,4.35,3.38,4.35S30.75,222.77,30.75,220.17Z"/><path d="M40.42,215.62h.07c.81-1.5,1.72-2.29,3.28-2.29a2.24,2.24,0,0,1,.83.11v3.09h-.08c-2.31-.23-4,1-4,3.8v6.5H37V213.49h3.41Z"/><path d="M46.14,220.15c0-4,2.67-7,6.57-7,4.29,0,6.58,3.27,6.58,8H49.62c.26,2.06,1.4,3.33,3.41,3.33a2.48,2.48,0,0,0,2.57-1.64h3.48c-.49,2.37-2.59,4.37-6,4.37C48.63,227.22,46.14,224.13,46.14,220.15Zm3.53-1.43H55.6a2.81,2.81,0,0,0-2.83-2.86C50.89,215.86,50,217,49.67,218.72Z"/><path d="M62,213.49h3.41v1.8h.07a4.35,4.35,0,0,1,3.88-2.16A4,4,0,0,1,73,215.47h0a4.65,4.65,0,0,1,4-2.34c2.8,0,4.39,1.82,4.39,4.73v9H77.93v-8.37c0-1.51-.75-2.29-2.05-2.29-1.48,0-2.39,1.14-2.39,2.91v7.75H70v-8.37c0-1.51-.75-2.29-2-2.29s-2.39,1.14-2.39,2.91v7.75H62Z"/><path d="M89.61,208.24h3.54v3.17H89.61Zm0,5.25h3.54v13.34H89.61Z"/><path d="M96.48,213.49h3.4v1.67H100a4.67,4.67,0,0,1,3.93-2c3.54,0,5.8,2.88,5.8,7,0,4.32-2.34,7.05-5.77,7.05a4.27,4.27,0,0,1-3.85-1.9H100v5.88H96.48Zm9.62,6.79c0-2.52-.88-4.29-3.07-4.29s-3.09,1.9-3.09,4.29,1.12,4,3.22,4C105,224.28,106.1,222.8,106.1,220.28Z"/><path d="M111.53,222.51h3.28c.23,1.54,1.32,2.21,2.91,2.21s2.45-.59,2.45-1.53c0-1.27-1.7-1.4-3.51-1.77-2.4-.47-4.74-1.12-4.74-4s2.39-4.26,5.44-4.26c3.51,0,5.46,1.74,5.72,4.42h-3.2c-.16-1.43-1.07-2-2.58-2s-2.28.52-2.28,1.48c0,1.14,1.77,1.25,3.66,1.64,2.24.47,4.71,1.09,4.71,4.21,0,2.68-2.29,4.29-5.62,4.29C113.9,227.22,111.74,225.35,111.53,222.51Z"/><path d="M134.44,226.83v-1.56h-.08a4.28,4.28,0,0,1-3.82,1.92c-3,0-4.63-1.89-4.63-4.81v-8.89h3.51v8.3c0,1.56.7,2.41,2.21,2.41,1.66,0,2.68-1.24,2.68-3v-7.7h3.53v13.34Z"/><path d="M141.17,213.49h3.41v1.8h.08a4.32,4.32,0,0,1,3.87-2.16,4,4,0,0,1,3.69,2.34h.05a4.65,4.65,0,0,1,4-2.34c2.81,0,4.39,1.82,4.39,4.73v9h-3.53v-8.37c0-1.51-.76-2.29-2.06-2.29-1.48,0-2.39,1.14-2.39,2.91v7.75h-3.54v-8.37c0-1.51-.75-2.29-2.05-2.29s-2.39,1.14-2.39,2.91v7.75h-3.54Z"/><path d="M168.17,220.17c0-4.16,2.36-7,5.69-7a4.25,4.25,0,0,1,3.77,2h.08v-6.86h3.54v18.59h-3.41v-1.74h-.05a4.45,4.45,0,0,1-4,2.13C170.46,227.22,168.17,224.49,168.17,220.17Zm9.62.08c0-2.55-.83-4.26-3.1-4.26-1.95,0-2.94,1.71-2.94,4.18s1,4.09,2.84,4.09C176.7,224.26,177.79,222.7,177.79,220.25Z"/><path d="M183.92,220.17a7,7,0,1,1,7,7.05A6.79,6.79,0,0,1,183.92,220.17Zm10.35,0c0-2.6-1.22-4.36-3.38-4.36s-3.38,1.76-3.38,4.36,1.2,4.35,3.38,4.35S194.27,222.77,194.27,220.17Z"/><path d="M200.59,208.24h3.53v18.59h-3.53Z"/><path d="M206.85,220.17a7,7,0,1,1,7,7.05A6.79,6.79,0,0,1,206.85,220.17Zm10.35,0c0-2.6-1.22-4.36-3.38-4.36s-3.38,1.76-3.38,4.36,1.2,4.35,3.38,4.35S217.2,222.77,217.2,220.17Z"/><path d="M226.87,215.62H227c.81-1.5,1.72-2.29,3.28-2.29a2.24,2.24,0,0,1,.83.11v3.09H231c-2.31-.23-4,1-4,3.8v6.5h-3.53V213.49h3.4Z"/><path d="M237.72,222.51H241c.23,1.54,1.33,2.21,2.91,2.21s2.45-.59,2.45-1.53c0-1.27-1.69-1.4-3.51-1.77-2.4-.47-4.74-1.12-4.74-4s2.39-4.26,5.44-4.26c3.51,0,5.46,1.74,5.72,4.42h-3.2c-.16-1.43-1.07-2-2.57-2s-2.29.52-2.29,1.48c0,1.14,1.77,1.25,3.66,1.64,2.24.47,4.71,1.09,4.71,4.21,0,2.68-2.29,4.29-5.62,4.29C240.09,227.22,237.93,225.35,237.72,222.51Z"/><path d="M252.2,208.24h3.54v3.17H252.2Zm0,5.25h3.54v13.34H252.2Z"/><path d="M258.29,213.49h1.84v-4.16h3.46v4.16h2.29v2.34h-2.29v7.07a1.17,1.17,0,0,0,1.33,1.33c.44,0,1,0,1,0v2.6s-.81.06-2.21.06c-1.72,0-3.62-.68-3.62-3.2v-7.83h-1.84Z"/><path d="M281.64,225.35h-.05c-.67,1-1.63,1.79-3.92,1.79-2.73,0-4.66-1.43-4.66-4.08,0-2.94,2.39-3.87,5.36-4.29,2.21-.31,3.22-.49,3.22-1.51s-.75-1.58-2.23-1.58c-1.67,0-2.47.59-2.58,1.87h-3.14c.1-2.34,1.84-4.4,5.74-4.4S285,215,285,218.07v6.78c0,1,.16,1.62.47,1.85v.13h-3.41A3.59,3.59,0,0,1,281.64,225.35Zm0-3.23v-2a9.7,9.7,0,0,1-2.47.78c-1.85.42-2.76.83-2.76,2.08s.84,1.69,2.08,1.69C280.55,224.67,281.67,223.42,281.67,222.12Z"/><path d="M288.27,213.49h3.41v1.8h.08a4.34,4.34,0,0,1,3.87-2.16,4,4,0,0,1,3.69,2.34h.06a4.64,4.64,0,0,1,4-2.34c2.81,0,4.39,1.82,4.39,4.73v9h-3.53v-8.37c0-1.51-.76-2.29-2.06-2.29-1.48,0-2.39,1.14-2.39,2.91v7.75h-3.53v-8.37c0-1.51-.76-2.29-2.06-2.29s-2.39,1.14-2.39,2.91v7.75h-3.54Z"/><path d="M310.35,220.15c0-4,2.68-7,6.58-7,4.29,0,6.57,3.27,6.57,8h-9.67c.26,2.06,1.41,3.33,3.41,3.33a2.48,2.48,0,0,0,2.57-1.64h3.49c-.5,2.37-2.6,4.37-6,4.37C312.84,227.22,310.35,224.13,310.35,220.15Zm3.53-1.43h5.93a2.81,2.81,0,0,0-2.83-2.86C315.11,215.86,314.2,217,313.88,218.72Z"/><path d="M325.14,213.49H327v-4.16h3.45v4.16h2.29v2.34h-2.29v7.07a1.17,1.17,0,0,0,1.33,1.33c.44,0,1,0,1,0v2.6s-.81.06-2.21.06c-1.72,0-3.61-.68-3.61-3.2v-7.83h-1.85Z"/><path d="M335.67,229.87a3.22,3.22,0,0,0,1.87-3h-1.89v-3.77h3.79v3.56a4.42,4.42,0,0,1-3.77,4.53Z"/><path d="M346.83,220.17c0-4,2.6-7,6.66-7,3.46,0,5.59,2,6.06,4.89h-3.46a2.46,2.46,0,0,0-2.45-2.06c-2.13,0-3.22,1.64-3.22,4.21s1,4.22,3.17,4.22a2.49,2.49,0,0,0,2.68-2.27h3.41c-.24,2.84-2.45,5.1-6,5.1C349.46,227.22,346.83,224.15,346.83,220.17Z"/><path d="M361.6,220.17a7,7,0,1,1,7,7.05A6.78,6.78,0,0,1,361.6,220.17Zm10.35,0c0-2.6-1.22-4.36-3.38-4.36s-3.38,1.76-3.38,4.36,1.19,4.35,3.38,4.35S372,222.77,372,220.17Z"/><path d="M381.67,215.31h.08a4.33,4.33,0,0,1,3.95-2.18c2.76,0,4.6,2.08,4.6,5v8.71h-3.53v-8.19a2.22,2.22,0,0,0-2.32-2.44,2.78,2.78,0,0,0-2.7,3.06v7.57h-3.54V213.49h3.46Z"/><path d="M392.69,222.51H396c.24,1.54,1.33,2.21,2.91,2.21s2.45-.59,2.45-1.53c0-1.27-1.69-1.4-3.51-1.77-2.4-.47-4.74-1.12-4.74-4s2.4-4.26,5.44-4.26c3.51,0,5.46,1.74,5.72,4.42H401c-.16-1.43-1.06-2-2.57-2s-2.29.52-2.29,1.48c0,1.14,1.77,1.25,3.66,1.64,2.24.47,4.71,1.09,4.71,4.21,0,2.68-2.29,4.29-5.62,4.29C395.06,227.22,392.9,225.35,392.69,222.51Z"/><path d="M406.66,220.15c0-4,2.67-7,6.57-7,4.29,0,6.58,3.27,6.58,8h-9.67c.26,2.06,1.4,3.33,3.41,3.33a2.49,2.49,0,0,0,2.57-1.64h3.48c-.49,2.37-2.6,4.37-6,4.37C409.15,227.22,406.66,224.13,406.66,220.15Zm3.53-1.43h5.93a2.81,2.81,0,0,0-2.83-2.86C411.41,215.86,410.5,217,410.19,218.72Z"/><path d="M421.84,220.17c0-4,2.6-7,6.66-7,3.45,0,5.58,2,6.05,4.89h-3.46a2.44,2.44,0,0,0-2.44-2.06c-2.13,0-3.22,1.64-3.22,4.21s1,4.22,3.17,4.22a2.5,2.5,0,0,0,2.68-2.27h3.4c-.23,2.84-2.44,5.1-6,5.1C424.46,227.22,421.84,224.15,421.84,220.17Z"/><path d="M437,218.87h7v3h-7Z"/><path d="M5,244.69H6.8v-4.16h3.46v4.16h2.28V247H10.26v7.07a1.17,1.17,0,0,0,1.32,1.33c.44,0,1,0,1,0V258s-.8.06-2.21.06c-1.71,0-3.61-.68-3.61-3.2V247H5Z"/><path d="M14.62,251.35c0-3.95,2.68-7,6.58-7,4.29,0,6.58,3.27,6.58,8H18.11c.26,2.06,1.4,3.33,3.4,3.33a2.49,2.49,0,0,0,2.58-1.64h3.48c-.49,2.37-2.6,4.37-6,4.37C17.12,258.42,14.62,255.33,14.62,251.35Zm3.54-1.43h5.93a2.82,2.82,0,0,0-2.84-2.86C19.38,247.06,18.47,248.18,18.16,249.92Z"/><path d="M29.42,244.69h1.84v-4.16h3.46v4.16H37V247H34.72v7.07a1.17,1.17,0,0,0,1.33,1.33c.44,0,1,0,1,0V258s-.81.06-2.21.06c-1.72,0-3.62-.68-3.62-3.2V247H29.42Z"/><path d="M48.29,258v-1.56h-.07a4.29,4.29,0,0,1-3.83,1.92c-3,0-4.62-1.89-4.62-4.81v-8.89h3.51V253c0,1.56.7,2.41,2.21,2.41s2.67-1.24,2.67-3v-7.7H51.7V258Z"/><path d="M54.38,251.35c0-3.95,2.68-7,6.58-7,4.29,0,6.57,3.27,6.57,8H57.86c.26,2.06,1.41,3.33,3.41,3.33a2.48,2.48,0,0,0,2.57-1.64h3.49c-.5,2.37-2.6,4.37-6,4.37C56.87,258.42,54.38,255.33,54.38,251.35Zm3.53-1.43h5.93A2.81,2.81,0,0,0,61,247.06C59.14,247.06,58.23,248.18,57.91,249.92Z"/><path d="M73.62,246.82h.08c.8-1.5,1.71-2.28,3.27-2.28a2.24,2.24,0,0,1,.83.1v3.09h-.07c-2.32-.23-4,1-4,3.8V258H70.21V244.69h3.41Z"/><path d="M110.88,256.55h0c-.67,1-1.63,1.79-3.92,1.79-2.73,0-4.66-1.43-4.66-4.08,0-2.94,2.39-3.87,5.36-4.29,2.21-.31,3.22-.49,3.22-1.51s-.75-1.58-2.23-1.58c-1.67,0-2.47.59-2.58,1.87h-3.14c.1-2.34,1.84-4.4,5.74-4.4s5.62,1.8,5.62,4.92v6.78c0,1,.16,1.62.47,1.85V258H111.3A3.59,3.59,0,0,1,110.88,256.55Zm0-3.23v-2a9.57,9.57,0,0,1-2.47.78c-1.85.42-2.76.83-2.76,2.08s.84,1.69,2.08,1.69C109.79,255.87,110.91,254.62,110.91,253.32Z"/><path d="M116.86,251.37c0-4.16,2.37-7,5.7-7a4.25,4.25,0,0,1,3.77,2h.08v-6.86h3.53V258h-3.4v-1.74h-.06a4.43,4.43,0,0,1-4,2.13C119.15,258.42,116.86,255.69,116.86,251.37Zm9.62.08c0-2.55-.83-4.26-3.09-4.26-2,0-2.94,1.71-2.94,4.18s1,4.09,2.84,4.09C125.39,255.46,126.48,253.9,126.48,251.45Z"/><path d="M133.27,239.44h3.54v3.17h-3.54Zm0,5.25h3.54V258h-3.54Z"/><path d="M140.13,244.69h3.41v1.67h.08a4.65,4.65,0,0,1,3.92-2c3.54,0,5.8,2.88,5.8,7,0,4.32-2.34,7.05-5.77,7.05a4.3,4.3,0,0,1-3.85-1.9h-.05v5.88h-3.54Zm9.62,6.79c0-2.52-.88-4.29-3.06-4.29s-3.1,1.9-3.1,4.29,1.12,4,3.23,4C148.61,255.48,149.75,254,149.75,251.48Z"/><path d="M156,239.44h3.54v3.17H156Zm0,5.25h3.54V258H156Z"/><path d="M162.05,253.71h3.28c.23,1.54,1.32,2.21,2.91,2.21s2.44-.59,2.44-1.53c0-1.27-1.69-1.4-3.51-1.77-2.39-.47-4.73-1.12-4.73-4s2.39-4.26,5.44-4.26c3.51,0,5.46,1.74,5.72,4.42h-3.2c-.16-1.43-1.07-1.95-2.58-1.95s-2.28.52-2.28,1.48c0,1.14,1.76,1.25,3.66,1.64,2.24.47,4.71,1.09,4.71,4.21,0,2.68-2.29,4.29-5.62,4.29C164.42,258.42,162.26,256.55,162.05,253.71Z"/><path d="M176,251.37c0-4,2.6-7,6.66-7,3.46,0,5.59,2,6.06,4.89h-3.46a2.44,2.44,0,0,0-2.44-2.06c-2.14,0-3.23,1.64-3.23,4.21s1,4.22,3.17,4.22a2.49,2.49,0,0,0,2.68-2.27h3.41c-.24,2.84-2.45,5.1-6,5.1C178.64,258.42,176,255.35,176,251.37Z"/><path d="M191.43,239.44H195v3.17h-3.54Zm0,5.25H195V258h-3.54Z"/><path d="M201.75,246.51h.08a4.33,4.33,0,0,1,3.95-2.18c2.76,0,4.61,2.08,4.61,5V258h-3.54v-8.19a2.21,2.21,0,0,0-2.31-2.44,2.78,2.78,0,0,0-2.71,3.06V258H198.3V244.69h3.45Z"/><path d="M213.25,258.42h3.5c.29.83,1,1.48,2.68,1.48,2,0,3-1,3-2.78v-1.46h-.08a4.29,4.29,0,0,1-3.49,1.56,6,6,0,0,1-5.87-6.37c0-4,2.39-6.52,5.77-6.52a4.28,4.28,0,0,1,3.69,1.77h.06v-1.41h3.4V257a5.16,5.16,0,0,1-1.59,4.05,7,7,0,0,1-4.8,1.51C215.84,262.58,213.61,261,213.25,258.42Zm9.33-7.64c0-1.95-1-3.62-3.17-3.62-1.8,0-3,1.41-3,3.64s1.19,3.59,3,3.59C221.67,254.39,222.58,252.75,222.58,250.78Z"/><path d="M251.08,251.35c0-3.95,2.68-7,6.58-7,4.29,0,6.58,3.27,6.58,8h-9.67c.26,2.06,1.4,3.33,3.4,3.33a2.49,2.49,0,0,0,2.58-1.64H264c-.49,2.37-2.6,4.37-6,4.37C253.58,258.42,251.08,255.33,251.08,251.35Zm3.54-1.43h5.93a2.82,2.82,0,0,0-2.84-2.86C255.84,247.06,254.93,248.18,254.62,249.92Z"/><path d="M267,239.44h3.54V258H267Z"/><path d="M273.89,239.44h3.53v3.17h-3.53Zm0,5.25h3.53V258h-3.53Z"/><path d="M280,244.69h1.85v-4.16h3.45v4.16h2.29V247h-2.29v7.07a1.17,1.17,0,0,0,1.33,1.33c.44,0,1,0,1,0V258s-.81.06-2.21.06c-1.72,0-3.61-.68-3.61-3.2V247H280Z"/><path d="M290.5,261.07a3.22,3.22,0,0,0,1.87-3h-1.9v-3.77h3.8v3.56a4.42,4.42,0,0,1-3.77,4.53Z"/><path d="M319.08,253.71h3.28c.23,1.54,1.32,2.21,2.91,2.21s2.44-.59,2.44-1.53c0-1.27-1.69-1.4-3.5-1.77-2.4-.47-4.74-1.12-4.74-4s2.39-4.26,5.44-4.26c3.51,0,5.46,1.74,5.72,4.42h-3.2c-.16-1.43-1.07-1.95-2.58-1.95s-2.28.52-2.28,1.48c0,1.14,1.76,1.25,3.66,1.64,2.24.47,4.71,1.09,4.71,4.21,0,2.68-2.29,4.29-5.62,4.29C321.45,258.42,319.29,256.55,319.08,253.71Z"/><path d="M333,251.35c0-3.95,2.68-7,6.58-7,4.29,0,6.58,3.27,6.58,8h-9.67c.26,2.06,1.4,3.33,3.4,3.33a2.49,2.49,0,0,0,2.58-1.64H346c-.49,2.37-2.6,4.37-6,4.37C335.54,258.42,333,255.33,333,251.35Zm3.54-1.43h5.93a2.82,2.82,0,0,0-2.84-2.86C337.8,247.06,336.89,248.18,336.58,249.92Z"/><path d="M348.23,251.37c0-4.16,2.36-7,5.69-7a4.25,4.25,0,0,1,3.77,2h.08v-6.86h3.54V258H357.9v-1.74h0a4.45,4.45,0,0,1-4,2.13C350.52,258.42,348.23,255.69,348.23,251.37Zm9.62.08c0-2.55-.83-4.26-3.1-4.26-1.95,0-2.93,1.71-2.93,4.18s1,4.09,2.83,4.09C356.76,255.46,357.85,253.9,357.85,251.45Z"/><path d="M386.51,251.37c0-4.16,2.37-7,5.69-7a4.22,4.22,0,0,1,3.77,2h.08v-6.86h3.54V258h-3.41v-1.74h-.05a4.45,4.45,0,0,1-4,2.13C388.8,258.42,386.51,255.69,386.51,251.37Zm9.62.08c0-2.55-.83-4.26-3.09-4.26-2,0-2.94,1.71-2.94,4.18s1,4.09,2.83,4.09C395,255.46,396.13,253.9,396.13,251.45Z"/><path d="M402.92,239.44h3.53v3.17h-3.53Zm0,5.25h3.53V258h-3.53Z"/><path d="M417.76,256.55h-.05c-.68,1-1.64,1.79-3.93,1.79-2.73,0-4.65-1.43-4.65-4.08,0-2.94,2.39-3.87,5.36-4.29,2.21-.31,3.22-.49,3.22-1.51s-.75-1.58-2.24-1.58c-1.66,0-2.47.59-2.57,1.87h-3.15c.11-2.34,1.85-4.4,5.75-4.4s5.62,1.8,5.62,4.92v6.78c0,1,.15,1.62.46,1.85V258h-3.4A3.59,3.59,0,0,1,417.76,256.55Zm0-3.23v-2a9.83,9.83,0,0,1-2.47.78c-1.85.42-2.76.83-2.76,2.08s.83,1.69,2.08,1.69C416.67,255.87,417.79,254.62,417.79,253.32Z"/><path d="M424.39,244.69h3.41v1.8h.07a4.35,4.35,0,0,1,3.88-2.16,4,4,0,0,1,3.69,2.34h.05a4.65,4.65,0,0,1,4-2.34c2.8,0,4.39,1.82,4.39,4.73v9h-3.54v-8.37c0-1.51-.75-2.29-2.05-2.29-1.48,0-2.39,1.14-2.39,2.91V258h-3.54v-8.37c0-1.51-.75-2.29-2.05-2.29s-2.39,1.14-2.39,2.91V258h-3.54Z"/><path d="M9.19,277.71h.08a4.33,4.33,0,0,1,4-2.18c2.76,0,4.6,2.08,4.6,5v8.71H14.29V281A2.22,2.22,0,0,0,12,278.6a2.78,2.78,0,0,0-2.7,3.06v7.57H5.73V275.89H9.19Z"/><path d="M20.4,282.57a6.78,6.78,0,0,1,7-7,7,7,0,0,1,0,14.09A6.78,6.78,0,0,1,20.4,282.57Zm10.34,0c0-2.6-1.22-4.36-3.38-4.36S24,280,24,282.57s1.2,4.35,3.38,4.35S30.74,285.17,30.74,282.57Z"/><path d="M40.47,277.71h.08a4.33,4.33,0,0,1,4-2.18c2.75,0,4.6,2.08,4.6,5v8.71H45.56V281a2.21,2.21,0,0,0-2.31-2.44,2.78,2.78,0,0,0-2.7,3.06v7.57H37V275.89h3.46Z"/><path d="M60.75,289.23v-1.56h-.08a4.28,4.28,0,0,1-3.82,1.92c-3,0-4.63-1.89-4.63-4.81v-8.89h3.51v8.3c0,1.56.7,2.41,2.21,2.41,1.66,0,2.68-1.24,2.68-3v-7.7h3.53v13.34Z"/><path d="M67.48,275.89h3.41v1.8H71a4.35,4.35,0,0,1,3.88-2.16,4,4,0,0,1,3.69,2.34h0a4.65,4.65,0,0,1,4-2.34c2.81,0,4.39,1.82,4.39,4.73v9H83.45v-8.37c0-1.51-.76-2.29-2.06-2.29-1.48,0-2.39,1.14-2.39,2.91v7.75H75.46v-8.37c0-1.51-.75-2.29-2-2.29S71,279.71,71,281.48v7.75H67.48Z"/><path d="M90.2,275.89h3.41v1.8h.08a4.34,4.34,0,0,1,3.87-2.16,4,4,0,0,1,3.69,2.34h.06a4.64,4.64,0,0,1,4-2.34c2.81,0,4.4,1.82,4.4,4.73v9h-3.54v-8.37c0-1.51-.75-2.29-2-2.29-1.49,0-2.4,1.14-2.4,2.91v7.75H98.19v-8.37c0-1.51-.76-2.29-2.06-2.29s-2.39,1.14-2.39,2.91v7.75H90.2Z"/><path d="M113,290.82h1.25c1.41,0,2-.73,2-1.82a11.64,11.64,0,0,0-1-3.62l-3.59-9.49h3.71l2,6c.42,1.22.86,2.91.86,2.91h.05s.36-1.69.78-2.91l1.87-6h3.56l-4.65,13.68c-1,3-2,4-4.71,4H113Z"/><path d="M137.08,277.71h.08a4.33,4.33,0,0,1,4-2.18c2.76,0,4.61,2.08,4.61,5v8.71h-3.54V281a2.21,2.21,0,0,0-2.31-2.44,2.78,2.78,0,0,0-2.71,3.06v7.57h-3.53V275.89h3.45Z"/><path d="M148.94,270.64h3.54v3.17h-3.54Zm0,5.25h3.54v13.34h-3.54Z"/><path d="M159.26,287.57h0v1.66H155.8V270.64h3.54v6.86h.08a4.16,4.16,0,0,1,3.72-2c3.35,0,5.74,2.88,5.74,7,0,4.32-2.29,7.05-5.64,7.05A4.46,4.46,0,0,1,159.26,287.57Zm6-5c0-2.47-1-4.18-3-4.18-2.24,0-3.07,1.79-3.07,4.26s1.22,4,3.2,4C164.28,286.66,165.29,285.15,165.29,282.57Z"/><path d="M175.1,277.63h.07a4.27,4.27,0,0,1,3.88-2.1c2.75,0,4.6,2.08,4.6,5v8.71h-3.54V281a2.21,2.21,0,0,0-2.31-2.44,2.78,2.78,0,0,0-2.7,3.06v7.57h-3.54V270.64h3.54Z"/><path d="M193.22,282.55c0-3.95,2.68-7,6.58-7,4.29,0,6.58,3.27,6.58,8H196.7c.26,2.06,1.41,3.33,3.41,3.33a2.48,2.48,0,0,0,2.57-1.64h3.49c-.5,2.37-2.6,4.37-6,4.37C195.72,289.62,193.22,286.53,193.22,282.55Zm3.54-1.43h5.92a2.81,2.81,0,0,0-2.83-2.86C198,278.26,197.07,279.38,196.76,281.12Z"/><path d="M217.48,289.23v-1.56h-.08a4.28,4.28,0,0,1-3.82,1.92c-3,0-4.63-1.89-4.63-4.81v-8.89h3.51v8.3c0,1.56.7,2.41,2.21,2.41,1.66,0,2.68-1.24,2.68-3v-7.7h3.53v13.34Z"/><path d="M224.21,270.64h3.54v3.17h-3.54Zm0,5.25h3.54v13.34h-3.54Z"/><path d="M230.24,284.91h3.28c.23,1.54,1.33,2.21,2.91,2.21s2.45-.59,2.45-1.53c0-1.27-1.69-1.4-3.51-1.77-2.4-.47-4.74-1.12-4.74-4s2.4-4.26,5.44-4.26c3.51,0,5.46,1.74,5.72,4.42h-3.2c-.16-1.43-1.07-1.95-2.57-1.95s-2.29.52-2.29,1.48c0,1.14,1.77,1.25,3.66,1.64,2.24.46,4.71,1.09,4.71,4.21,0,2.68-2.29,4.29-5.62,4.29C232.61,289.62,230.45,287.75,230.24,284.91Z"/><path d="M244.72,275.89h3.41v1.8h.08a4.34,4.34,0,0,1,3.87-2.16,4,4,0,0,1,3.69,2.34h.06a4.64,4.64,0,0,1,4-2.34c2.81,0,4.39,1.82,4.39,4.73v9h-3.53v-8.37c0-1.51-.76-2.29-2.06-2.29-1.48,0-2.39,1.14-2.39,2.91v7.75h-3.53v-8.37c0-1.51-.76-2.29-2.06-2.29s-2.39,1.14-2.39,2.91v7.75h-3.54Z"/><path d="M266.8,282.57a7,7,0,1,1,7,7.05A6.78,6.78,0,0,1,266.8,282.57Zm10.35,0c0-2.6-1.23-4.36-3.38-4.36s-3.38,1.76-3.38,4.36,1.19,4.35,3.38,4.35S277.15,285.17,277.15,282.57Z"/><path d="M282.76,282.57c0-4.16,2.37-7,5.7-7a4.23,4.23,0,0,1,3.77,2h.07v-6.86h3.54v18.59h-3.41v-1.74h-.05a4.44,4.44,0,0,1-4,2.13C285.05,289.62,282.76,286.89,282.76,282.57Zm9.62.08c0-2.55-.83-4.26-3.09-4.26-2,0-2.94,1.71-2.94,4.18s1,4.09,2.83,4.09C291.29,286.66,292.38,285.1,292.38,282.65Z"/><path d="M305.38,275.89h1.85v-4.16h3.46v4.16H313v2.34h-2.29v7.07a1.17,1.17,0,0,0,1.32,1.33c.45,0,1,0,1,0v2.6s-.8.06-2.21.06c-1.71,0-3.61-.68-3.61-3.2v-7.83h-1.85Z"/><path d="M315.83,270.64h3.54v3.17h-3.54Zm0,5.25h3.54v13.34h-3.54Z"/><path d="M326.16,277.71h.08a4.33,4.33,0,0,1,3.95-2.18c2.75,0,4.6,2.08,4.6,5v8.71h-3.54V281a2.21,2.21,0,0,0-2.31-2.44,2.78,2.78,0,0,0-2.7,3.06v7.57H322.7V275.89h3.46Z"/><path d="M337.36,282.57c0-4,2.6-7,6.66-7,3.46,0,5.59,2,6.06,4.89h-3.46a2.44,2.44,0,0,0-2.44-2.06c-2.14,0-3.23,1.64-3.23,4.21s1,4.22,3.17,4.22a2.49,2.49,0,0,0,2.68-2.27h3.41c-.24,2.84-2.45,5.1-6,5.1C340,289.62,337.36,286.55,337.36,282.57Z"/><path d="M352.78,270.64h3.54v3.17h-3.54Zm0,5.25h3.54v13.34h-3.54Z"/><path d="M359,282.57c0-4.16,2.36-7,5.69-7a4.23,4.23,0,0,1,3.77,2h.08v-6.86h3.53v18.59h-3.4v-1.74h-.05a4.46,4.46,0,0,1-4,2.13C361.28,289.62,359,286.89,359,282.57Zm9.62.08c0-2.55-.84-4.26-3.1-4.26-1.95,0-2.94,1.71-2.94,4.18s1,4.09,2.84,4.09C367.52,286.66,368.62,285.1,368.62,282.65Z"/><path d="M383.83,289.23v-1.56h-.08a4.29,4.29,0,0,1-3.83,1.92c-3,0-4.62-1.89-4.62-4.81v-8.89h3.51v8.3c0,1.56.7,2.41,2.21,2.41,1.66,0,2.68-1.24,2.68-3v-7.7h3.53v13.34Z"/><path d="M394,277.71h.07a4.34,4.34,0,0,1,4-2.18c2.75,0,4.6,2.08,4.6,5v8.71h-3.54V281a2.21,2.21,0,0,0-2.31-2.44,2.78,2.78,0,0,0-2.71,3.06v7.57h-3.53V275.89H394Z"/><path d="M404.83,275.89h1.85v-4.16h3.46v4.16h2.28v2.34h-2.28v7.07a1.17,1.17,0,0,0,1.32,1.33c.45,0,1,0,1,0v2.6s-.8.06-2.21.06c-1.71,0-3.61-.68-3.61-3.2v-7.83h-1.85Z"/><path d="M430.71,289.23v-1.56h-.08a4.29,4.29,0,0,1-3.83,1.92c-3,0-4.62-1.89-4.62-4.81v-8.89h3.51v8.3c0,1.56.7,2.41,2.21,2.41,1.66,0,2.68-1.24,2.68-3v-7.7h3.53v13.34Z"/><path d="M436.66,275.89h1.84v-4.16H442v4.16h2.29v2.34H442v7.07a1.17,1.17,0,0,0,1.33,1.33c.44,0,1,0,1,0v2.6s-.81.06-2.21.06c-1.72,0-3.62-.68-3.62-3.2v-7.83h-1.84Z"/><path d="M5.78,301.84H9.32v18.59H5.78Z"/><path d="M20.68,319h-.05c-.68,1-1.64,1.79-3.93,1.79-2.73,0-4.65-1.43-4.65-4.08,0-2.94,2.39-3.87,5.36-4.29,2.21-.31,3.22-.49,3.22-1.51s-.75-1.58-2.24-1.58c-1.66,0-2.47.59-2.57,1.87H12.67c.11-2.34,1.85-4.4,5.75-4.4s5.62,1.8,5.62,4.92v6.78c0,1,.15,1.62.46,1.85v.13H21.1A3.59,3.59,0,0,1,20.68,319Zm0-3.23v-2a9.83,9.83,0,0,1-2.47.78c-1.85.42-2.76.83-2.76,2.08s.83,1.69,2.08,1.69C19.59,318.27,20.71,317,20.71,315.72Z"/><path d="M26.66,313.77a6.79,6.79,0,0,1,7-7,7,7,0,0,1,0,14.09A6.79,6.79,0,0,1,26.66,313.77Zm10.35,0c0-2.6-1.22-4.36-3.38-4.36s-3.38,1.76-3.38,4.36,1.2,4.35,3.38,4.35S37,316.37,37,313.77Z"/><path d="M46.68,309.22h.08c.81-1.5,1.72-2.28,3.28-2.28a2.31,2.31,0,0,1,.83.1v3.09h-.08c-2.31-.23-4,1-4,3.8v6.5H43.27V307.09h3.41Z"/><path d="M52.4,313.75c0-3.95,2.68-7,6.58-7,4.29,0,6.58,3.27,6.58,8H55.89c.26,2.06,1.4,3.33,3.4,3.33a2.49,2.49,0,0,0,2.58-1.64h3.48c-.49,2.37-2.6,4.37-6,4.37C54.9,320.82,52.4,317.73,52.4,313.75Zm3.54-1.43h5.93A2.82,2.82,0,0,0,59,309.46C57.16,309.46,56.25,310.58,55.94,312.32Z"/><path d="M67.58,313.75c0-3.95,2.68-7,6.58-7,4.29,0,6.58,3.27,6.58,8H71.07c.26,2.06,1.4,3.33,3.41,3.33a2.49,2.49,0,0,0,2.57-1.64h3.48c-.49,2.37-2.6,4.37-6,4.37C70.08,320.82,67.58,317.73,67.58,313.75Zm3.54-1.43h5.93a2.81,2.81,0,0,0-2.84-2.86C72.34,309.46,71.43,310.58,71.12,312.32Z"/><path d="M82.38,307.09h1.84v-4.16h3.46v4.16H90v2.34H87.68v7.07A1.17,1.17,0,0,0,89,317.83c.44,0,1,0,1,0v2.6s-.81.06-2.21.06c-1.72,0-3.62-.68-3.62-3.2v-7.83H82.38Z"/><path d="M103.68,313.77c0-4.16,2.37-7,5.7-7a4.23,4.23,0,0,1,3.77,2h.07v-6.86h3.54v18.59h-3.41v-1.74h0a4.44,4.44,0,0,1-4,2.13C106,320.82,103.68,318.09,103.68,313.77Zm9.62.08c0-2.55-.83-4.26-3.09-4.26-1.95,0-2.94,1.71-2.94,4.18s1,4.09,2.83,4.09C112.21,317.86,113.3,316.3,113.3,313.85Z"/><path d="M119.44,313.77a7,7,0,1,1,7,7.05A6.78,6.78,0,0,1,119.44,313.77Zm10.35,0c0-2.6-1.23-4.36-3.38-4.36s-3.38,1.76-3.38,4.36,1.19,4.35,3.38,4.35S129.79,316.37,129.79,313.77Z"/><path d="M136.1,301.84h3.54v18.59H136.1Z"/><path d="M142.37,313.77a7,7,0,1,1,7,7.05A6.78,6.78,0,0,1,142.37,313.77Zm10.35,0c0-2.6-1.22-4.36-3.38-4.36s-3.38,1.76-3.38,4.36,1.19,4.35,3.38,4.35S152.72,316.37,152.72,313.77Z"/><path d="M162.39,309.22h.08c.8-1.5,1.71-2.28,3.27-2.28a2.33,2.33,0,0,1,.84.1v3.09h-.08c-2.32-.23-4,1-4,3.8v6.5H159V307.09h3.41Z"/><path d="M168.11,313.75c0-3.95,2.68-7,6.58-7,4.29,0,6.57,3.27,6.57,8h-9.67c.26,2.06,1.41,3.33,3.41,3.33a2.48,2.48,0,0,0,2.57-1.64h3.49c-.5,2.37-2.6,4.37-6,4.37C170.6,320.82,168.11,317.73,168.11,313.75Zm3.53-1.43h5.93a2.81,2.81,0,0,0-2.83-2.86C172.87,309.46,172,310.58,171.64,312.32Z"/><path d="M195.44,307.09h3.41v1.8h.08a4.34,4.34,0,0,1,3.87-2.16,4,4,0,0,1,3.69,2.34h0a4.67,4.67,0,0,1,4-2.34c2.81,0,4.39,1.82,4.39,4.73v9h-3.53v-8.37c0-1.51-.76-2.29-2.06-2.29-1.48,0-2.39,1.14-2.39,2.91v7.75h-3.54v-8.37c0-1.51-.75-2.29-2-2.29s-2.39,1.14-2.39,2.91v7.75h-3.54Z"/><path d="M226.15,319h-.05c-.68,1-1.64,1.79-3.93,1.79-2.73,0-4.65-1.43-4.65-4.08,0-2.94,2.39-3.87,5.35-4.29,2.21-.31,3.23-.49,3.23-1.51s-.76-1.58-2.24-1.58c-1.66,0-2.47.59-2.57,1.87h-3.15c.1-2.34,1.85-4.4,5.75-4.4s5.61,1.8,5.61,4.92v6.78c0,1,.16,1.62.47,1.85v.13h-3.41A3.77,3.77,0,0,1,226.15,319Zm0-3.23v-2a9.62,9.62,0,0,1-2.46.78c-1.85.42-2.76.83-2.76,2.08s.83,1.69,2.08,1.69C225.06,318.27,226.17,317,226.17,315.72Z"/><path d="M232.41,320.82h3.51c.29.83,1,1.48,2.68,1.48,2,0,3-1,3-2.78v-1.46h-.08a4.31,4.31,0,0,1-3.49,1.56,6,6,0,0,1-5.87-6.37c0-4,2.39-6.52,5.77-6.52a4.29,4.29,0,0,1,3.69,1.77h0v-1.41h3.41v12.33a5.16,5.16,0,0,1-1.59,4.05,7,7,0,0,1-4.81,1.51C235,325,232.78,323.42,232.41,320.82Zm9.34-7.64c0-1.95-1-3.62-3.17-3.62-1.8,0-3,1.41-3,3.64s1.19,3.59,3,3.59C240.84,316.79,241.75,315.15,241.75,313.18Z"/><path d="M251.84,308.91h.07a4.34,4.34,0,0,1,4-2.18c2.75,0,4.6,2.08,4.6,5v8.71h-3.54v-8.19a2.21,2.21,0,0,0-2.31-2.44,2.78,2.78,0,0,0-2.71,3.06v7.57h-3.53V307.09h3.46Z"/><path d="M271.67,319h-.05c-.67,1-1.64,1.79-3.92,1.79-2.74,0-4.66-1.43-4.66-4.08,0-2.94,2.39-3.87,5.36-4.29,2.21-.31,3.22-.49,3.22-1.51s-.75-1.58-2.24-1.58c-1.66,0-2.46.59-2.57,1.87h-3.14c.1-2.34,1.84-4.4,5.74-4.4s5.62,1.8,5.62,4.92v6.78c0,1,.15,1.62.47,1.85v.13h-3.41A3.59,3.59,0,0,1,271.67,319Zm0-3.23v-2a9.7,9.7,0,0,1-2.47.78c-1.85.42-2.76.83-2.76,2.08s.83,1.69,2.08,1.69C270.58,318.27,271.7,317,271.7,315.72Z"/><path d="M297.79,319h-.06c-.67,1-1.63,1.79-3.92,1.79-2.73,0-4.66-1.43-4.66-4.08,0-2.94,2.39-3.87,5.36-4.29,2.21-.31,3.22-.49,3.22-1.51s-.75-1.58-2.23-1.58c-1.67,0-2.47.59-2.58,1.87h-3.14c.1-2.34,1.84-4.4,5.74-4.4s5.62,1.8,5.62,4.92v6.78c0,1,.16,1.62.47,1.85v.13H298.2A3.46,3.46,0,0,1,297.79,319Zm0-3.23v-2a9.57,9.57,0,0,1-2.47.78c-1.84.42-2.76.83-2.76,2.08s.84,1.69,2.09,1.69C296.69,318.27,297.81,317,297.81,315.72Z"/><path d="M304.47,301.84H308v18.59h-3.53Z"/><path d="M311.38,301.84h3.54V305h-3.54Zm0,5.25h3.54v13.34h-3.54Z"/><path d="M327.27,318.92h0a4.05,4.05,0,0,1-3.64,1.9c-3.23,0-5.78-2.73-5.78-7.05,0-4.16,2.24-7,5.78-7a4.05,4.05,0,0,1,3.74,2h.08v-1.67h3.4V324.8h-3.53Zm.08-5c0-2.42-.86-4.34-3-4.34s-3,1.82-3,4.34,1.07,3.92,2.94,3.92S327.35,316.3,327.35,313.88Z"/><path d="M342.56,320.43v-1.56h-.08a4.28,4.28,0,0,1-3.82,1.92c-3,0-4.63-1.89-4.63-4.81v-8.89h3.51v8.3c0,1.56.7,2.41,2.21,2.41,1.66,0,2.68-1.24,2.68-3v-7.7H346v13.34Z"/><path d="M357.27,319h0c-.68,1-1.64,1.79-3.93,1.79-2.73,0-4.65-1.43-4.65-4.08,0-2.94,2.39-3.87,5.36-4.29,2.21-.31,3.22-.49,3.22-1.51s-.75-1.58-2.24-1.58c-1.66,0-2.47.59-2.57,1.87h-3.15c.11-2.34,1.85-4.4,5.75-4.4s5.62,1.8,5.62,4.92v6.78c0,1,.15,1.62.46,1.85v.13h-3.4A3.59,3.59,0,0,1,357.27,319Zm0-3.23v-2a9.83,9.83,0,0,1-2.47.78c-1.85.42-2.76.83-2.76,2.08s.83,1.69,2.08,1.69C356.18,318.27,357.3,317,357.3,315.72Z"/><path d="M363.9,307.09h3.41v1.8h.08a4.32,4.32,0,0,1,3.87-2.16,4,4,0,0,1,3.69,2.34H375a4.65,4.65,0,0,1,4-2.34c2.81,0,4.39,1.82,4.39,4.73v9h-3.53v-8.37c0-1.51-.76-2.29-2.06-2.29-1.48,0-2.39,1.14-2.39,2.91v7.75h-3.54v-8.37c0-1.51-.75-2.29-2.05-2.29s-2.39,1.14-2.39,2.91v7.75H363.9Z"/><path d="M397.48,313.75c0-3.95,2.67-7,6.57-7,4.29,0,6.58,3.27,6.58,8H401c.26,2.06,1.4,3.33,3.41,3.33a2.48,2.48,0,0,0,2.57-1.64h3.48c-.49,2.37-2.59,4.37-6,4.37C400,320.82,397.48,317.73,397.48,313.75Zm3.53-1.43h5.93a2.81,2.81,0,0,0-2.83-2.86C402.23,309.46,401.32,310.58,401,312.32Z"/><path d="M416.72,309.22h.07c.81-1.5,1.72-2.28,3.28-2.28a2.27,2.27,0,0,1,.83.1v3.09h-.08c-2.31-.23-4,1-4,3.8v6.5h-3.54V307.09h3.41Z"/><path d="M431.07,319H431c-.68,1-1.64,1.79-3.93,1.79-2.73,0-4.65-1.43-4.65-4.08,0-2.94,2.39-3.87,5.35-4.29,2.21-.31,3.23-.49,3.23-1.51s-.76-1.58-2.24-1.58c-1.66,0-2.47.59-2.57,1.87h-3.15c.1-2.34,1.85-4.4,5.75-4.4s5.61,1.8,5.61,4.92v6.78c0,1,.16,1.62.47,1.85v.13h-3.41A3.77,3.77,0,0,1,431.07,319Zm0-3.23v-2a9.57,9.57,0,0,1-2.47.78c-1.84.42-2.75.83-2.75,2.08s.83,1.69,2.08,1.69C430,318.27,431.09,317,431.09,315.72Z"/><path d="M436.66,307.09h1.84v-4.16H442v4.16h2.29v2.34H442v7.07a1.17,1.17,0,0,0,1.33,1.33c.44,0,1,0,1,0v2.6s-.81.06-2.21.06c-1.72,0-3.62-.68-3.62-3.2v-7.83h-1.84Z"/><path d="M4.64,338.29H8.23l2.13,6.92c.39,1.27.6,2.13.6,2.13h0s.18-.86.57-2.13l2.19-6.92H17.3l-4.65,13.34H9.27Z"/><path d="M18.5,345a6.78,6.78,0,0,1,7-7,7,7,0,0,1,0,14.09A6.78,6.78,0,0,1,18.5,345Zm10.35,0c0-2.6-1.23-4.36-3.38-4.36s-3.38,1.76-3.38,4.36,1.19,4.35,3.38,4.35S28.85,347.57,28.85,345Z"/><path d="M35.16,333H38.7v18.59H35.16Z"/><path d="M50.5,351.63v-1.56h-.07A4.29,4.29,0,0,1,46.6,352c-3,0-4.62-1.89-4.62-4.81v-8.89h3.51v8.3c0,1.56.7,2.41,2.21,2.41s2.67-1.24,2.67-3v-7.7h3.54v13.34Z"/><path d="M56.46,338.29H58.3v-4.16h3.46v4.16h2.29v2.34H61.76v7.07A1.17,1.17,0,0,0,63.09,349c.44,0,1,0,1,0v2.6s-.81.06-2.21.06c-1.72,0-3.62-.68-3.62-3.2v-7.83H56.46Z"/><path d="M66.91,338.29h3.41V340h.07a4.67,4.67,0,0,1,3.93-2c3.54,0,5.8,2.88,5.8,7,0,4.32-2.34,7-5.77,7a4.27,4.27,0,0,1-3.85-1.9h0V356H66.91Zm9.62,6.79c0-2.52-.88-4.29-3.07-4.29s-3.09,1.9-3.09,4.29,1.12,4,3.22,4C75.39,349.08,76.53,347.6,76.53,345.08Z"/><path d="M90.78,350.15h0c-.68,1-1.64,1.79-3.93,1.79-2.73,0-4.65-1.43-4.65-4.08,0-2.94,2.39-3.87,5.35-4.29,2.21-.31,3.23-.49,3.23-1.51s-.76-1.58-2.24-1.58c-1.66,0-2.47.59-2.57,1.87H82.77c.1-2.34,1.85-4.4,5.75-4.4s5.61,1.8,5.61,4.92v6.78c0,1,.16,1.62.47,1.85v.13H91.19A3.77,3.77,0,0,1,90.78,350.15Zm0-3.23v-2a9.57,9.57,0,0,1-2.47.78c-1.84.42-2.75.83-2.75,2.08s.83,1.69,2.08,1.69C89.69,349.47,90.8,348.22,90.8,346.92Z"/><path d="M96.37,338.29h1.84v-4.16h3.46v4.16H104v2.34h-2.29v7.07A1.17,1.17,0,0,0,103,349c.44,0,1,0,1,0v2.6s-.81.06-2.21.06c-1.72,0-3.62-.68-3.62-3.2v-7.83H96.37Z"/><path d="M106.87,347.86h3.8v3.77h-3.8Z"/><path d="M121.85,345.65V333h3.77v12.61c0,1.92,1,3.28,3.49,3.28s3.51-1.41,3.51-3.33V333h3.77v12.61c0,4-2.45,6.29-7.2,6.29S121.85,349.68,121.85,345.65Z"/><path d="M139.07,338.29h1.84v-4.16h3.46v4.16h2.29v2.34h-2.29v7.07A1.17,1.17,0,0,0,145.7,349c.44,0,1,0,1,0v2.6s-.81.06-2.21.06c-1.72,0-3.62-.68-3.62-3.2v-7.83h-1.84Z"/><path d="M156.42,338.29h3.5l1.62,6.19c.28,1.09.59,2.5.59,2.5h.06s.28-1.43.57-2.53l1.66-6.16h3l1.74,6.16c.29,1.12.62,2.53.62,2.53h.06s.31-1.41.6-2.5l1.69-6.19h3.43l-4,13.34h-3.22l-1.77-6.55c-.29-1.07-.6-2.32-.6-2.32h0l-.63,2.32-1.82,6.55h-3.2Z"/><path d="M177.86,333h3.54v3.17h-3.54Zm0,5.25h3.54v13.34h-3.54Z"/><path d="M183.9,347.31h3.27c.24,1.54,1.33,2.21,2.91,2.21s2.45-.59,2.45-1.53c0-1.27-1.69-1.4-3.51-1.77-2.39-.47-4.73-1.12-4.73-4s2.39-4.26,5.43-4.26c3.51,0,5.46,1.74,5.72,4.42h-3.2c-.15-1.43-1.06-2-2.57-2s-2.29.52-2.29,1.48c0,1.14,1.77,1.25,3.67,1.64,2.23.47,4.7,1.09,4.7,4.21,0,2.68-2.28,4.29-5.61,4.29C186.26,352,184.1,350.15,183.9,347.31Z"/><path d="M198.38,333h3.54v3.17h-3.54Zm0,5.25h3.54v13.34h-3.54Z"/><path d="M213.47,333h3.77v15.44H226v3.15h-12.5Z"/><path d="M227.84,345a7,7,0,1,1,7,7A6.79,6.79,0,0,1,227.84,345Zm10.35,0c0-2.6-1.22-4.36-3.38-4.36s-3.38,1.76-3.38,4.36,1.2,4.35,3.38,4.35S238.19,347.57,238.19,345Z"/><path d="M247.86,340.42h.08c.81-1.5,1.72-2.28,3.28-2.28a2.27,2.27,0,0,1,.83.1v3.09H252c-2.31-.23-4,1-4,3.8v6.5h-3.54V338.29h3.4Z"/><path d="M253.58,345c0-3.95,2.68-7,6.58-7,4.29,0,6.58,3.27,6.58,8h-9.67c.26,2.06,1.4,3.33,3.4,3.33a2.49,2.49,0,0,0,2.58-1.64h3.48c-.49,2.37-2.6,4.37-6,4.37C256.08,352,253.58,348.93,253.58,345Zm3.54-1.43h5.93a2.82,2.82,0,0,0-2.84-2.86C258.34,340.66,257.43,341.78,257.12,343.52Z"/><path d="M269.42,338.29h3.4v1.8h.08a4.35,4.35,0,0,1,3.88-2.16,4,4,0,0,1,3.69,2.34h0a4.64,4.64,0,0,1,4-2.34c2.81,0,4.4,1.82,4.4,4.73v9h-3.54v-8.37c0-1.51-.75-2.29-2.05-2.29-1.48,0-2.39,1.14-2.39,2.91v7.75H277.4v-8.37c0-1.51-.75-2.29-2-2.29s-2.4,1.14-2.4,2.91v7.75h-3.53Z"/><path d="M300.08,333h3.53v3.17h-3.53Zm0,5.25h3.53v13.34h-3.53Z"/><path d="M306.94,338.29h3.41V340h.08a4.65,4.65,0,0,1,3.92-2c3.54,0,5.8,2.88,5.8,7,0,4.32-2.34,7-5.77,7a4.3,4.3,0,0,1-3.85-1.9h0V356h-3.54Zm9.62,6.79c0-2.52-.88-4.29-3.06-4.29s-3.1,1.9-3.1,4.29,1.12,4,3.22,4C315.42,349.08,316.56,347.6,316.56,345.08Z"/><path d="M322,347.31h3.27c.24,1.54,1.33,2.21,2.91,2.21s2.45-.59,2.45-1.53c0-1.27-1.69-1.4-3.51-1.77-2.39-.47-4.73-1.12-4.73-4s2.39-4.26,5.43-4.26c3.51,0,5.46,1.74,5.72,4.42h-3.2c-.15-1.43-1.06-2-2.57-2s-2.29.52-2.29,1.48c0,1.14,1.77,1.25,3.67,1.64,2.23.47,4.7,1.09,4.7,4.21,0,2.68-2.28,4.29-5.61,4.29C324.36,352,322.2,350.15,322,347.31Z"/><path d="M344.9,351.63v-1.56h-.08A4.28,4.28,0,0,1,341,352c-3,0-4.63-1.89-4.63-4.81v-8.89h3.51v8.3c0,1.56.71,2.41,2.21,2.41,1.67,0,2.68-1.24,2.68-3v-7.7h3.54v13.34Z"/><path d="M351.64,338.29H355v1.8h.08a4.34,4.34,0,0,1,3.87-2.16,4,4,0,0,1,3.7,2.34h.05a4.64,4.64,0,0,1,4-2.34c2.81,0,4.4,1.82,4.4,4.73v9H367.6v-8.37c0-1.51-.75-2.29-2.05-2.29-1.49,0-2.4,1.14-2.4,2.91v7.75h-3.53v-8.37c0-1.51-.76-2.29-2.06-2.29s-2.39,1.14-2.39,2.91v7.75h-3.53Z"/><path d="M381.65,345c0-4.16,2.36-7,5.69-7a4.25,4.25,0,0,1,3.77,2h.08V333h3.54v18.59h-3.41v-1.74h-.05a4.45,4.45,0,0,1-4,2.13C383.94,352,381.65,349.29,381.65,345Zm9.62.08c0-2.55-.83-4.26-3.1-4.26-1.95,0-2.93,1.71-2.93,4.18s1,4.09,2.83,4.09C390.18,349.06,391.27,347.5,391.27,345.05Z"/><path d="M397.4,345a7,7,0,1,1,7,7A6.79,6.79,0,0,1,397.4,345Zm10.35,0c0-2.6-1.22-4.36-3.38-4.36S401,342.37,401,345s1.2,4.35,3.38,4.35S407.75,347.57,407.75,345Z"/><path d="M414.07,333h3.54v18.59h-3.54Z"/><path d="M420.33,345a7,7,0,1,1,7,7A6.79,6.79,0,0,1,420.33,345Zm10.35,0c0-2.6-1.22-4.36-3.38-4.36s-3.38,1.76-3.38,4.36,1.2,4.35,3.38,4.35S430.68,347.57,430.68,345Z"/><path d="M440.35,340.42h.08c.81-1.5,1.72-2.28,3.28-2.28a2.27,2.27,0,0,1,.83.1v3.09h-.08c-2.31-.23-4,1-4,3.8v6.5H437V338.29h3.4Z"/><path d="M4.9,378.51H8.18c.23,1.54,1.32,2.21,2.91,2.21s2.44-.59,2.44-1.53c0-1.27-1.69-1.4-3.51-1.77-2.39-.47-4.73-1.12-4.73-4s2.39-4.26,5.43-4.26c3.51,0,5.46,1.74,5.72,4.42H13.25c-.16-1.43-1.07-1.95-2.58-1.95s-2.29.52-2.29,1.48c0,1.14,1.77,1.25,3.67,1.64,2.24.47,4.71,1.09,4.71,4.21,0,2.68-2.29,4.29-5.62,4.29C7.27,383.22,5.11,381.35,4.9,378.51Z"/><path d="M19.38,364.24h3.54v3.17H19.38Zm0,5.25h3.54v13.34H19.38Z"/><path d="M25.47,369.49h1.84v-4.16h3.46v4.16h2.29v2.34H30.77v7.07a1.17,1.17,0,0,0,1.33,1.33c.44,0,1,0,1,0v2.6s-.81.06-2.21.06c-1.72,0-3.62-.68-3.62-3.2v-7.83H25.47Z"/><path d="M61.09,381.35H61c-.68,1-1.64,1.79-3.93,1.79-2.73,0-4.65-1.43-4.65-4.08,0-2.94,2.39-3.87,5.35-4.29,2.21-.31,3.23-.49,3.23-1.51s-.76-1.58-2.24-1.58c-1.66,0-2.47.59-2.57,1.87H53.08c.1-2.34,1.85-4.4,5.75-4.4s5.61,1.8,5.61,4.92v6.78c0,1,.16,1.62.47,1.85v.13H61.5A3.77,3.77,0,0,1,61.09,381.35Zm0-3.23v-2a9.83,9.83,0,0,1-2.47.78c-1.85.42-2.76.83-2.76,2.08s.83,1.69,2.08,1.69C60,380.67,61.12,379.42,61.12,378.12Z"/><path d="M67.72,369.49h3.4v1.8h.08a4.35,4.35,0,0,1,3.88-2.16,4,4,0,0,1,3.69,2.34h0a4.64,4.64,0,0,1,4-2.34c2.8,0,4.39,1.82,4.39,4.73v9H83.68v-8.37c0-1.51-.75-2.29-2.05-2.29-1.48,0-2.39,1.14-2.39,2.91v7.75H75.7v-8.37c0-1.51-.75-2.29-2-2.29s-2.4,1.14-2.4,2.91v7.75H67.72Z"/><path d="M89.79,376.15c0-3.95,2.68-7,6.58-7,4.29,0,6.58,3.27,6.58,8H93.28c.26,2.06,1.4,3.33,3.4,3.33a2.49,2.49,0,0,0,2.58-1.64h3.48c-.49,2.37-2.6,4.37-6,4.37C92.29,383.22,89.79,380.13,89.79,376.15Zm3.54-1.43h5.93a2.82,2.82,0,0,0-2.84-2.86C94.55,371.86,93.64,373,93.33,374.72Z"/><path d="M104.59,369.49h1.84v-4.16h3.46v4.16h2.29v2.34h-2.29v7.07a1.17,1.17,0,0,0,1.33,1.33c.44,0,1,0,1,0v2.6s-.81.06-2.21.06c-1.72,0-3.62-.68-3.62-3.2v-7.83h-1.84Z"/><path d="M115.12,385.87a3.22,3.22,0,0,0,1.87-3h-1.9v-3.77h3.8v3.56a4.42,4.42,0,0,1-3.77,4.53Z"/><path d="M138.55,376.17c0-4,2.6-7,6.65-7,3.46,0,5.59,2,6.06,4.89H147.8a2.44,2.44,0,0,0-2.44-2.06c-2.13,0-3.23,1.64-3.23,4.21s1,4.22,3.18,4.22a2.48,2.48,0,0,0,2.67-2.27h3.41c-.23,2.84-2.44,5.1-6,5.1C141.17,383.22,138.55,380.15,138.55,376.17Z"/><path d="M153.31,376.17a7,7,0,1,1,7,7.05A6.79,6.79,0,0,1,153.31,376.17Zm10.35,0c0-2.6-1.22-4.36-3.38-4.36s-3.38,1.76-3.38,4.36,1.2,4.35,3.38,4.35S163.66,378.77,163.66,376.17Z"/><path d="M173.38,371.31h.08a4.33,4.33,0,0,1,4-2.18c2.75,0,4.6,2.08,4.6,5v8.71h-3.54v-8.19a2.21,2.21,0,0,0-2.31-2.44,2.78,2.78,0,0,0-2.71,3.06v7.57h-3.53V369.49h3.45Z"/><path d="M184.41,378.51h3.27c.24,1.54,1.33,2.21,2.92,2.21s2.44-.59,2.44-1.53c0-1.27-1.69-1.4-3.51-1.77-2.39-.47-4.73-1.12-4.73-4s2.39-4.26,5.43-4.26c3.51,0,5.46,1.74,5.72,4.42h-3.2c-.15-1.43-1.06-1.95-2.57-1.95s-2.29.52-2.29,1.48c0,1.14,1.77,1.25,3.67,1.64,2.23.47,4.7,1.09,4.7,4.21,0,2.68-2.28,4.29-5.61,4.29C186.77,383.22,184.62,381.35,184.41,378.51Z"/><path d="M198.37,376.15c0-3.95,2.68-7,6.58-7,4.29,0,6.58,3.27,6.58,8h-9.68c.26,2.06,1.41,3.33,3.41,3.33a2.48,2.48,0,0,0,2.57-1.64h3.49c-.5,2.37-2.6,4.37-6,4.37C200.87,383.22,198.37,380.13,198.37,376.15Zm3.54-1.43h5.92a2.81,2.81,0,0,0-2.83-2.86C203.13,371.86,202.22,373,201.91,374.72Z"/><path d="M213.55,376.17c0-4,2.6-7,6.66-7,3.46,0,5.59,2,6.06,4.89h-3.46a2.44,2.44,0,0,0-2.44-2.06c-2.14,0-3.23,1.64-3.23,4.21s1,4.22,3.17,4.22a2.49,2.49,0,0,0,2.68-2.27h3.41c-.24,2.84-2.45,5.1-6,5.1C216.18,383.22,213.55,380.15,213.55,376.17Z"/><path d="M228.19,369.49H230v-4.16h3.45v4.16h2.29v2.34h-2.29v7.07a1.17,1.17,0,0,0,1.33,1.33c.44,0,1,0,1,0v2.6s-.81.06-2.21.06c-1.72,0-3.61-.68-3.61-3.2v-7.83h-1.85Z"/><path d="M237.86,376.15c0-3.95,2.68-7,6.58-7,4.29,0,6.58,3.27,6.58,8h-9.67c.26,2.06,1.4,3.33,3.4,3.33a2.49,2.49,0,0,0,2.58-1.64h3.48c-.49,2.37-2.6,4.37-6,4.37C240.36,383.22,237.86,380.13,237.86,376.15Zm3.54-1.43h5.93a2.82,2.82,0,0,0-2.84-2.86C242.62,371.86,241.71,373,241.4,374.72Z"/><path d="M252.66,369.49h1.84v-4.16H258v4.16h2.29v2.34H258v7.07a1.17,1.17,0,0,0,1.33,1.33c.44,0,1,0,1,0v2.6s-.81.06-2.21.06c-1.72,0-3.62-.68-3.62-3.2v-7.83h-1.84Z"/><path d="M271.53,382.83v-1.56h-.08a4.28,4.28,0,0,1-3.82,1.92c-3,0-4.63-1.89-4.63-4.81v-8.89h3.51v8.3c0,1.56.71,2.41,2.21,2.41,1.67,0,2.68-1.24,2.68-3v-7.7h3.54v13.34Z"/><path d="M277.62,376.15c0-3.95,2.67-7,6.57-7,4.29,0,6.58,3.27,6.58,8H281.1c.26,2.06,1.4,3.33,3.41,3.33a2.49,2.49,0,0,0,2.57-1.64h3.48c-.49,2.37-2.6,4.37-6,4.37C280.11,383.22,277.62,380.13,277.62,376.15Zm3.53-1.43h5.93a2.81,2.81,0,0,0-2.83-2.86C282.37,371.86,281.46,373,281.15,374.72Z"/><path d="M296.86,371.62h.07c.81-1.5,1.72-2.28,3.28-2.28a2.27,2.27,0,0,1,.83.1v3.09H301c-2.31-.23-4,1-4,3.8v6.5h-3.54V369.49h3.41Z"/><path d="M328.79,381.35h-.05c-.68,1-1.64,1.79-3.93,1.79-2.73,0-4.65-1.43-4.65-4.08,0-2.94,2.39-3.87,5.35-4.29,2.21-.31,3.23-.49,3.23-1.51s-.76-1.58-2.24-1.58c-1.67,0-2.47.59-2.58,1.87h-3.14c.1-2.34,1.84-4.4,5.75-4.4s5.61,1.8,5.61,4.92v6.78c0,1,.16,1.62.47,1.85v.13H329.2A3.77,3.77,0,0,1,328.79,381.35Zm0-3.23v-2a9.57,9.57,0,0,1-2.47.78c-1.84.42-2.75.83-2.75,2.08s.83,1.69,2.08,1.69C327.7,380.67,328.81,379.42,328.81,378.12Z"/><path d="M334.77,376.17c0-4.16,2.36-7,5.69-7a4.25,4.25,0,0,1,3.77,2h.08v-6.86h3.53v18.59h-3.4v-1.74h-.05a4.45,4.45,0,0,1-4,2.13C337.05,383.22,334.77,380.49,334.77,376.17Zm9.62.08c0-2.55-.84-4.26-3.1-4.26-2,0-2.94,1.71-2.94,4.18s1,4.09,2.84,4.09C343.29,380.26,344.39,378.7,344.39,376.25Z"/><path d="M351.17,364.24h3.54v3.17h-3.54Zm0,5.25h3.54v13.34h-3.54Z"/><path d="M358,369.49h3.4v1.67h.08a4.67,4.67,0,0,1,3.93-2c3.53,0,5.8,2.88,5.8,7,0,4.32-2.34,7.05-5.78,7.05a4.3,4.3,0,0,1-3.85-1.9h-.05v5.88H358Zm9.62,6.79c0-2.52-.89-4.29-3.07-4.29s-3.09,1.9-3.09,4.29,1.11,4,3.22,4C366.51,380.28,367.66,378.8,367.66,376.28Z"/><path d="M373.92,364.24h3.54v3.17h-3.54Zm0,5.25h3.54v13.34h-3.54Z"/><path d="M380,378.51h3.28c.23,1.54,1.33,2.21,2.91,2.21s2.45-.59,2.45-1.53c0-1.27-1.69-1.4-3.51-1.77-2.4-.47-4.74-1.12-4.74-4s2.4-4.26,5.44-4.26c3.51,0,5.46,1.74,5.72,4.42h-3.2c-.16-1.43-1.06-1.95-2.57-1.95s-2.29.52-2.29,1.48c0,1.14,1.77,1.25,3.66,1.64,2.24.47,4.71,1.09,4.71,4.21,0,2.68-2.29,4.29-5.62,4.29C382.32,383.22,380.16,381.35,380,378.51Z"/><path d="M393.92,376.17c0-4,2.6-7,6.65-7,3.46,0,5.59,2,6.06,4.89h-3.46a2.44,2.44,0,0,0-2.44-2.06c-2.13,0-3.23,1.64-3.23,4.21s1,4.22,3.18,4.22a2.48,2.48,0,0,0,2.67-2.27h3.41c-.23,2.84-2.44,5.1-6,5.1C396.54,383.22,393.92,380.15,393.92,376.17Z"/><path d="M409.33,364.24h3.54v3.17h-3.54Zm0,5.25h3.54v13.34h-3.54Z"/><path d="M419.66,371.31h.07a4.34,4.34,0,0,1,4-2.18c2.75,0,4.6,2.08,4.6,5v8.71h-3.54v-8.19a2.21,2.21,0,0,0-2.31-2.44,2.78,2.78,0,0,0-2.71,3.06v7.57H416.2V369.49h3.46Z"/><path d="M431.15,383.22h3.51c.28.83,1,1.48,2.67,1.48,2,0,3-1,3-2.78v-1.46h-.08a4.28,4.28,0,0,1-3.48,1.56,6,6,0,0,1-5.88-6.37c0-4,2.39-6.52,5.77-6.52a4.31,4.31,0,0,1,3.7,1.77h.05v-1.41h3.4v12.33a5.16,5.16,0,0,1-1.58,4.05,7,7,0,0,1-4.81,1.51C433.75,387.38,431.51,385.82,431.15,383.22Zm9.33-7.64c0-1.95-1-3.62-3.17-3.62-1.79,0-3,1.41-3,3.64s1.2,3.59,3,3.59C439.57,379.19,440.48,377.55,440.48,375.58Z"/><path d="M5.08,407.35c0-4,2.68-7,6.58-7,4.29,0,6.58,3.27,6.58,8H8.57c.26,2.06,1.4,3.33,3.4,3.33a2.49,2.49,0,0,0,2.58-1.64H18c-.49,2.37-2.6,4.37-6,4.37C7.58,414.42,5.08,411.33,5.08,407.35Zm3.54-1.43h5.93a2.82,2.82,0,0,0-2.84-2.86C9.84,403.06,8.93,404.17,8.62,405.92Z"/><path d="M21,395.44H24.5V414H21Z"/><path d="M27.88,395.44h3.54v3.17H27.88Zm0,5.25h3.54V414H27.88Z"/><path d="M34,400.69h1.84v-4.16h3.46v4.16h2.29V403H39.27v7.07a1.17,1.17,0,0,0,1.33,1.33c.44,0,1,0,1,0V414s-.81.06-2.21.06c-1.72,0-3.62-.68-3.62-3.2V403H34Z"/><path d="M44.5,417.07a3.22,3.22,0,0,0,1.87-3h-1.9v-3.77h3.8v3.56a4.42,4.42,0,0,1-3.77,4.53Z"/><path d="M61.79,409.71h3.28c.23,1.54,1.33,2.21,2.91,2.21s2.45-.59,2.45-1.53c0-1.27-1.69-1.4-3.51-1.77-2.4-.47-4.74-1.12-4.74-4s2.4-4.26,5.44-4.26c3.51,0,5.46,1.74,5.72,4.42h-3.2c-.16-1.43-1.06-1.95-2.57-1.95s-2.29.52-2.29,1.48c0,1.14,1.77,1.25,3.66,1.64,2.24.46,4.71,1.09,4.71,4.21,0,2.68-2.29,4.29-5.62,4.29C64.16,414.42,62,412.55,61.79,409.71Z"/><path d="M75.76,407.35c0-4,2.67-7,6.57-7,4.29,0,6.58,3.27,6.58,8H79.24c.26,2.06,1.4,3.33,3.41,3.33a2.49,2.49,0,0,0,2.57-1.64H88.7c-.49,2.37-2.6,4.37-6,4.37C78.25,414.42,75.76,411.33,75.76,407.35Zm3.53-1.43h5.93a2.81,2.81,0,0,0-2.83-2.86C80.51,403.06,79.6,404.17,79.29,405.92Z"/><path d="M90.94,407.37c0-4.16,2.37-7,5.69-7a4.2,4.2,0,0,1,3.77,2h.08v-6.86H104V414h-3.41v-1.74h0a4.45,4.45,0,0,1-4,2.13C93.23,414.42,90.94,411.69,90.94,407.37Zm9.62.08c0-2.55-.83-4.26-3.09-4.26-2,0-2.94,1.71-2.94,4.18s1,4.09,2.83,4.09C99.47,411.46,100.56,409.9,100.56,407.45Z"/><path d="M117.93,407.37c0-4.16,2.37-7,5.7-7a4.23,4.23,0,0,1,3.77,2h.08v-6.86H131V414h-3.4v-1.74h-.06a4.43,4.43,0,0,1-4,2.13C120.22,414.42,117.93,411.69,117.93,407.37Zm9.62.08c0-2.55-.83-4.26-3.09-4.26-1.95,0-2.94,1.71-2.94,4.18s1,4.09,2.84,4.09C126.46,411.46,127.55,409.9,127.55,407.45Z"/><path d="M134.34,395.44h3.54v3.17h-3.54Zm0,5.25h3.54V414h-3.54Z"/><path d="M149.19,412.55h-.06c-.67,1-1.63,1.79-3.92,1.79-2.73,0-4.66-1.43-4.66-4.08,0-2.94,2.4-3.88,5.36-4.29,2.21-.31,3.22-.5,3.22-1.51s-.75-1.58-2.23-1.58c-1.67,0-2.47.59-2.57,1.87h-3.15c.1-2.34,1.84-4.4,5.74-4.4s5.62,1.8,5.62,4.92v6.78c0,1,.16,1.62.47,1.85V414H149.6A3.46,3.46,0,0,1,149.19,412.55Zm0-3.23v-2a9.57,9.57,0,0,1-2.47.78c-1.84.42-2.75.83-2.75,2.08s.83,1.69,2.08,1.69C148.09,411.87,149.21,410.62,149.21,409.32Z"/><path d="M155.82,400.69h3.4v1.79h.08a4.36,4.36,0,0,1,3.87-2.15,4,4,0,0,1,3.7,2.34h0a4.64,4.64,0,0,1,4-2.34c2.81,0,4.4,1.82,4.4,4.73v9h-3.54v-8.37c0-1.51-.75-2.29-2.05-2.29-1.49,0-2.4,1.14-2.4,2.91V414H163.8v-8.37c0-1.51-.76-2.29-2.06-2.29s-2.39,1.14-2.39,2.91V414h-3.53Z"/><path d="M193.24,402.51h.08a4.32,4.32,0,0,1,4-2.18c2.75,0,4.6,2.08,4.6,5V414h-3.54v-8.19a2.22,2.22,0,0,0-2.31-2.45,2.79,2.79,0,0,0-2.7,3.07V414h-3.54V400.69h3.46Z"/><path d="M204.44,407.37a7,7,0,1,1,7,7.05A6.78,6.78,0,0,1,204.44,407.37Zm10.35,0c0-2.6-1.22-4.37-3.38-4.37s-3.38,1.77-3.38,4.37,1.2,4.34,3.38,4.34S214.79,410,214.79,407.37Z"/><path d="M224.51,402.51h.08a4.33,4.33,0,0,1,3.95-2.18c2.76,0,4.61,2.08,4.61,5V414h-3.54v-8.19a2.22,2.22,0,0,0-2.31-2.45,2.79,2.79,0,0,0-2.71,3.07V414h-3.53V400.69h3.45Z"/><path d="M244.79,414v-1.56h-.07a4.29,4.29,0,0,1-3.83,1.92c-3,0-4.62-1.89-4.62-4.81v-8.89h3.51V409c0,1.55.7,2.41,2.21,2.41s2.67-1.24,2.67-3v-7.7h3.54V414Z"/><path d="M251.53,400.69h3.4v1.79H255a4.36,4.36,0,0,1,3.88-2.15,4,4,0,0,1,3.69,2.34h.05a4.64,4.64,0,0,1,4-2.34c2.81,0,4.4,1.82,4.4,4.73v9h-3.54v-8.37c0-1.51-.75-2.29-2.05-2.29-1.48,0-2.39,1.14-2.39,2.91V414h-3.54v-8.37c0-1.51-.75-2.29-2.05-2.29s-2.4,1.14-2.4,2.91V414h-3.53Z"/><path d="M274.25,400.69h3.41v1.79h.08a4.33,4.33,0,0,1,3.87-2.15,4,4,0,0,1,3.69,2.34h.05a4.65,4.65,0,0,1,4-2.34c2.81,0,4.39,1.82,4.39,4.73v9h-3.53v-8.37c0-1.51-.76-2.29-2.06-2.29-1.48,0-2.39,1.14-2.39,2.91V414h-3.54v-8.37c0-1.51-.75-2.29-2.05-2.29s-2.39,1.14-2.39,2.91V414h-3.54Z"/><path d="M297,415.62h1.25c1.4,0,2-.73,2-1.83a11.51,11.51,0,0,0-1-3.61l-3.59-9.49h3.72l2,6c.41,1.22.86,2.91.86,2.91h.05s.36-1.69.78-2.91l1.87-6h3.56l-4.65,13.68c-1,3-2,4-4.71,4H297Z"/><path d="M325.38,402.51h.07a4.33,4.33,0,0,1,4-2.18c2.75,0,4.6,2.08,4.6,5V414h-3.54v-8.19a2.22,2.22,0,0,0-2.31-2.45,2.79,2.79,0,0,0-2.71,3.07V414h-3.53V400.69h3.46Z"/><path d="M337.23,395.44h3.54v3.17h-3.54Zm0,5.25h3.54V414h-3.54Z"/><path d="M347.55,412.37h-.05V414h-3.41V395.44h3.54v6.86h.08a4.16,4.16,0,0,1,3.72-2c3.35,0,5.74,2.88,5.74,7,0,4.32-2.29,7.05-5.64,7.05A4.46,4.46,0,0,1,347.55,412.37Zm6-5c0-2.47-1-4.18-3-4.18-2.24,0-3.07,1.79-3.07,4.26s1.22,4,3.2,4C352.57,411.46,353.58,410,353.58,407.37Z"/><path d="M363.39,402.43h.07a4.27,4.27,0,0,1,3.88-2.1c2.75,0,4.6,2.08,4.6,5V414H368.4v-8.19a2.22,2.22,0,0,0-2.31-2.45,2.79,2.79,0,0,0-2.7,3.07V414h-3.54V395.44h3.54Z"/><path d="M385.75,407.35c0-4,2.68-7,6.58-7,4.29,0,6.58,3.27,6.58,8h-9.67c.26,2.06,1.4,3.33,3.4,3.33a2.49,2.49,0,0,0,2.58-1.64h3.48c-.49,2.37-2.6,4.37-6,4.37C388.25,414.42,385.75,411.33,385.75,407.35Zm3.54-1.43h5.93a2.82,2.82,0,0,0-2.84-2.86C390.51,403.06,389.6,404.17,389.29,405.92Z"/><path d="M410,414v-1.56h-.08a4.28,4.28,0,0,1-3.82,1.92c-3,0-4.63-1.89-4.63-4.81v-8.89H405V409c0,1.55.7,2.41,2.21,2.41,1.67,0,2.68-1.24,2.68-3v-7.7h3.54V414Z"/><path d="M416.75,395.44h3.53v3.17h-3.53Zm0,5.25h3.53V414h-3.53Z"/><path d="M422.78,409.71h3.27c.24,1.54,1.33,2.21,2.91,2.21s2.45-.59,2.45-1.53c0-1.27-1.69-1.4-3.51-1.77-2.39-.47-4.73-1.12-4.73-4s2.39-4.26,5.43-4.26c3.51,0,5.46,1.74,5.72,4.42h-3.2c-.15-1.43-1.06-1.95-2.57-1.95s-2.29.52-2.29,1.48c0,1.14,1.77,1.25,3.67,1.64,2.23.46,4.7,1.09,4.7,4.21,0,2.68-2.29,4.29-5.61,4.29C425.14,414.42,423,412.55,422.78,409.71Z"/><path d="M437,406.07h7v3.05h-7Z"/><path d="M5.73,431.89H9.14v1.8h.08a4.32,4.32,0,0,1,3.87-2.16,4,4,0,0,1,3.69,2.34h0a4.65,4.65,0,0,1,4-2.34c2.81,0,4.39,1.82,4.39,4.73v9H21.7v-8.37c0-1.51-.76-2.29-2.06-2.29-1.48,0-2.39,1.14-2.39,2.91v7.75H13.71v-8.37c0-1.51-.75-2.29-2.05-2.29s-2.39,1.14-2.39,2.91v7.75H5.73Z"/><path d="M27.81,438.57a6.77,6.77,0,0,1,7-7,7,7,0,0,1,0,14.09A6.78,6.78,0,0,1,27.81,438.57Zm10.34,0c0-2.6-1.22-4.36-3.38-4.36s-3.38,1.76-3.38,4.36,1.2,4.35,3.38,4.35S38.15,441.17,38.15,438.57Z"/><path d="M43.77,438.57c0-4.16,2.37-7,5.69-7a4.2,4.2,0,0,1,3.77,2h.08v-6.86h3.54v18.59H53.44v-1.74h0a4.45,4.45,0,0,1-4,2.13C46.06,445.62,43.77,442.89,43.77,438.57Zm9.62.08c0-2.55-.83-4.26-3.09-4.26-1.95,0-2.94,1.71-2.94,4.18s1,4.09,2.83,4.09C52.3,442.66,53.39,441.1,53.39,438.65Z"/><path d="M81,431.89h1.85v-4.16h3.46v4.16h2.29v2.34H86.27v7.07a1.17,1.17,0,0,0,1.32,1.33c.45,0,1,0,1,0v2.6s-.8.06-2.21.06c-1.71,0-3.61-.68-3.61-3.2v-7.83H81Z"/><path d="M91.42,426.64H95v3.17H91.42Zm0,5.25H95v13.34H91.42Z"/><path d="M101.74,433.71h.08a4.33,4.33,0,0,1,4-2.18c2.76,0,4.6,2.08,4.6,5v8.71h-3.54V437a2.22,2.22,0,0,0-2.31-2.45,2.79,2.79,0,0,0-2.7,3.07v7.57H98.28V431.89h3.46Z"/><path d="M112.94,438.57c0-4,2.6-7,6.66-7,3.46,0,5.59,2,6.06,4.89H122.2a2.44,2.44,0,0,0-2.44-2.06c-2.14,0-3.23,1.64-3.23,4.21s1,4.22,3.17,4.22a2.49,2.49,0,0,0,2.68-2.27h3.41c-.24,2.84-2.45,5.1-6,5.1C115.57,445.62,112.94,442.55,112.94,438.57Z"/><path d="M128.36,426.64h3.54v3.17h-3.54Zm0,5.25h3.54v13.34h-3.54Z"/><path d="M134.58,438.57c0-4.16,2.36-7,5.69-7a4.23,4.23,0,0,1,3.77,2h.08v-6.86h3.53v18.59h-3.4v-1.74h-.05a4.45,4.45,0,0,1-4,2.13C136.86,445.62,134.58,442.89,134.58,438.57Zm9.62.08c0-2.55-.84-4.26-3.1-4.26-1.95,0-2.94,1.71-2.94,4.18s1,4.09,2.84,4.09C143.1,442.66,144.2,441.1,144.2,438.65Z"/><path d="M159.41,445.23v-1.56h-.08a4.28,4.28,0,0,1-3.82,1.92c-3,0-4.63-1.89-4.63-4.81v-8.89h3.51v8.3c0,1.56.7,2.41,2.21,2.41,1.66,0,2.68-1.24,2.68-3v-7.7h3.53v13.34Z"/><path d="M169.6,433.71h.08a4.33,4.33,0,0,1,3.95-2.18c2.75,0,4.6,2.08,4.6,5v8.71h-3.54V437a2.22,2.22,0,0,0-2.31-2.45,2.79,2.79,0,0,0-2.7,3.07v7.57h-3.54V431.89h3.46Z"/><path d="M180.41,431.89h1.85v-4.16h3.46v4.16H188v2.34h-2.29v7.07a1.17,1.17,0,0,0,1.32,1.33c.45,0,1,0,1,0v2.6s-.8.06-2.21.06c-1.71,0-3.61-.68-3.61-3.2v-7.83h-1.85Z"/><path d="M220.86,445.23v-1.56h-.08a4.28,4.28,0,0,1-3.82,1.92c-3,0-4.63-1.89-4.63-4.81v-8.89h3.51v8.3c0,1.56.7,2.41,2.21,2.41,1.67,0,2.68-1.24,2.68-3v-7.7h3.54v13.34Z"/><path d="M226.81,431.89h1.85v-4.16h3.46v4.16h2.29v2.34h-2.29v7.07a1.17,1.17,0,0,0,1.32,1.33c.45,0,1,0,1,0v2.6s-.8.06-2.21.06c-1.71,0-3.61-.68-3.61-3.2v-7.83h-1.85Z"/><path d="M258.89,426.64h3.53v18.59h-3.53Z"/><path d="M273.79,443.75h-.06c-.67,1-1.63,1.79-3.92,1.79-2.73,0-4.66-1.43-4.66-4.08,0-2.94,2.39-3.88,5.36-4.29,2.21-.31,3.22-.5,3.22-1.51s-.75-1.58-2.23-1.58c-1.67,0-2.47.59-2.58,1.87h-3.14c.1-2.34,1.84-4.4,5.74-4.4s5.62,1.8,5.62,4.92v6.78c0,1,.16,1.62.47,1.85v.13H274.2A3.46,3.46,0,0,1,273.79,443.75Zm0-3.23v-2a10,10,0,0,1-2.47.78c-1.84.42-2.76.83-2.76,2.08s.84,1.69,2.09,1.69C272.69,443.07,273.81,441.82,273.81,440.52Z"/><path d="M279.76,438.57a7,7,0,1,1,7,7.05A6.78,6.78,0,0,1,279.76,438.57Zm10.35,0c0-2.6-1.22-4.36-3.38-4.36s-3.38,1.76-3.38,4.36,1.2,4.35,3.38,4.35S290.11,441.17,290.11,438.57Z"/><path d="M299.78,434h.08c.81-1.51,1.72-2.28,3.28-2.28a2.27,2.27,0,0,1,.83.1v3.09h-.08c-2.31-.23-4,1-4,3.8v6.5h-3.54V431.89h3.4Z"/><path d="M305.5,438.55c0-4,2.68-7,6.58-7,4.29,0,6.58,3.27,6.58,8H309c.26,2.06,1.4,3.33,3.41,3.33a2.49,2.49,0,0,0,2.57-1.64h3.48c-.49,2.37-2.6,4.37-6,4.37C308,445.62,305.5,442.53,305.5,438.55Zm3.54-1.43H315a2.81,2.81,0,0,0-2.84-2.86C310.26,434.26,309.35,435.38,309,437.12Z"/><path d="M320.69,438.55c0-4,2.68-7,6.58-7,4.29,0,6.57,3.27,6.57,8h-9.67c.26,2.06,1.41,3.33,3.41,3.33a2.48,2.48,0,0,0,2.57-1.64h3.49c-.5,2.37-2.6,4.37-6,4.37C323.18,445.62,320.69,442.53,320.69,438.55Zm3.53-1.43h5.93a2.81,2.81,0,0,0-2.83-2.86C325.45,434.26,324.54,435.38,324.22,437.12Z"/><path d="M335.48,431.89h1.85v-4.16h3.46v4.16h2.28v2.34h-2.28v7.07a1.17,1.17,0,0,0,1.32,1.33c.44,0,1,0,1,0v2.6s-.8.06-2.21.06c-1.71,0-3.61-.68-3.61-3.2v-7.83h-1.85Z"/><path d="M366.85,438.57c0-4.16,2.37-7,5.7-7a4.23,4.23,0,0,1,3.77,2h.08v-6.86h3.53v18.59h-3.4v-1.74h-.06a4.43,4.43,0,0,1-4,2.13C369.14,445.62,366.85,442.89,366.85,438.57Zm9.62.08c0-2.55-.83-4.26-3.09-4.26-1.95,0-2.94,1.71-2.94,4.18s1,4.09,2.84,4.09C375.38,442.66,376.47,441.1,376.47,438.65Z"/><path d="M382.61,438.57a7,7,0,1,1,7,7.05A6.77,6.77,0,0,1,382.61,438.57Zm10.35,0c0-2.6-1.22-4.36-3.38-4.36s-3.38,1.76-3.38,4.36,1.19,4.35,3.38,4.35S393,441.17,393,438.57Z"/><path d="M399.27,426.64h3.54v18.59h-3.54Z"/><path d="M405.54,438.57a7,7,0,1,1,7,7.05A6.77,6.77,0,0,1,405.54,438.57Zm10.35,0c0-2.6-1.22-4.36-3.38-4.36s-3.38,1.76-3.38,4.36,1.19,4.35,3.38,4.35S415.89,441.17,415.89,438.57Z"/><path d="M425.56,434h.08c.8-1.51,1.71-2.28,3.27-2.28a2.33,2.33,0,0,1,.84.1v3.09h-.08c-2.32-.23-4,1-4,3.8v6.5h-3.54V431.89h3.41Z"/><path d="M431.28,438.55c0-4,2.68-7,6.58-7,4.29,0,6.58,3.27,6.58,8h-9.68c.26,2.06,1.41,3.33,3.41,3.33a2.48,2.48,0,0,0,2.57-1.64h3.49c-.5,2.37-2.6,4.37-6,4.37C433.78,445.62,431.28,442.53,431.28,438.55Zm3.54-1.43h5.92a2.81,2.81,0,0,0-2.83-2.86C436,434.26,435.13,435.38,434.82,437.12Z"/><path d="M5.73,463.09H9.14v1.79h.08a4.33,4.33,0,0,1,3.87-2.15,4,4,0,0,1,3.69,2.34h0a4.65,4.65,0,0,1,4-2.34c2.81,0,4.39,1.82,4.39,4.73v9H21.7v-8.37c0-1.51-.76-2.29-2.06-2.29-1.48,0-2.39,1.14-2.39,2.91v7.75H13.71v-8.37c0-1.51-.75-2.29-2.05-2.29s-2.39,1.14-2.39,2.91v7.75H5.73Z"/><path d="M36.44,475h0c-.68,1-1.64,1.79-3.93,1.79-2.73,0-4.65-1.43-4.65-4.08,0-2.94,2.39-3.87,5.35-4.29,2.21-.31,3.23-.49,3.23-1.51s-.76-1.58-2.24-1.58c-1.66,0-2.47.59-2.57,1.87H28.43c.1-2.34,1.85-4.4,5.75-4.4s5.61,1.8,5.61,4.92v6.78c0,1,.16,1.62.47,1.85v.13H36.85A3.77,3.77,0,0,1,36.44,475Zm0-3.23v-2a9.57,9.57,0,0,1-2.47.78c-1.84.42-2.75.83-2.75,2.08s.83,1.69,2.08,1.69C35.35,474.27,36.46,473,36.46,471.72Z"/><path d="M42.7,476.82h3.51c.29.83,1,1.48,2.68,1.48,2,0,3-1,3-2.78v-1.46h-.08a4.31,4.31,0,0,1-3.49,1.56,6,6,0,0,1-5.87-6.37c0-4,2.39-6.52,5.77-6.52a4.29,4.29,0,0,1,3.69,1.77h0v-1.41h3.41v12.33a5.16,5.16,0,0,1-1.59,4.05A7,7,0,0,1,48.94,481C45.3,481,43.07,479.42,42.7,476.82ZM52,469.18c0-1.95-1-3.62-3.17-3.62-1.8,0-3,1.4-3,3.64s1.19,3.59,3,3.59C51.13,472.79,52,471.15,52,469.18Z"/><path d="M62.12,464.91h.08a4.33,4.33,0,0,1,4-2.18c2.75,0,4.6,2.08,4.6,5v8.71H67.22v-8.19a2.22,2.22,0,0,0-2.31-2.45,2.79,2.79,0,0,0-2.71,3.07v7.57H58.67V463.09h3.45Z"/><path d="M82,475h0c-.68,1-1.64,1.79-3.93,1.79-2.73,0-4.65-1.43-4.65-4.08,0-2.94,2.39-3.87,5.36-4.29,2.21-.31,3.22-.49,3.22-1.51s-.75-1.58-2.24-1.58c-1.66,0-2.47.59-2.57,1.87H74c.11-2.34,1.85-4.4,5.75-4.4s5.62,1.8,5.62,4.92v6.78c0,1,.15,1.62.46,1.85v.13h-3.4A3.59,3.59,0,0,1,82,475Zm0-3.23v-2a9.83,9.83,0,0,1-2.47.78c-1.85.42-2.76.83-2.76,2.08s.83,1.69,2.08,1.69C80.87,474.27,82,473,82,471.72Z"/><path d="M102,475h0c-.68,1-1.64,1.79-3.93,1.79-2.73,0-4.65-1.43-4.65-4.08,0-2.94,2.39-3.87,5.36-4.29,2.21-.31,3.22-.49,3.22-1.51s-.75-1.58-2.24-1.58c-1.66,0-2.47.59-2.57,1.87H94c.11-2.34,1.85-4.4,5.75-4.4s5.62,1.8,5.62,4.92v6.78c0,1,.15,1.62.46,1.85v.13h-3.4A3.59,3.59,0,0,1,102,475Zm0-3.23v-2a9.83,9.83,0,0,1-2.47.78c-1.85.42-2.76.83-2.76,2.08s.83,1.69,2.08,1.69C100.89,474.27,102,473,102,471.72Z"/><path d="M108.66,457.84h3.54v18.59h-3.54Z"/><path d="M115.58,457.84h3.53V461h-3.53Zm0,5.25h3.53v13.34h-3.53Z"/><path d="M131.46,474.92h-.05a4,4,0,0,1-3.64,1.9c-3.22,0-5.77-2.73-5.77-7.05,0-4.16,2.24-7,5.77-7a4.08,4.08,0,0,1,3.75,2h.07v-1.66H135V480.8h-3.54Zm.08-5c0-2.42-.85-4.34-3-4.34s-3,1.82-3,4.34,1.07,3.92,2.94,3.92S131.54,472.3,131.54,469.88Z"/><path d="M146.75,476.43v-1.56h-.08a4.28,4.28,0,0,1-3.82,1.92c-3,0-4.63-1.89-4.63-4.81v-8.89h3.51v8.3c0,1.56.71,2.41,2.21,2.41,1.67,0,2.68-1.24,2.68-3v-7.7h3.54v13.34Z"/><path d="M161.47,475h-.05c-.68,1-1.64,1.79-3.93,1.79-2.73,0-4.65-1.43-4.65-4.08,0-2.94,2.39-3.87,5.35-4.29,2.21-.31,3.23-.49,3.23-1.51s-.76-1.58-2.24-1.58c-1.66,0-2.47.59-2.57,1.87h-3.15c.1-2.34,1.85-4.4,5.75-4.4s5.61,1.8,5.61,4.92v6.78c0,1,.16,1.62.47,1.85v.13h-3.41A3.77,3.77,0,0,1,161.47,475Zm0-3.23v-2a9.83,9.83,0,0,1-2.47.78c-1.85.42-2.76.83-2.76,2.08s.83,1.69,2.08,1.69C160.38,474.27,161.5,473,161.5,471.72Z"/><path d="M168.1,463.09h3.4v1.79h.08a4.36,4.36,0,0,1,3.88-2.15,4,4,0,0,1,3.69,2.34h0a4.64,4.64,0,0,1,4-2.34c2.8,0,4.39,1.82,4.39,4.73v9h-3.54v-8.37c0-1.51-.75-2.29-2.05-2.29-1.48,0-2.39,1.14-2.39,2.91v7.75h-3.54v-8.37c0-1.51-.75-2.29-2.05-2.29s-2.4,1.14-2.4,2.91v7.75H168.1Z"/><path d="M195.58,469.75c0-4,2.68-7,6.58-7,4.29,0,6.58,3.27,6.58,8h-9.68c.26,2.06,1.41,3.33,3.41,3.33a2.48,2.48,0,0,0,2.57-1.64h3.49c-.5,2.37-2.6,4.37-6,4.37C198.08,476.82,195.58,473.73,195.58,469.75Zm3.54-1.43H205a2.81,2.81,0,0,0-2.83-2.86C200.34,465.46,199.43,466.58,199.12,468.32Z"/><path d="M214.82,465.22h.08c.8-1.51,1.71-2.28,3.27-2.28a2.24,2.24,0,0,1,.83.1v3.09h-.07c-2.32-.23-4,1-4,3.8v6.5h-3.54V463.09h3.41Z"/><path d="M229.17,475h0c-.68,1-1.64,1.79-3.93,1.79-2.73,0-4.65-1.43-4.65-4.08,0-2.94,2.39-3.87,5.36-4.29,2.21-.31,3.22-.49,3.22-1.51s-.75-1.58-2.24-1.58c-1.66,0-2.47.59-2.57,1.87h-3.15c.11-2.34,1.85-4.4,5.75-4.4s5.62,1.8,5.62,4.92v6.78c0,1,.15,1.62.46,1.85v.13h-3.4A3.59,3.59,0,0,1,229.17,475Zm0-3.23v-2a9.83,9.83,0,0,1-2.47.78c-1.85.42-2.76.83-2.76,2.08s.83,1.69,2.08,1.69C228.08,474.27,229.2,473,229.2,471.72Z"/><path d="M234.76,463.09h1.85v-4.16h3.45v4.16h2.29v2.34h-2.29v7.07a1.17,1.17,0,0,0,1.33,1.33c.44,0,1,0,1,0v2.6s-.81.06-2.21.06c-1.72,0-3.61-.68-3.61-3.2v-7.83h-1.85Z"/><path d="M249.53,463.09h3.59l2.13,6.92c.39,1.27.6,2.13.6,2.13h.05s.18-.86.57-2.13l2.19-6.92h3.53l-4.65,13.34h-3.38Z"/><path d="M263.39,469.77a7,7,0,1,1,7,7.05A6.77,6.77,0,0,1,263.39,469.77Zm10.34,0c0-2.6-1.22-4.36-3.38-4.36s-3.38,1.76-3.38,4.36,1.2,4.35,3.38,4.35S273.73,472.37,273.73,469.77Z"/><path d="M280.05,457.84h3.54v18.59h-3.54Z"/><path d="M295.39,476.43v-1.56h-.08a4.28,4.28,0,0,1-3.82,1.92c-3,0-4.63-1.89-4.63-4.81v-8.89h3.51v8.3c0,1.56.71,2.41,2.21,2.41,1.67,0,2.68-1.24,2.68-3v-7.7h3.54v13.34Z"/><path d="M301.35,463.09h1.84v-4.16h3.46v4.16h2.29v2.34h-2.29v7.07a1.17,1.17,0,0,0,1.33,1.33c.44,0,1,0,1,0v2.6s-.81.06-2.21.06c-1.72,0-3.62-.68-3.62-3.2v-7.83h-1.84Z"/><path d="M311.8,463.09h3.4v1.66h.08a4.67,4.67,0,0,1,3.93-2c3.53,0,5.8,2.88,5.8,7,0,4.32-2.34,7.05-5.78,7.05a4.27,4.27,0,0,1-3.84-1.9h-.06v5.88H311.8Zm9.62,6.79c0-2.52-.89-4.29-3.07-4.29s-3.09,1.9-3.09,4.29,1.11,4,3.22,4C320.27,473.88,321.42,472.4,321.42,469.88Z"/><path d="M335.67,475h-.06c-.67,1-1.63,1.79-3.92,1.79-2.73,0-4.66-1.43-4.66-4.08,0-2.94,2.39-3.87,5.36-4.29,2.21-.31,3.22-.49,3.22-1.51s-.75-1.58-2.23-1.58c-1.67,0-2.47.59-2.58,1.87h-3.14c.1-2.34,1.84-4.4,5.74-4.4s5.62,1.8,5.62,4.92v6.78c0,1,.16,1.62.47,1.85v.13h-3.41A3.46,3.46,0,0,1,335.67,475Zm0-3.23v-2a9.57,9.57,0,0,1-2.47.78c-1.84.42-2.76.83-2.76,2.08s.84,1.69,2.08,1.69C334.57,474.27,335.69,473,335.69,471.72Z"/><path d="M341.25,463.09h1.85v-4.16h3.46v4.16h2.29v2.34h-2.29v7.07a1.17,1.17,0,0,0,1.32,1.33c.45,0,1,0,1,0v2.6s-.8.06-2.21.06c-1.71,0-3.61-.68-3.61-3.2v-7.83h-1.85Z"/><path d="M351.76,472.66h3.79v3.77h-3.79Z"/></g></g></svg>