<svg xmlns="http://www.w3.org/2000/svg" viewBox="0 0 102.29 30.46"><defs><style>.cls-1{fill:none;stroke:#fff;stroke-miterlimit:10;stroke-width:2px;}</style></defs><g id="Layer_2" data-name="Layer 2"><g id="Layer_1-2" data-name="Layer 1"><path class="cls-1" d="M1,20.4H6.33C6.14,23.88,8.69,25,12.25,25c2.71,0,5.23-1,5.23-3.56,0-1.91-1.3-2.75-5.92-4.43-4.85-1.75-7.72-3.43-7.72-7.71,0-5.24,4-8.29,10-8.29C19.39,1,24.24,3.41,24,9.56H18.74c.11-2.68-1.72-4.17-5.12-4.17-2,0-4.54.77-4.58,3.21,0,1.83,1.22,2.37,5.54,3.86,5.42,1.87,8.32,3.93,8.32,8.29,0,5.77-4.58,8.71-10.81,8.71S.67,26.71,1,20.4Z"/><path class="cls-1" d="M29.74,1.53H35.2L33.14,12.27h10L45.25,1.53h5.46L45.44,28.85H40l2.33-12.07H32.26L29.93,28.85H24.47Z"/><path class="cls-1" d="M50.75,17.73C50.75,8.94,55.83,1,65,1c7.06,0,11.76,4.7,11.76,11.92,0,8.59-4.81,16.54-14.13,16.54C55.6,29.46,50.75,25.07,50.75,17.73ZM62.86,25c6.15,0,8.33-6.61,8.33-11.88,0-4.24-2-7.56-6.54-7.56-6,0-8.32,6.61-8.32,12.11C56.33,21.7,58.16,25,62.86,25Z"/><path class="cls-1" d="M82.07,1.53H92.58c5.23,0,8.71,3,8.71,8.06C101.29,15.44,97.12,19,91,19H84.36l-1.91,9.9H76.8Zm3.17,13h5.5c2.56,0,4.89-1.37,4.89-4.62,0-2.21-1.3-3.55-3.78-3.55h-5Z"/></g></g></svg>