<svg xmlns="http://www.w3.org/2000/svg" viewBox="0 0 158.05 41.34"><defs><style>.cls-1{fill:#fff;}</style></defs><g id="Layer_2" data-name="Layer 2"><g id="Layer_1-2" data-name="Layer 1"><path class="cls-1" d="M0,27.75H11.88c.38,3.16,2.83,4.66,6.66,4.66,2.27,0,5.05-.89,5.05-3.27s-2.67-3-7.55-4.22C9.38,23.25,1.33,21,1.33,12.54,1.33,3.44,8.77,0,17.7,0c8.22,0,15.76,3.44,15.93,12.1H22.14c-.33-2.17-1.88-3.55-5.05-3.55-2.55,0-4.33,1.16-4.33,2.77,0,2.33,3.39,2.66,9.33,4.11C28.75,17,35.41,19.65,35.41,28.08c0,8.66-7.72,13.26-17.1,13.26C8,41.34.17,36.91,0,27.75Z"/><path class="cls-1" d="M39.68.72h11.6V15.26H63.49V.72h11.6V40.4H63.49V24.86H51.28V40.4H39.68Z"/><path class="cls-1" d="M79.41,20.7C79.41,8.82,87.18,0,99.5,0s20.2,8.82,20.2,20.7-7.88,20.64-20.2,20.64S79.41,32.58,79.41,20.7Zm28.53,0c0-6.49-2.83-11.43-8.38-11.43s-8.38,4.94-8.38,11.43S94,32.08,99.56,32.08,107.94,27.19,107.94,20.7Z"/><path class="cls-1" d="M124,.72h18.26c5.05,0,8.71,1.33,11.32,3.66a13.56,13.56,0,0,1,4.44,10.49c0,7.66-5.66,13.43-13.65,13.43h-8.77V40.4H124Zm11.6,18.59h6.27a4.34,4.34,0,0,0,4.61-4.6c0-2.67-1.72-4.39-4.72-4.39h-6.16Z"/></g></g></svg>