<svg xmlns="http://www.w3.org/2000/svg" viewBox="0 0 162.09 45.34"><defs><style>.cls-1{fill:none;stroke:#fff;stroke-miterlimit:10;stroke-width:4px;}</style></defs><g id="Layer_2" data-name="Layer 2"><g id="Layer_1-2" data-name="Layer 1"><path class="cls-1" d="M2,29.75H13.91c.39,3.16,2.83,4.66,6.66,4.66,2.28,0,5.05-.89,5.05-3.27s-2.66-3-7.54-4.22C11.42,25.25,3.37,23,3.37,14.54,3.37,5.44,10.81,2,19.74,2,28,2,35.5,5.44,35.67,14.1H24.18c-.33-2.17-1.89-3.55-5.05-3.55-2.55,0-4.33,1.16-4.33,2.77,0,2.33,3.39,2.66,9.32,4.11C30.78,19,37.44,21.65,37.44,30.08c0,8.66-7.71,13.26-17.09,13.26C10,43.34,2.2,38.91,2,29.75Z"/><path class="cls-1" d="M41.72,2.72H53.31V17.26H65.52V2.72h11.6V42.4H65.52V26.86H53.31V42.4H41.72Z"/><path class="cls-1" d="M81.45,22.7C81.45,10.82,89.22,2,101.54,2s20.2,8.82,20.2,20.7-7.88,20.64-20.2,20.64S81.45,34.58,81.45,22.7Zm28.53,0c0-6.49-2.84-11.43-8.38-11.43s-8.38,4.94-8.38,11.43,2.83,11.38,8.38,11.38S110,29.19,110,22.7Z"/><path class="cls-1" d="M126.07,2.72h18.26c5,0,8.71,1.33,11.32,3.66a13.56,13.56,0,0,1,4.44,10.49c0,7.66-5.66,13.43-13.65,13.43h-8.77V42.4h-11.6Zm11.6,18.59h6.27a4.33,4.33,0,0,0,4.6-4.6c0-2.67-1.72-4.39-4.71-4.39h-6.16Z"/></g></g></svg>