<svg xmlns="http://www.w3.org/2000/svg" viewBox="0 0 100.29 28.46"><defs><style>.cls-1{fill:#fff;}</style></defs><g id="Layer_2" data-name="Layer 2"><g id="Layer_1-2" data-name="Layer 1"><path class="cls-1" d="M0,19.4H5.33C5.14,22.88,7.69,24,11.25,24c2.71,0,5.23-1,5.23-3.56,0-1.91-1.3-2.75-5.92-4.43-4.85-1.75-7.72-3.43-7.72-7.71,0-5.24,4-8.29,10-8.29C18.39,0,23.24,2.41,23,8.56H17.74c.11-2.68-1.72-4.17-5.12-4.17-2,0-4.54.77-4.58,3.21C8,9.43,9.26,10,13.58,11.46c5.42,1.87,8.32,3.93,8.32,8.29,0,5.77-4.58,8.71-10.81,8.71S-.33,25.71,0,19.4Z"/><path class="cls-1" d="M28.74.53H34.2L32.14,11.27h10L44.25.53h5.46L44.44,27.85H39l2.33-12.07h-10L28.93,27.85H23.47Z"/><path class="cls-1" d="M49.75,16.73C49.75,7.94,54.83,0,64,0c7.06,0,11.76,4.7,11.76,11.92,0,8.59-4.81,16.54-14.13,16.54C54.6,28.46,49.75,24.07,49.75,16.73ZM61.86,24c6.15,0,8.33-6.61,8.33-11.88,0-4.24-2-7.56-6.54-7.56-6,0-8.32,6.61-8.32,12.11C55.33,20.7,57.16,24,61.86,24Z"/><path class="cls-1" d="M81.07.53H91.58c5.23,0,8.71,3,8.71,8.06C100.29,14.44,96.12,18,90,18H83.36l-1.91,9.9H75.8Zm3.17,13h5.5c2.56,0,4.89-1.37,4.89-4.62,0-2.21-1.3-3.55-3.78-3.55h-5Z"/></g></g></svg>