<svg xmlns="http://www.w3.org/2000/svg" viewBox="0 0 774.67 854"><defs><style>.cls-1{fill:#35692f;}.cls-2{fill:#fff;}.cls-3{fill:none;stroke:#fff;stroke-miterlimit:10;stroke-width:7px;}</style></defs><g id="Layer_2" data-name="Layer 2"><g id="Layer_2-2" data-name="Layer 2"><rect class="cls-1" width="590" height="854"/><path class="cls-2" d="M97.88,617.71l-29-54.12H92l11,22.2c2.88,5.88,5.64,13.08,5.64,13.08h.24s3-7.2,5.88-13.08l10.92-22.2h22.43l-29,54.12v31.68H97.88Z"/><path class="cls-2" d="M142.88,606.67c0-25.68,16.44-44.76,42.36-44.76s42.48,19.08,42.48,44.76-16.44,44.76-42.48,44.76S142.88,632.35,142.88,606.67Zm63.24,0c0-15.6-6.84-27.6-20.76-27.6s-20.88,12-20.88,27.6,7.08,27.48,20.88,27.48S206.12,622.27,206.12,606.67Z"/><path class="cls-2" d="M235.4,619.15V563.59h21.24v56.28c0,8.4,4.32,14,14.76,14,9.84,0,14.52-6,14.52-14.4V563.59h21.24v55.56c0,19.8-11.88,31.8-35.76,31.8S235.4,639.19,235.4,619.15Z"/><path class="cls-2" d="M318.32,563.59h41c17,0,30,8.76,30,24.72,0,10-4.92,17.28-14.88,20.76v.36c7.44,2.52,11.28,7.2,12.48,15.72,1.8,11.28.6,22.08,3.6,23.16v1.08H369.91c-2.28-1.32-1.92-11.4-3.23-19.92-1.08-7.92-5.16-12.24-14.28-12.24H339.56v32.16H318.32Zm37.2,37.92c8.39,0,12.71-4,12.71-10.44,0-6.24-4.08-10.68-12.23-10.68H339.56v21.12Z"/><path class="cls-2" d="M411.56,563.59H433l8.64,36c1.92,8.28,3.95,21.24,3.95,21.24h.24s2.28-11.76,4.2-20.4l8-36.84h19.68l8,36.6c1.92,8.76,4.08,20.64,4.08,20.64h.24s2.4-13,4.32-21.48L503,563.59h21.36l-23.52,85.8H480.07l-9-41.16c-1.56-6.84-3-16-3-16h-.24s-1.44,9.12-2.88,16l-9,41.16H435.08Z"/><path class="cls-2" d="M523.15,606.67c0-25.68,16.44-44.76,42.36-44.76S608,581,608,606.67s-16.44,44.76-42.48,44.76S523.15,632.35,523.15,606.67Zm63.24,0c0-15.6-6.84-27.6-20.76-27.6s-20.88,12-20.88,27.6,7.08,27.48,20.88,27.48S586.39,622.27,586.39,606.67Z"/><path class="cls-2" d="M616.27,563.59h41c17,0,30,8.76,30,24.72,0,10-4.92,17.28-14.88,20.76v.36c7.44,2.52,11.28,7.2,12.48,15.72,1.8,11.28.6,22.08,3.6,23.16v1.08H667.87c-2.28-1.32-1.92-11.4-3.24-19.92-1.08-7.92-5.16-12.24-14.28-12.24H637.51v32.16H616.27Zm37.2,37.92c8.4,0,12.72-4,12.72-10.44,0-6.24-4.08-10.68-12.24-10.68H637.51v21.12Z"/><path class="cls-2" d="M696.79,563.59H718v31.08l29.52-31.08h25.2L739.87,598l34.8,51.36H750l-24.72-37.08-7.2,7.56v29.52H696.79Z"/><path class="cls-3" d="M558,59.28v21c-8.88-.23-12.35,6.61-12.35,16.08,0,7.08,2.28,13.8,9.23,13.8,5,0,7.32-5.16,11.52-16.92,5.4-15.35,10.92-25.07,24.84-25.07C609,68.16,618.39,82,618.39,101c0,16.68-6.48,33.84-26.4,33v-20.4c6.72.12,10.44-4.8,10.44-13.32,0-5.4-2.16-11.87-8.16-12-5.16,0-6.36,4.68-11,18.36-5,14.52-11.16,24.84-25.32,24.84-19.43,0-28.91-16.32-28.91-35.76C529,77,536.44,58.56,558,59.28Z"/><path class="cls-3" d="M563.91,138.48l52.92,10.32v20.87L561.75,159c-9.48-1.8-15.35,2.16-15.35,13,0,9.24,5.15,13.8,13.43,15.36l57,11v20.88L558.75,208c-18.83-3.6-29.27-15.48-29.27-36.6C529.48,149.27,539.92,133.92,563.91,138.48Z"/><path class="cls-3" d="M616.83,230.15v36.72c0,8.28-1.92,14.64-5.28,19s-8.52,7.08-15.6,7.08c-9.48,0-16.32-5.76-19.32-15h-.36c-2.76,7.56-8.64,12.12-17.52,12.12A25.58,25.58,0,0,1,538.12,280c-4.56-5.76-7.08-12.6-7.08-22.8V213.59ZM548,256.55c0,7.44,3.48,13,11.27,13,6.12,0,9.24-4.32,9.24-10.32V241.55l-20.51-4Zm34.79,4.8c0,5.4,2.16,11.28,9.84,11.28,4.56,0,7.68-3,7.68-8.76v-16.2l-17.52-3.36Z"/><path class="cls-3" d="M616.83,309v27.84l-34.92,2.76c-9.72.72-22.44,1.44-22.44,1.44v.12s11.16,4.32,21,8.88l36.36,16.8v28.8L531,379.07v-19.2L573.39,368c6.72,1.32,18.12,4,18.12,4v-.24s-10.8-4.68-17.28-7.68L531,344.27V327l43.31-3.36c4.8-.36,17.16-.84,17.16-.84v-.24s-12.36-2.16-18-3.24L531,311.15V292.43Z"/><path class="cls-3" d="M616.83,407.63v20.88L531,412V391Z"/><path class="cls-3" d="M599.07,457V432.83l17.76,3.36v69.36l-17.76-3.36V477.83l-68-13.2V443.75Z"/></g></g></svg>