<svg xmlns="http://www.w3.org/2000/svg" viewBox="0 0 525.67 827.45"><defs><style>.cls-1,.cls-2,.cls-6{fill:#fff;}.cls-2{font-size:32px;letter-spacing:0.04em;}.cls-2,.cls-3{font-family:NHaasGroteskDSPro-75Bd, Neue Haas Grotesk Display Pro;}.cls-3{font-size:55px;fill:none;stroke:#fff;stroke-miterlimit:10;stroke-width:3px;}.cls-4{letter-spacing:-0.04em;}.cls-5{letter-spacing:-0.01em;}.cls-6{font-size:27px;font-family:NHaasGroteskDSPro-65Md, Neue Haas Grotesk Display Pro;font-weight:500;}.cls-20,.cls-6{letter-spacing:0.04em;}.cls-7{letter-spacing:0.1em;}.cls-8{letter-spacing:0.1em;}.cls-9{letter-spacing:0.04em;}.cls-10{letter-spacing:0.03em;}.cls-11{letter-spacing:0.03em;}.cls-12{letter-spacing:0.23em;}.cls-13{letter-spacing:0.04em;}.cls-14{letter-spacing:0.05em;}.cls-15{letter-spacing:0.02em;}.cls-16{letter-spacing:0.04em;}.cls-17{letter-spacing:0.93em;}.cls-18{letter-spacing:0.02em;}.cls-19{letter-spacing:0.93em;}.cls-21{letter-spacing:0.09em;}.cls-22{letter-spacing:0.09em;}</style></defs><g id="Layer_2" data-name="Layer 2"><g id="Layer_2-2" data-name="Layer 2"><path class="cls-1" d="M1.73,3.85h4l2.51,9.59c.38,1.64.84,4.21.84,4.21h0s.49-2.41.89-4.11l2.11-9.69H15.9L18,13.52c.41,1.7.9,4.13.9,4.13H19l.94-4.24,2.43-9.56h3.86l-5.5,19.3H17L14.68,12.81c-.32-1.4-.67-3.42-.67-3.42h0s-.3,2-.63,3.42L11,23.15H7.34Z" transform="translate(0 -3.85)"/><path class="cls-1" d="M26.43,16.22c0-4.11,2.78-7.29,6.83-7.29,4.46,0,6.83,3.4,6.83,8.34h-10c.27,2.13,1.46,3.45,3.54,3.45A2.58,2.58,0,0,0,36.26,19h3.62c-.52,2.46-2.7,4.54-6.27,4.54C29,23.56,26.43,20.35,26.43,16.22Zm3.67-1.49h6.16a2.93,2.93,0,0,0-2.94-3C31.37,11.76,30.43,12.92,30.1,14.73Z" transform="translate(0 -3.85)"/><path class="cls-1" d="M56.28,21.61h-.06c-.7,1.06-1.7,1.87-4.07,1.87-2.84,0-4.84-1.49-4.84-4.24,0-3,2.49-4,5.56-4.46,2.3-.32,3.35-.51,3.35-1.56s-.78-1.65-2.32-1.65c-1.73,0-2.56.62-2.67,1.95H48c.11-2.43,1.92-4.57,6-4.57s5.83,1.87,5.83,5.11v7c0,1,.16,1.67.48,1.92v.13H56.71A3.69,3.69,0,0,1,56.28,21.61Zm0-3.34V16.19a10.28,10.28,0,0,1-2.56.81c-1.92.43-2.86.86-2.86,2.16s.86,1.75,2.16,1.75C55.14,20.91,56.3,19.62,56.3,18.27Z" transform="translate(0 -3.85)"/><path class="cls-1" d="M62.3,18.67h3.4c.24,1.59,1.38,2.3,3,2.3s2.54-.62,2.54-1.6c0-1.32-1.75-1.45-3.64-1.83-2.49-.49-4.92-1.16-4.92-4.19s2.49-4.42,5.64-4.42c3.65,0,5.67,1.81,5.94,4.59H71c-.16-1.49-1.1-2-2.67-2S65.92,12,65.92,13c0,1.19,1.83,1.3,3.8,1.7,2.32.49,4.89,1.13,4.89,4.37,0,2.78-2.38,4.46-5.83,4.46C64.75,23.56,62.51,21.61,62.3,18.67Z" transform="translate(0 -3.85)"/><path class="cls-1" d="M82.57,16.84,81,18.48v4.67H77.34V3.85H81V14.54l4.91-5.23h4.4l-5.1,5.26,5.72,8.58H86.46Z" transform="translate(0 -3.85)"/><path class="cls-1" d="M97.46,9.31h1.92V5H103V9.31h2.37v2.42H103v7.35a1.21,1.21,0,0,0,1.38,1.37l1.08,0v2.7s-.84.05-2.3.05c-1.78,0-3.75-.7-3.75-3.32V11.73H97.46Z" transform="translate(0 -3.85)"/><path class="cls-1" d="M112,11.11h.08a4.42,4.42,0,0,1,4-2.18c2.86,0,4.78,2.16,4.78,5.18v9H117.2v-8.5a2.31,2.31,0,0,0-2.41-2.54A2.9,2.9,0,0,0,112,15.3v7.85h-3.67V3.85H112Z" transform="translate(0 -3.85)"/><path class="cls-1" d="M132.51,21.61h-.06c-.7,1.06-1.7,1.87-4.07,1.87-2.84,0-4.84-1.49-4.84-4.24,0-3,2.49-4,5.57-4.46,2.29-.32,3.34-.51,3.34-1.56s-.78-1.65-2.32-1.65c-1.73,0-2.56.62-2.67,1.95h-3.27c.11-2.43,1.92-4.57,6-4.57S136,10.82,136,14.06v7c0,1,.16,1.67.48,1.92v.13h-3.53A3.69,3.69,0,0,1,132.51,21.61Zm0-3.34V16.19A10.15,10.15,0,0,1,130,17c-1.92.43-2.86.86-2.86,2.16s.86,1.75,2.16,1.75C131.37,20.91,132.53,19.62,132.53,18.27Z" transform="translate(0 -3.85)"/><path class="cls-1" d="M138.31,9.31h1.92V5h3.59V9.31h2.38v2.42h-2.38v7.35a1.21,1.21,0,0,0,1.38,1.37l1.08,0v2.7s-.84.05-2.3.05c-1.78,0-3.75-.7-3.75-3.32V11.73h-1.92Z" transform="translate(0 -3.85)"/><path class="cls-1" d="M162.57,21.61h-.06c-.7,1.06-1.7,1.87-4.07,1.87-2.84,0-4.83-1.49-4.83-4.24,0-3,2.48-4,5.56-4.46,2.29-.32,3.34-.51,3.34-1.56s-.78-1.65-2.32-1.65c-1.73,0-2.56.62-2.67,1.95h-3.27c.11-2.43,1.92-4.57,6-4.57s5.83,1.87,5.83,5.11v7c0,1,.16,1.67.49,1.92v.13H163A3.69,3.69,0,0,1,162.57,21.61Zm0-3.34V16.19A10.15,10.15,0,0,1,160,17c-1.92.43-2.86.86-2.86,2.16s.86,1.75,2.16,1.75C161.43,20.91,162.59,19.62,162.59,18.27Z" transform="translate(0 -3.85)"/><path class="cls-1" d="M169.51,3.85h3.67v19.3h-3.67Z" transform="translate(0 -3.85)"/><path class="cls-1" d="M176.74,3.85h3.68v19.3h-3.68Z" transform="translate(0 -3.85)"/><path class="cls-1" d="M188.18,18.67h3.4c.24,1.59,1.37,2.3,3,2.3s2.54-.62,2.54-1.6c0-1.32-1.76-1.45-3.65-1.83-2.48-.49-4.91-1.16-4.91-4.19s2.48-4.42,5.64-4.42c3.65,0,5.67,1.81,5.94,4.59h-3.32c-.16-1.49-1.11-2-2.67-2s-2.38.54-2.38,1.54c0,1.19,1.84,1.3,3.81,1.7,2.32.49,4.89,1.13,4.89,4.37,0,2.78-2.38,4.46-5.84,4.46C190.63,23.56,188.39,21.61,188.18,18.67Z" transform="translate(0 -3.85)"/><path class="cls-1" d="M212,23.15V21.53h-.08a4.44,4.44,0,0,1-4,2c-3.08,0-4.8-2-4.8-5V9.31h3.64v8.61c0,1.62.73,2.51,2.3,2.51s2.78-1.3,2.78-3.14v-8h3.67V23.15Z" transform="translate(0 -3.85)"/><path class="cls-1" d="M222.55,21.42h-.06v1.73H219V3.85h3.67V11h.08a4.32,4.32,0,0,1,3.86-2.05c3.48,0,6,3,6,7.31,0,4.48-2.37,7.32-5.85,7.32A4.59,4.59,0,0,1,222.55,21.42Zm6.26-5.18c0-2.56-1-4.34-3.08-4.34-2.32,0-3.18,1.86-3.18,4.42s1.26,4.16,3.32,4.16C227.76,20.48,228.81,18.91,228.81,16.24Z" transform="translate(0 -3.85)"/><path class="cls-1" d="M235.32,9.31h3.53v1.86h.09a4.5,4.5,0,0,1,4-2.24,4.12,4.12,0,0,1,3.83,2.43h.05A4.83,4.83,0,0,1,251,8.93c2.92,0,4.56,1.89,4.56,4.91v9.31h-3.67V14.46c0-1.56-.78-2.37-2.13-2.37-1.54,0-2.48,1.18-2.48,3v8h-3.67V14.46c0-1.56-.79-2.37-2.14-2.37s-2.48,1.18-2.48,3v8h-3.67Z" transform="translate(0 -3.85)"/><path class="cls-1" d="M258.92,3.85h3.67v3.3h-3.67Zm0,5.46h3.67V23.15h-3.67Z" transform="translate(0 -3.85)"/><path class="cls-1" d="M265.18,18.67h3.4c.24,1.59,1.38,2.3,3,2.3s2.54-.62,2.54-1.6c0-1.32-1.75-1.45-3.64-1.83-2.49-.49-4.92-1.16-4.92-4.19s2.49-4.42,5.65-4.42c3.64,0,5.67,1.81,5.94,4.59h-3.33c-.16-1.49-1.1-2-2.67-2S268.8,12,268.8,13c0,1.19,1.83,1.3,3.8,1.7,2.32.49,4.89,1.13,4.89,4.37,0,2.78-2.38,4.46-5.83,4.46C267.64,23.56,265.4,21.61,265.18,18.67Z" transform="translate(0 -3.85)"/><path class="cls-1" d="M279.36,18.67h3.4c.24,1.59,1.37,2.3,3,2.3s2.54-.62,2.54-1.6c0-1.32-1.76-1.45-3.65-1.83-2.48-.49-4.91-1.16-4.91-4.19s2.48-4.42,5.64-4.42c3.65,0,5.67,1.81,5.94,4.59H288c-.16-1.49-1.11-2-2.67-2S283,12,283,13c0,1.19,1.84,1.3,3.81,1.7,2.32.49,4.88,1.13,4.88,4.37,0,2.78-2.37,4.46-5.83,4.46C281.81,23.56,279.57,21.61,279.36,18.67Z" transform="translate(0 -3.85)"/><path class="cls-1" d="M294.39,3.85h3.67v3.3h-3.67Zm0,5.46h3.67V23.15h-3.67Z" transform="translate(0 -3.85)"/><path class="cls-1" d="M300.85,16.24a7.24,7.24,0,1,1,14.47,0,7.24,7.24,0,1,1-14.47,0Zm10.74,0c0-2.7-1.27-4.53-3.51-4.53s-3.51,1.83-3.51,4.53,1.24,4.51,3.51,4.51S311.59,18.94,311.59,16.24Z" transform="translate(0 -3.85)"/><path class="cls-1" d="M321.69,11.19h.08a4.5,4.5,0,0,1,4.1-2.26c2.87,0,4.78,2.16,4.78,5.18v9H327v-8.5a2.31,2.31,0,0,0-2.4-2.54,2.9,2.9,0,0,0-2.81,3.19v7.85H318.1V9.31h3.59Z" transform="translate(0 -3.85)"/><path class="cls-1" d="M333.14,18.67h3.4c.24,1.59,1.38,2.3,3,2.3s2.54-.62,2.54-1.6c0-1.32-1.75-1.45-3.64-1.83-2.49-.49-4.92-1.16-4.92-4.19s2.49-4.42,5.65-4.42c3.64,0,5.66,1.81,5.93,4.59H341.8c-.16-1.49-1.1-2-2.67-2s-2.37.54-2.37,1.54c0,1.19,1.83,1.3,3.8,1.7,2.32.49,4.89,1.13,4.89,4.37,0,2.78-2.38,4.46-5.83,4.46C335.6,23.56,333.36,21.61,333.14,18.67Z" transform="translate(0 -3.85)"/><path class="cls-1" d="M356.88,21.42h-.05v1.73h-3.54V3.85H357V11H357a4.34,4.34,0,0,1,3.86-2.05c3.48,0,6,3,6,7.31,0,4.48-2.38,7.32-5.86,7.32A4.61,4.61,0,0,1,356.88,21.42Zm6.26-5.18c0-2.56-1-4.34-3.07-4.34-2.32,0-3.19,1.86-3.19,4.42s1.27,4.16,3.32,4.16C362.09,20.48,363.14,18.91,363.14,16.24Z" transform="translate(0 -3.85)"/><path class="cls-1" d="M369,16.22c0-4.11,2.78-7.29,6.83-7.29,4.45,0,6.83,3.4,6.83,8.34h-10c.27,2.13,1.45,3.45,3.53,3.45A2.57,2.57,0,0,0,378.8,19h3.62c-.51,2.46-2.7,4.54-6.26,4.54C371.57,23.56,369,20.35,369,16.22Zm3.67-1.49h6.15a2.91,2.91,0,0,0-2.94-3C373.92,11.76,373,12.92,372.65,14.73Z" transform="translate(0 -3.85)"/><path class="cls-1" d="M398.82,21.61h-.05c-.7,1.06-1.7,1.87-4.08,1.87-2.83,0-4.83-1.49-4.83-4.24,0-3,2.48-4,5.56-4.46,2.29-.32,3.35-.51,3.35-1.56s-.79-1.65-2.32-1.65c-1.73,0-2.57.62-2.68,1.95h-3.26c.11-2.43,1.91-4.57,6-4.57s5.83,1.87,5.83,5.11v7c0,1,.16,1.67.49,1.92v.13h-3.54A3.85,3.85,0,0,1,398.82,21.61Zm0-3.34V16.19a10.36,10.36,0,0,1-2.57.81c-1.91.43-2.86.86-2.86,2.16s.87,1.75,2.16,1.75C397.69,20.91,398.85,19.62,398.85,18.27Z" transform="translate(0 -3.85)"/><path class="cls-1" d="M405,16.24c0-4.13,2.7-7.31,6.91-7.31,3.59,0,5.81,2.08,6.29,5.07h-3.59a2.53,2.53,0,0,0-2.53-2.13c-2.22,0-3.35,1.7-3.35,4.37s1.05,4.38,3.29,4.38a2.58,2.58,0,0,0,2.78-2.35h3.54c-.25,2.94-2.54,5.29-6.24,5.29C407.76,23.56,405,20.37,405,16.24Z" transform="translate(0 -3.85)"/><path class="cls-1" d="M420.37,16.24c0-4.13,2.7-7.31,6.91-7.31,3.59,0,5.8,2.08,6.29,5.07H430a2.54,2.54,0,0,0-2.54-2.13c-2.21,0-3.35,1.7-3.35,4.37s1.06,4.38,3.3,4.38a2.6,2.6,0,0,0,2.78-2.35h3.53c-.24,2.94-2.53,5.29-6.23,5.29C423.1,23.56,420.37,20.37,420.37,16.24Z" transform="translate(0 -3.85)"/><path class="cls-1" d="M435.71,16.24a7.23,7.23,0,1,1,14.46,0,7.23,7.23,0,1,1-14.46,0Zm10.74,0c0-2.7-1.27-4.53-3.51-4.53s-3.51,1.83-3.51,4.53,1.24,4.51,3.51,4.51S446.45,18.94,446.45,16.24Z" transform="translate(0 -3.85)"/><path class="cls-1" d="M453,9.31h3.53v1.86h.09a4.5,4.5,0,0,1,4-2.24,4.13,4.13,0,0,1,3.83,2.43h.05a4.83,4.83,0,0,1,4.16-2.43c2.92,0,4.56,1.89,4.56,4.91v9.31h-3.67V14.46c0-1.56-.78-2.37-2.13-2.37-1.54,0-2.48,1.18-2.48,3v8h-3.67V14.46c0-1.56-.79-2.37-2.14-2.37s-2.48,1.18-2.48,3v8H453Z" transform="translate(0 -3.85)"/><path class="cls-1" d="M476.56,9.31h3.53V11h.08a4.85,4.85,0,0,1,4.08-2.1c3.67,0,6,3,6,7.31,0,4.48-2.43,7.32-6,7.32a4.47,4.47,0,0,1-4-2h0v6.1h-3.67Zm10,7c0-2.62-.92-4.45-3.18-4.45s-3.21,2-3.21,4.45,1.16,4.16,3.34,4.16C485.36,20.51,486.54,19,486.54,16.35Z" transform="translate(0 -3.85)"/><path class="cls-1" d="M501.34,21.61h0c-.71,1.06-1.71,1.87-4.08,1.87-2.83,0-4.83-1.49-4.83-4.24,0-3,2.48-4,5.56-4.46,2.29-.32,3.35-.51,3.35-1.56s-.79-1.65-2.33-1.65c-1.72,0-2.56.62-2.67,1.95H493c.1-2.43,1.91-4.57,6-4.57s5.83,1.87,5.83,5.11v7c0,1,.16,1.67.49,1.92v.13h-3.54A3.69,3.69,0,0,1,501.34,21.61Zm0-3.34V16.19a10.36,10.36,0,0,1-2.57.81c-1.92.43-2.86.86-2.86,2.16s.86,1.75,2.16,1.75C500.21,20.91,501.37,19.62,501.37,18.27Z" transform="translate(0 -3.85)"/><path class="cls-1" d="M508,14.89h7.31v3.16H508Z" transform="translate(0 -3.85)"/><path class="cls-1" d="M6.37,43.59h.08a4.51,4.51,0,0,1,4.1-2.26c2.87,0,4.78,2.16,4.78,5.18v9H11.66v-8.5a2.31,2.31,0,0,0-2.4-2.54A2.9,2.9,0,0,0,6.45,47.7v7.85H2.78V41.71H6.37Z" transform="translate(0 -3.85)"/><path class="cls-1" d="M18.68,36.25h3.67v3.3H18.68Zm0,5.46h3.67V55.55H18.68Z" transform="translate(0 -3.85)"/><path class="cls-1" d="M25.14,48.62c0-4.11,2.78-7.29,6.83-7.29,4.45,0,6.82,3.4,6.82,8.34h-10c.27,2.13,1.46,3.45,3.54,3.45A2.57,2.57,0,0,0,35,51.42h3.62c-.51,2.46-2.7,4.54-6.26,4.54C27.73,56,25.14,52.75,25.14,48.62Zm3.67-1.49H35a2.93,2.93,0,0,0-2.94-3C30.08,44.16,29.13,45.32,28.81,47.13Z" transform="translate(0 -3.85)"/><path class="cls-1" d="M40.9,48.64c0-4.32,2.46-7.31,5.92-7.31a4.39,4.39,0,0,1,3.91,2.05h.08V36.25h3.67v19.3H51V53.74h-.06A4.59,4.59,0,0,1,46.76,56C43.28,56,40.9,53.12,40.9,48.64Zm10,.08c0-2.64-.86-4.42-3.21-4.42-2,0-3,1.78-3,4.34s1,4.24,2.94,4.24C49.76,52.88,50.89,51.26,50.89,48.72Z" transform="translate(0 -3.85)"/><path class="cls-1" d="M66.57,41.71h3.64l1.68,6.42c.29,1.13.62,2.59.62,2.59h0s.3-1.48.6-2.62l1.72-6.39H78l1.81,6.39c.3,1.16.65,2.62.65,2.62h.06s.32-1.46.62-2.59l1.75-6.42h3.56L82.33,55.55H79l-1.84-6.8c-.3-1.11-.62-2.4-.62-2.4h0s-.36,1.29-.65,2.4l-1.89,6.8H70.62Z" transform="translate(0 -3.85)"/><path class="cls-1" d="M88.84,36.25h3.68v3.3H88.84Zm0,5.46h3.68V55.55H88.84Z" transform="translate(0 -3.85)"/><path class="cls-1" d="M95.16,41.71h1.92V37.39h3.59v4.32H103v2.42h-2.37v7.35a1.21,1.21,0,0,0,1.38,1.37l1.08,0v2.7s-.84,0-2.3,0c-1.78,0-3.75-.7-3.75-3.32V44.13H95.16Z" transform="translate(0 -3.85)"/><path class="cls-1" d="M109.69,43.51h.08a4.42,4.42,0,0,1,4-2.18c2.86,0,4.78,2.16,4.78,5.18v9H114.9v-8.5a2.31,2.31,0,0,0-2.41-2.54,2.9,2.9,0,0,0-2.8,3.19v7.85H106V36.25h3.67Z" transform="translate(0 -3.85)"/><path class="cls-1" d="M139.91,54h0c-.7,1.06-1.7,1.87-4.08,1.87-2.83,0-4.83-1.49-4.83-4.24,0-3,2.49-4,5.56-4.45,2.3-.33,3.35-.52,3.35-1.57S139.08,44,137.54,44c-1.73,0-2.57.62-2.67,2H131.6c.11-2.43,1.92-4.57,6-4.57s5.83,1.87,5.83,5.11v7c0,1,.16,1.67.48,1.92v.13h-3.53A3.83,3.83,0,0,1,139.91,54Zm0-3.34V48.59a10.42,10.42,0,0,1-2.56.81c-1.92.43-2.86.86-2.86,2.16s.86,1.75,2.15,1.75C138.78,53.31,139.94,52,139.94,50.67Z" transform="translate(0 -3.85)"/><path class="cls-1" d="M155.65,51.07h3.4c.24,1.59,1.37,2.3,3,2.3s2.54-.62,2.54-1.6c0-1.32-1.76-1.45-3.65-1.83-2.48-.49-4.91-1.16-4.91-4.19s2.48-4.42,5.64-4.42c3.65,0,5.67,1.81,5.94,4.59h-3.32c-.16-1.49-1.11-2-2.67-2s-2.38.54-2.38,1.54c0,1.19,1.84,1.3,3.81,1.7,2.32.49,4.88,1.13,4.88,4.37,0,2.78-2.37,4.46-5.83,4.46C158.1,56,155.86,54,155.65,51.07Z" transform="translate(0 -3.85)"/><path class="cls-1" d="M174.35,43.51h.09a4.41,4.41,0,0,1,4-2.18c2.86,0,4.78,2.16,4.78,5.18v9h-3.68v-8.5a2.31,2.31,0,0,0-2.4-2.54,2.9,2.9,0,0,0-2.81,3.19v7.85h-3.67V36.25h3.67Z" transform="translate(0 -3.85)"/><path class="cls-1" d="M185.91,48.64a7.24,7.24,0,1,1,14.47,0,7.24,7.24,0,1,1-14.47,0Zm10.75,0c0-2.7-1.27-4.53-3.51-4.53s-3.51,1.83-3.51,4.53,1.24,4.51,3.51,4.51S196.66,51.34,196.66,48.64Z" transform="translate(0 -3.85)"/><path class="cls-1" d="M206.7,43.92h.08c.84-1.57,1.78-2.38,3.4-2.38a2.45,2.45,0,0,1,.87.11v3.21H211c-2.41-.24-4.13,1-4.13,3.94v6.75h-3.67V41.71h3.53Z" transform="translate(0 -3.85)"/><path class="cls-1" d="M213.05,41.71H215V37.39h3.59v4.32h2.38v2.42h-2.38v7.35a1.21,1.21,0,0,0,1.38,1.37l1.08,0v2.7s-.84,0-2.3,0c-1.78,0-3.75-.7-3.75-3.32V44.13h-1.91Z" transform="translate(0 -3.85)"/><path class="cls-1" d="M237.2,53.83h-.06v1.72h-3.53V36.25h3.67v7.13h.08a4.33,4.33,0,0,1,3.86-2.05c3.48,0,6,3,6,7.31,0,4.48-2.38,7.32-5.86,7.32A4.61,4.61,0,0,1,237.2,53.83Zm6.26-5.19c0-2.56-1-4.34-3.08-4.34-2.32,0-3.18,1.86-3.18,4.42s1.27,4.16,3.32,4.16C242.41,52.88,243.46,51.31,243.46,48.64Z" transform="translate(0 -3.85)"/><path class="cls-1" d="M250,36.25h3.68v19.3H250Z" transform="translate(0 -3.85)"/><path class="cls-1" d="M266,55.55V53.93h-.08a4.43,4.43,0,0,1-4,2c-3.07,0-4.8-2-4.8-5V41.71h3.64v8.61c0,1.62.73,2.51,2.3,2.51,1.73,0,2.78-1.3,2.78-3.13v-8h3.67V55.55Z" transform="translate(0 -3.85)"/><path class="cls-1" d="M276.48,43.92h.09c.83-1.57,1.78-2.38,3.4-2.38a2.42,2.42,0,0,1,.86.11v3.21h-.08c-2.4-.24-4.13,1-4.13,3.94v6.75H273V41.71h3.53Z" transform="translate(0 -3.85)"/><path class="cls-1" d="M287.09,53.83h0v1.72H283.5V36.25h3.68v7.13h.08a4.32,4.32,0,0,1,3.86-2.05c3.48,0,6,3,6,7.31,0,4.48-2.37,7.32-5.86,7.32A4.63,4.63,0,0,1,287.09,53.83Zm6.27-5.19c0-2.56-1-4.34-3.08-4.34-2.32,0-3.19,1.86-3.19,4.42s1.27,4.16,3.33,4.16C292.3,52.88,293.36,51.31,293.36,48.64Z" transform="translate(0 -3.85)"/><path class="cls-1" d="M299.38,51.64h3.94v3.91h-3.94Z" transform="translate(0 -3.85)"/><path class="cls-1" d="M321.89,36.25h4.05l6.8,19.3h-4.08l-1.29-4.1h-7l-1.27,4.1h-4Zm-.57,12.2h5.1l-1.73-5.56c-.32-1-.78-3-.78-3h-.05s-.49,1.95-.81,3Z" transform="translate(0 -3.85)"/><path class="cls-1" d="M335.2,36.25h3.67v19.3H335.2Z" transform="translate(0 -3.85)"/><path class="cls-1" d="M342.43,36.25h3.68v19.3h-3.68Z" transform="translate(0 -3.85)"/><path class="cls-1" d="M358.46,51.07h3.4c.25,1.59,1.38,2.3,3,2.3s2.53-.62,2.53-1.6c0-1.32-1.75-1.45-3.64-1.83-2.48-.49-4.91-1.16-4.91-4.19s2.48-4.42,5.64-4.42c3.64,0,5.67,1.81,5.94,4.59h-3.32c-.17-1.49-1.11-2-2.68-2s-2.37.54-2.37,1.54c0,1.19,1.83,1.3,3.8,1.7,2.33.49,4.89,1.13,4.89,4.37,0,2.78-2.38,4.46-5.83,4.46C360.92,56,358.68,54,358.46,51.07Z" transform="translate(0 -3.85)"/><path class="cls-1" d="M382.25,55.55V53.93h-.09a4.43,4.43,0,0,1-4,2c-3.08,0-4.81-2-4.81-5V41.71H377v8.61c0,1.62.72,2.51,2.29,2.51,1.73,0,2.78-1.3,2.78-3.13v-8h3.67V55.55Z" transform="translate(0 -3.85)"/><path class="cls-1" d="M392.83,53.83h-.05v1.72h-3.54V36.25h3.67v7.13H393a4.34,4.34,0,0,1,3.86-2.05c3.48,0,6,3,6,7.31,0,4.48-2.38,7.32-5.86,7.32A4.62,4.62,0,0,1,392.83,53.83Zm6.26-5.19c0-2.56-1-4.34-3.07-4.34-2.33,0-3.19,1.86-3.19,4.42s1.27,4.16,3.32,4.16C398,52.88,399.09,51.31,399.09,48.64Z" transform="translate(0 -3.85)"/><path class="cls-1" d="M405.6,41.71h3.54v1.86h.08a4.53,4.53,0,0,1,4-2.24,4.11,4.11,0,0,1,3.83,2.43h.06a4.83,4.83,0,0,1,4.16-2.43c2.91,0,4.56,1.89,4.56,4.91v9.31h-3.67V46.86c0-1.56-.79-2.37-2.14-2.37-1.54,0-2.48,1.18-2.48,3v8h-3.67V46.86c0-1.56-.78-2.37-2.13-2.37s-2.49,1.18-2.49,3v8H405.6Z" transform="translate(0 -3.85)"/><path class="cls-1" d="M429.2,36.25h3.67v3.3H429.2Zm0,5.46h3.67V55.55H429.2Z" transform="translate(0 -3.85)"/><path class="cls-1" d="M435.46,51.07h3.41c.24,1.59,1.37,2.3,3,2.3s2.54-.62,2.54-1.6c0-1.32-1.76-1.45-3.65-1.83-2.48-.49-4.91-1.16-4.91-4.19s2.48-4.42,5.64-4.42c3.65,0,5.67,1.81,5.94,4.59h-3.32c-.16-1.49-1.11-2-2.67-2s-2.38.54-2.38,1.54c0,1.19,1.84,1.3,3.81,1.7,2.32.49,4.88,1.13,4.88,4.37,0,2.78-2.37,4.46-5.83,4.46C437.92,56,435.68,54,435.46,51.07Z" transform="translate(0 -3.85)"/><path class="cls-1" d="M449.64,51.07H453c.24,1.59,1.38,2.3,3,2.3s2.54-.62,2.54-1.6c0-1.32-1.75-1.45-3.64-1.83-2.49-.49-4.92-1.16-4.92-4.19s2.49-4.42,5.65-4.42c3.64,0,5.66,1.81,5.93,4.59H458.3c-.16-1.49-1.1-2-2.67-2s-2.37.54-2.37,1.54c0,1.19,1.83,1.3,3.8,1.7,2.32.49,4.89,1.13,4.89,4.37,0,2.78-2.38,4.46-5.83,4.46C452.1,56,449.86,54,449.64,51.07Z" transform="translate(0 -3.85)"/><path class="cls-1" d="M464.68,36.25h3.67v3.3h-3.67Zm0,5.46h3.67V55.55h-3.67Z" transform="translate(0 -3.85)"/><path class="cls-1" d="M471.13,48.64a7.24,7.24,0,1,1,14.47,0,7.24,7.24,0,1,1-14.47,0Zm10.74,0c0-2.7-1.26-4.53-3.5-4.53s-3.51,1.83-3.51,4.53,1.24,4.51,3.51,4.51S481.87,51.34,481.87,48.64Z" transform="translate(0 -3.85)"/><path class="cls-1" d="M492,43.59h.08a4.52,4.52,0,0,1,4.11-2.26c2.86,0,4.78,2.16,4.78,5.18v9h-3.68v-8.5a2.31,2.31,0,0,0-2.4-2.54,2.9,2.9,0,0,0-2.81,3.19v7.85h-3.67V41.71H492Z" transform="translate(0 -3.85)"/><path class="cls-1" d="M503.42,51.07h3.4c.25,1.59,1.38,2.3,3,2.3s2.53-.62,2.53-1.6c0-1.32-1.75-1.45-3.64-1.83-2.48-.49-4.91-1.16-4.91-4.19s2.48-4.42,5.64-4.42c3.64,0,5.67,1.81,5.94,4.59h-3.32c-.16-1.49-1.11-2-2.67-2s-2.38.54-2.38,1.54c0,1.19,1.84,1.3,3.81,1.7,2.32.49,4.88,1.13,4.88,4.37,0,2.78-2.37,4.46-5.83,4.46C505.88,56,503.64,54,503.42,51.07Z" transform="translate(0 -3.85)"/><path class="cls-1" d="M2.78,74.11H6.32V76H6.4a4.5,4.5,0,0,1,4-2.24,4.12,4.12,0,0,1,3.83,2.43h.06a4.82,4.82,0,0,1,4.15-2.43c2.92,0,4.57,1.89,4.57,4.91V88H19.35V79.26c0-1.56-.78-2.37-2.13-2.37-1.54,0-2.48,1.18-2.48,3v8H11.07V79.26c0-1.56-.79-2.37-2.14-2.37s-2.48,1.18-2.48,3v8H2.78Z" transform="translate(0 -3.85)"/><path class="cls-1" d="M35.12,88V86.33H35a4.43,4.43,0,0,1-4,2c-3.08,0-4.81-2-4.81-5V74.11h3.64v8.61c0,1.62.73,2.51,2.3,2.51,1.73,0,2.78-1.3,2.78-3.13v-8h3.67V88Z" transform="translate(0 -3.85)"/><path class="cls-1" d="M41.26,83.47h3.4c.24,1.59,1.37,2.3,3,2.3s2.54-.62,2.54-1.6c0-1.32-1.76-1.45-3.65-1.83-2.48-.49-4.91-1.16-4.91-4.19s2.48-4.42,5.64-4.42c3.65,0,5.67,1.81,5.94,4.59H49.92c-.16-1.49-1.11-2-2.67-2s-2.38.54-2.38,1.54c0,1.19,1.84,1.3,3.81,1.7,2.32.49,4.88,1.13,4.88,4.37,0,2.78-2.37,4.46-5.83,4.46C43.71,88.36,41.47,86.41,41.26,83.47Z" transform="translate(0 -3.85)"/><path class="cls-1" d="M55.21,74.11h1.92V69.79h3.59v4.32H63.1v2.42H60.72v7.35a1.21,1.21,0,0,0,1.38,1.37l1.08,0v2.7s-.84,0-2.3,0c-1.78,0-3.75-.7-3.75-3.32V76.53H55.21Z" transform="translate(0 -3.85)"/><path class="cls-1" d="M75.27,86.23h0V88H71.68V68.65h3.68v7.13h.08a4.32,4.32,0,0,1,3.86-2c3.48,0,6,3,6,7.31,0,4.48-2.37,7.32-5.86,7.32A4.62,4.62,0,0,1,75.27,86.23ZM81.54,81c0-2.56-1-4.34-3.08-4.34-2.32,0-3.19,1.86-3.19,4.42s1.27,4.16,3.32,4.16C80.48,85.28,81.54,83.71,81.54,81Z" transform="translate(0 -3.85)"/><path class="cls-1" d="M87.37,81c0-4.11,2.78-7.29,6.83-7.29,4.46,0,6.83,3.4,6.83,8.34H91c.27,2.13,1.46,3.45,3.54,3.45a2.58,2.58,0,0,0,2.67-1.7h3.61c-.51,2.46-2.69,4.54-6.26,4.54C90,88.36,87.37,85.15,87.37,81ZM91,79.53H97.2a2.93,2.93,0,0,0-2.94-3C92.31,76.56,91.37,77.72,91,79.53Z" transform="translate(0 -3.85)"/><path class="cls-1" d="M108.57,83.47H112c.24,1.59,1.37,2.3,3,2.3s2.54-.62,2.54-1.6c0-1.32-1.76-1.45-3.65-1.83-2.48-.49-4.91-1.16-4.91-4.19s2.48-4.42,5.64-4.42c3.65,0,5.67,1.81,5.94,4.59h-3.32c-.16-1.49-1.11-2-2.67-2s-2.38.54-2.38,1.54c0,1.19,1.84,1.3,3.81,1.7,2.32.49,4.89,1.13,4.89,4.37,0,2.78-2.38,4.46-5.84,4.46C111,88.36,108.78,86.41,108.57,83.47Z" transform="translate(0 -3.85)"/><path class="cls-1" d="M123.06,81c0-4.11,2.78-7.29,6.83-7.29,4.46,0,6.83,3.4,6.83,8.34h-10c.27,2.13,1.46,3.45,3.54,3.45a2.57,2.57,0,0,0,2.67-1.7h3.62c-.52,2.46-2.7,4.54-6.26,4.54C125.66,88.36,123.06,85.15,123.06,81Zm3.68-1.49h6.15a2.93,2.93,0,0,0-2.94-3C128,76.56,127.06,77.72,126.74,79.53Z" transform="translate(0 -3.85)"/><path class="cls-1" d="M143.1,76h.08a4.49,4.49,0,0,1,4.1-2.26c2.86,0,4.78,2.16,4.78,5.18v9h-3.67v-8.5a2.31,2.31,0,0,0-2.4-2.54,2.9,2.9,0,0,0-2.81,3.19V88h-3.67V74.11h3.59Z" transform="translate(0 -3.85)"/><path class="cls-1" d="M154.33,74.11h1.92V69.79h3.59v4.32h2.37v2.42h-2.37v7.35a1.21,1.21,0,0,0,1.37,1.37l1.08,0v2.7s-.83,0-2.29,0c-1.78,0-3.75-.7-3.75-3.32V76.53h-1.92Z" transform="translate(0 -3.85)"/><path class="cls-1" d="M170,74.11h1.92V69.79h3.59v4.32h2.37v2.42H175.5v7.35a1.21,1.21,0,0,0,1.37,1.37l1.08,0v2.7s-.83,0-2.29,0c-1.78,0-3.75-.7-3.75-3.32V76.53H170Z" transform="translate(0 -3.85)"/><path class="cls-1" d="M180,81a7.24,7.24,0,1,1,7.24,7.32A7,7,0,0,1,180,81Zm10.75,0c0-2.7-1.27-4.53-3.51-4.53s-3.51,1.83-3.51,4.53,1.24,4.51,3.51,4.51S190.78,83.74,190.78,81Z" transform="translate(0 -3.85)"/><path class="cls-1" d="M202.09,74.11H204V69.79h3.59v4.32H210v2.42H207.6v7.35A1.21,1.21,0,0,0,209,85.25l1.08,0v2.7s-.84,0-2.3,0c-1.78,0-3.75-.7-3.75-3.32V76.53h-1.92Z" transform="translate(0 -3.85)"/><path class="cls-1" d="M216.62,75.91h.08a4.42,4.42,0,0,1,4-2.18c2.86,0,4.78,2.16,4.78,5.18v9h-3.67v-8.5a2.31,2.31,0,0,0-2.4-2.54,2.9,2.9,0,0,0-2.81,3.19V88H213V68.65h3.67Z" transform="translate(0 -3.85)"/><path class="cls-1" d="M228.18,81c0-4.11,2.78-7.29,6.82-7.29,4.46,0,6.83,3.4,6.83,8.34h-10c.27,2.13,1.46,3.45,3.54,3.45a2.57,2.57,0,0,0,2.67-1.7h3.62c-.51,2.46-2.7,4.54-6.26,4.54C230.77,88.36,228.18,85.15,228.18,81Zm3.67-1.49H238a2.93,2.93,0,0,0-2.94-3C233.12,76.56,232.17,77.72,231.85,79.53Z" transform="translate(0 -3.85)"/><path class="cls-1" d="M259.6,86.39h-.05a4.24,4.24,0,0,1-3.78,2c-3.35,0-6-2.84-6-7.32,0-4.32,2.33-7.31,6-7.31a4.2,4.2,0,0,1,3.88,2.1h.09V74.11h3.53V92.49H259.6Zm.08-5.24c0-2.51-.89-4.51-3.1-4.51s-3.08,1.89-3.08,4.51,1.11,4.08,3.05,4.08S259.68,83.66,259.68,81.15Z" transform="translate(0 -3.85)"/><path class="cls-1" d="M275.48,88V86.33h-.08a4.46,4.46,0,0,1-4,2c-3.08,0-4.81-2-4.81-5V74.11h3.65v8.61c0,1.62.73,2.51,2.29,2.51,1.73,0,2.78-1.3,2.78-3.13v-8H279V88Z" transform="translate(0 -3.85)"/><path class="cls-1" d="M290.76,86.41h-.05c-.71,1.06-1.71,1.87-4.08,1.87-2.84,0-4.83-1.49-4.83-4.24,0-3.05,2.48-4,5.56-4.46,2.29-.32,3.35-.51,3.35-1.56s-.79-1.65-2.33-1.65c-1.72,0-2.56.62-2.67,1.95h-3.26c.1-2.43,1.91-4.57,6-4.57s5.83,1.87,5.83,5.11v7c0,1,.16,1.67.49,1.92V88h-3.54A3.69,3.69,0,0,1,290.76,86.41Zm0-3.34V81a10.36,10.36,0,0,1-2.57.81c-1.92.43-2.86.86-2.86,2.16s.86,1.75,2.16,1.75C289.62,85.71,290.79,84.42,290.79,83.07Z" transform="translate(0 -3.85)"/><path class="cls-1" d="M301.18,76.32h.08c.84-1.57,1.78-2.38,3.4-2.38a2.45,2.45,0,0,1,.87.11v3.21h-.08c-2.41-.24-4.13,1-4.13,3.94V88h-3.67V74.11h3.53Z" transform="translate(0 -3.85)"/><path class="cls-1" d="M316.08,86.41H316c-.7,1.06-1.7,1.87-4.07,1.87-2.84,0-4.84-1.49-4.84-4.24,0-3.05,2.49-4,5.56-4.46C315,79.26,316,79.07,316,78s-.78-1.65-2.32-1.65c-1.73,0-2.56.62-2.67,1.95h-3.27c.11-2.43,1.92-4.57,6-4.57s5.83,1.87,5.83,5.11v7c0,1,.16,1.67.48,1.92V88h-3.53A3.83,3.83,0,0,1,316.08,86.41Zm0-3.34V81a10.42,10.42,0,0,1-2.56.81c-1.92.43-2.86.86-2.86,2.16s.86,1.75,2.16,1.75C315,85.71,316.11,84.42,316.11,83.07Z" transform="translate(0 -3.85)"/><path class="cls-1" d="M326.56,76h.08a4.52,4.52,0,0,1,4.11-2.26c2.86,0,4.77,2.16,4.77,5.18v9h-3.67v-8.5a2.31,2.31,0,0,0-2.4-2.54,2.9,2.9,0,0,0-2.81,3.19V88H323V74.11h3.59Z" transform="translate(0 -3.85)"/><path class="cls-1" d="M338.42,85.15l7.12-8.08V77h-6.31V74.11h10.58v2.94l-7,7.88V85h7.32V88H338.42Z" transform="translate(0 -3.85)"/><path class="cls-1" d="M353.05,68.65h3.67V72h-3.67Zm0,5.46h3.67V88h-3.67Z" transform="translate(0 -3.85)"/><path class="cls-1" d="M363.77,76h.08a4.49,4.49,0,0,1,4.1-2.26c2.86,0,4.78,2.16,4.78,5.18v9h-3.67v-8.5a2.31,2.31,0,0,0-2.4-2.54,2.9,2.9,0,0,0-2.81,3.19V88h-3.67V74.11h3.59Z" transform="translate(0 -3.85)"/><path class="cls-1" d="M375.41,81c0-4.11,2.78-7.29,6.83-7.29,4.45,0,6.82,3.4,6.82,8.34H379c.27,2.13,1.46,3.45,3.54,3.45a2.57,2.57,0,0,0,2.67-1.7h3.62c-.51,2.46-2.7,4.54-6.26,4.54C378,88.36,375.41,85.15,375.41,81Zm3.67-1.49h6.15a2.93,2.93,0,0,0-2.94-3C380.35,76.56,379.4,77.72,379.08,79.53Z" transform="translate(0 -3.85)"/><path class="cls-1" d="M396.79,81c0-4.11,2.78-7.29,6.83-7.29,4.45,0,6.83,3.4,6.83,8.34h-10c.27,2.13,1.46,3.45,3.53,3.45a2.59,2.59,0,0,0,2.68-1.7h3.61c-.51,2.46-2.7,4.54-6.26,4.54C399.38,88.36,396.79,85.15,396.79,81Zm3.67-1.49h6.16a2.93,2.93,0,0,0-2.95-3C401.73,76.56,400.79,77.72,400.46,79.53Z" transform="translate(0 -3.85)"/><path class="cls-1" d="M413.23,74.11h3.54V76h.08a4.5,4.5,0,0,1,4-2.24,4.12,4.12,0,0,1,3.83,2.43h.06a4.82,4.82,0,0,1,4.15-2.43c2.92,0,4.57,1.89,4.57,4.91V88h-3.67V79.26c0-1.56-.79-2.37-2.14-2.37-1.54,0-2.48,1.18-2.48,3v8h-3.67V79.26c0-1.56-.78-2.37-2.13-2.37s-2.49,1.18-2.49,3v8h-3.67Z" transform="translate(0 -3.85)"/><path class="cls-1" d="M445.12,86.41h-.06c-.7,1.06-1.7,1.87-4.07,1.87-2.84,0-4.84-1.49-4.84-4.24,0-3.05,2.49-4,5.56-4.46,2.3-.32,3.35-.51,3.35-1.56s-.78-1.65-2.32-1.65c-1.73,0-2.56.62-2.67,1.95H436.8c.11-2.43,1.92-4.57,6-4.57s5.83,1.87,5.83,5.11v7c0,1,.16,1.67.48,1.92V88h-3.53A3.69,3.69,0,0,1,445.12,86.41Zm0-3.34V81a10.15,10.15,0,0,1-2.56.81c-1.92.43-2.86.86-2.86,2.16s.86,1.75,2.16,1.75C444,85.71,445.14,84.42,445.14,83.07Z" transform="translate(0 -3.85)"/><path class="cls-1" d="M452,68.65h3.67V72H452Zm0,5.46h3.67V88H452Z" transform="translate(0 -3.85)"/><path class="cls-1" d="M459.18,68.65h3.68V88h-3.68Z" transform="translate(0 -3.85)"/><path class="cls-1" d="M471.85,75.91h3.94v3.92h-3.94Zm0,8.13h3.94V88h-3.94Z" transform="translate(0 -3.85)"/><text class="cls-2" transform="translate(5.59 254.88) scale(1.09 1)">P R O S E / P O E T R Y<tspan x="0" y="115.2">P H O T O G R A P H Y</tspan><tspan x="0" y="230.4">A R T / G R A P H I C D E S I G N</tspan><tspan x="0" y="384">E D I T O R I A L</tspan></text><text class="cls-3" transform="translate(1.5 187.25)"><tspan class="cls-4">F</tspan><tspan x="30.63" y="0">orm</tspan><tspan class="cls-5" x="131.34" y="0">a</tspan><tspan x="160.54" y="0">t Guidelines</tspan></text><text class="cls-6" transform="translate(4.37 291.32)">Should<tspan class="cls-7" x="90.24" y="0"> </tspan><tspan x="97.35" y="0">be</tspan><tspan class="cls-8" x="129.48" y="0"> </tspan><tspan x="136.59" y="0">no</tspan><tspan class="cls-8" x="169.07" y="0"> </tspan><tspan class="cls-9" x="176.18" y="0">longer</tspan><tspan class="cls-8" x="258.42" y="0"> </tspan><tspan x="265.54" y="0">than</tspan><tspan class="cls-7" x="322.56" y="0"> </tspan><tspan x="329.67" y="0">3</tspan><tspan class="cls-8" x="346.06" y="0"> </tspan><tspan x="353.17" y="0">pages</tspan><tspan class="cls-7" x="430.99" y="0"> </tspan><tspan x="438.1" y="0">and</tspan><tspan class="cls-8" x="485.54" y="0"> </tspan><tspan x="492.65" y="0">in </tspan><tspan x="0" y="32.4">submi</tspan><tspan class="cls-10" x="77" y="32.4">t</tspan><tspan class="cls-11" x="86.78" y="32.4">t</tspan><tspan x="96.69" y="32.4">ed as a .pdf</tspan></text><text class="cls-6" transform="translate(3.52 404.12)">Submissions<tspan class="cls-12" x="163.38" y="0"> </tspan><tspan x="174.06" y="0">should</tspan><tspan class="cls-12" x="260.06" y="0"> </tspan><tspan x="270.74" y="0">be</tspan><tspan class="cls-12" x="302.87" y="0"> </tspan><tspan class="cls-13" x="313.56" y="0">s</tspan><tspan x="327.87" y="0">e</tspan><tspan class="cls-10" x="343.63" y="0">n</tspan><tspan x="359.27" y="0">t</tspan><tspan class="cls-12" x="369.31" y="0"> </tspan><tspan x="380" y="0">as</tspan><tspan class="cls-12" x="409.34" y="0"> </tspan><tspan x="420.03" y="0">a</tspan><tspan class="cls-12" x="435.2" y="0"> </tspan><tspan class="cls-14" x="445.89" y="0">.</tspan><tspan x="453.12" y="0">jpeg, </tspan><tspan x="0" y="32.4">.png, or .pdf</tspan></text><text class="cls-6" transform="translate(3.52 519.12)">Hand-D<tspan class="cls-15" x="96.36" y="0">r</tspan><tspan class="cls-16" x="106.51" y="0">a</tspan><tspan x="121.55" y="0">wn</tspan><tspan class="cls-17" x="158.65" y="0"> </tspan><tspan x="188.23" y="0">illu</tspan><tspan class="cls-10" x="225.57" y="0">s</tspan><tspan x="239.47" y="0">t</tspan><tspan class="cls-18" x="249.52" y="0">r</tspan><tspan class="cls-10" x="259.67" y="0">a</tspan><tspan x="274.57" y="0">tions</tspan><tspan class="cls-19" x="338.4" y="0"> </tspan><tspan x="367.98" y="0">should</tspan><tspan class="cls-19" x="453.97" y="0"> </tspan><tspan x="483.55" y="0">be </tspan><tspan class="cls-13"><tspan x="0" y="32.4">s</tspan><tspan class="cls-14" x="14.31" y="32.4">c</tspan><tspan class="cls-20" x="29.92" y="32.4">anned</tspan><tspan class="cls-21" x="109.02" y="32.4"> </tspan><tspan class="cls-20" x="115.96" y="32.4">and</tspan><tspan class="cls-21" x="163.4" y="32.4"> </tspan><tspan class="cls-20" x="170.33" y="32.4">submi</tspan><tspan class="cls-10" x="247.33" y="32.4">t</tspan><tspan class="cls-16" x="257.1" y="32.4">t</tspan><tspan class="cls-20" x="267.01" y="32.4">ed</tspan><tspan class="cls-21" x="299.14" y="32.4"> </tspan><tspan class="cls-20" x="306.08" y="32.4">as</tspan><tspan class="cls-22" x="335.42" y="32.4"> </tspan><tspan class="cls-14" x="342.35" y="32.4">.</tspan><tspan class="cls-20" x="349.59" y="32.4">jpeg,</tspan><tspan class="cls-21" x="412.15" y="32.4"> </tspan><tspan class="cls-20" x="419.08" y="32.4">.png.</tspan><tspan class="cls-21" x="481.61" y="32.4"> </tspan><tspan class="cls-20" x="488.54" y="32.4">or </tspan></tspan><tspan x="0" y="64.8">.pdf</tspan></text><text class="cls-6" transform="translate(5.52 675.36)">Submit as a .pdf</text></g></g></svg>