<svg xmlns="http://www.w3.org/2000/svg" viewBox="0 0 218.15 41.34"><defs><style>.cls-1{fill:#fff;}</style></defs><g id="Layer_2" data-name="Layer 2"><g id="Layer_1-2" data-name="Layer 1"><path class="cls-1" d="M0,27.75H11.88c.39,3.16,2.83,4.66,6.66,4.66,2.27,0,5.05-.89,5.05-3.27s-2.67-3-7.55-4.22C9.38,23.25,1.33,21,1.33,12.54,1.33,3.44,8.77,0,17.7,0c8.22,0,15.77,3.44,15.93,12.1H22.14c-.33-2.17-1.88-3.55-5.05-3.55-2.55,0-4.33,1.16-4.33,2.77,0,2.33,3.39,2.66,9.33,4.11C28.75,17,35.41,19.65,35.41,28.08c0,8.66-7.72,13.26-17.1,13.26C8,41.34.17,36.91,0,27.75Z"/><path class="cls-1" d="M39.4,25.25V.72H51v25.2c0,3.66,2,5.93,6.27,5.93,3.94,0,5.94-2.55,5.94-6.16V.72h11.6V25.25C74.81,35,69,41.12,57.1,41.12S39.4,35.18,39.4,25.25Z"/><path class="cls-1" d="M80.41.72H101c3.88,0,6.77.94,8.88,2.55a9.62,9.62,0,0,1,3.77,7.83,7.5,7.5,0,0,1-4.94,7.6v.17a9.62,9.62,0,0,1,6.83,9.54,11.06,11.06,0,0,1-4.55,9.49c-2.39,1.67-5.5,2.5-9.61,2.5H80.41ZM99,16.15c2.22,0,3.72-1.06,3.72-3.16S101.17,9.71,99,9.71H91.79v6.44Zm1.06,15.15c2.5,0,4.22-1.5,4.22-3.88,0-2.56-1.89-3.83-4.28-3.83H91.79V31.3Z"/><path class="cls-1" d="M119.54.72h15.09l6.11,22.2h.11L147,.72h15.21V40.4H151.67V15.54h-.11L145,40.4h-8.49l-6.6-24.86h-.11V40.4H119.54Z"/><path class="cls-1" d="M168,.72h11.6V40.4H168Z"/><path class="cls-1" d="M184,.72h34.19V10.6H206.77V40.4H195.18V10.6H184Z"/></g></g></svg>