<svg xmlns="http://www.w3.org/2000/svg" viewBox="0 0 416.98 24.02"><defs><style>.cls-1{fill:#4f9345;}</style></defs><g id="Layer_2" data-name="Layer 2"><g id="Layer_2-2" data-name="Layer 2"><path class="cls-1" d="M0,5.45H1.92V1.13H5.51V5.45H7.88V7.88H5.51v7.34A1.21,1.21,0,0,0,6.88,16.6c.46,0,1.08,0,1.08,0v2.7s-.83.06-2.29.06c-1.78,0-3.75-.71-3.75-3.32V7.88H0Z"/><path class="cls-1" d="M14.52,7.26h.09a4.4,4.4,0,0,1,4-2.19c2.86,0,4.78,2.16,4.78,5.19v9H19.73V10.8a2.3,2.3,0,0,0-2.4-2.54,2.9,2.9,0,0,0-2.81,3.18V19.3H10.85V0h3.67Z"/><path class="cls-1" d="M26.08,12.36c0-4.1,2.78-7.29,6.83-7.29,4.46,0,6.83,3.41,6.83,8.35h-10c.27,2.13,1.46,3.45,3.54,3.45a2.59,2.59,0,0,0,2.67-1.7h3.61c-.51,2.46-2.69,4.53-6.26,4.53C28.67,19.7,26.08,16.49,26.08,12.36Zm3.67-1.48h6.16a2.92,2.92,0,0,0-2.94-3C31,7.91,30.08,9.07,29.75,10.88Z"/><path class="cls-1" d="M51.89,17.73h0a4.22,4.22,0,0,1-3.78,2c-3.35,0-6-2.83-6-7.31,0-4.32,2.32-7.32,6-7.32A4.23,4.23,0,0,1,52,7.18H52V5.45h3.53V23.83H51.89ZM52,12.5C52,10,51.08,8,48.87,8s-3.08,1.89-3.08,4.51,1.11,4.07,3.05,4.07S52,15,52,12.5Z"/><path class="cls-1" d="M67.77,19.3V17.68h-.08a4.46,4.46,0,0,1-4,2c-3.08,0-4.81-2-4.81-5V5.45h3.65v8.61c0,1.62.73,2.51,2.29,2.51,1.73,0,2.78-1.29,2.78-3.13v-8H71.3V19.3Z"/><path class="cls-1" d="M83.05,17.76h0c-.71,1-1.71,1.86-4.08,1.86-2.83,0-4.83-1.48-4.83-4.23,0-3.05,2.48-4,5.56-4.46,2.29-.32,3.35-.51,3.35-1.56s-.79-1.65-2.33-1.65c-1.72,0-2.56.62-2.67,1.94H74.74c.1-2.43,1.91-4.56,6-4.56S86.53,7,86.53,10.2v7.05c0,1.05.16,1.67.49,1.92v.13H83.48A3.85,3.85,0,0,1,83.05,17.76Zm0-3.35V12.34a10.8,10.8,0,0,1-2.57.81c-1.91.43-2.86.86-2.86,2.15s.86,1.76,2.16,1.76C81.92,17.06,83.08,15.76,83.08,14.41Z"/><path class="cls-1" d="M93.47,7.67h.08C94.39,6.1,95.33,5.29,97,5.29a2.42,2.42,0,0,1,.86.11V8.61h-.08c-2.41-.24-4.13,1-4.13,3.94V19.3H89.94V5.45h3.53Z"/><path class="cls-1" d="M108.37,17.76h-.05c-.7,1-1.7,1.86-4.08,1.86-2.83,0-4.83-1.48-4.83-4.23,0-3.05,2.49-4,5.56-4.46,2.3-.32,3.35-.51,3.35-1.56s-.78-1.65-2.32-1.65c-1.73,0-2.57.62-2.67,1.94h-3.27c.11-2.43,1.92-4.56,6-4.56s5.83,1.86,5.83,5.1v7.05c0,1.05.16,1.67.48,1.92v.13h-3.53A3.83,3.83,0,0,1,108.37,17.76Zm0-3.35V12.34a10.86,10.86,0,0,1-2.56.81c-1.92.43-2.86.86-2.86,2.15s.86,1.76,2.15,1.76C107.24,17.06,108.4,15.76,108.4,14.41Z"/><path class="cls-1" d="M118.85,7.34h.08A4.53,4.53,0,0,1,123,5.07c2.86,0,4.77,2.16,4.77,5.19v9h-3.67V10.8a2.3,2.3,0,0,0-2.4-2.54,2.9,2.9,0,0,0-2.81,3.18V19.3h-3.67V5.45h3.59Z"/><path class="cls-1" d="M130.71,16.49l7.12-8.07V8.34h-6.31V5.45H142.1V8.39l-7,7.89v.08h7.32V19.3H130.71Z"/><path class="cls-1" d="M145.34,0H149V3.29h-3.67Zm0,5.45H149V19.3h-3.67Z"/><path class="cls-1" d="M156.06,7.34h.08a4.5,4.5,0,0,1,4.1-2.27c2.86,0,4.78,2.16,4.78,5.19v9h-3.67V10.8A2.31,2.31,0,0,0,159,8.26a2.9,2.9,0,0,0-2.81,3.18V19.3h-3.67V5.45h3.59Z"/><path class="cls-1" d="M167.7,12.36c0-4.1,2.78-7.29,6.82-7.29,4.46,0,6.83,3.41,6.83,8.35h-10c.27,2.13,1.46,3.45,3.54,3.45a2.58,2.58,0,0,0,2.67-1.7h3.62c-.52,2.46-2.7,4.53-6.26,4.53C170.29,19.7,167.7,16.49,167.7,12.36Zm3.67-1.48h6.15a2.92,2.92,0,0,0-2.94-3C172.63,7.91,171.69,9.07,171.37,10.88Z"/><path class="cls-1" d="M184.19,0h3.67V19.3h-3.67Z"/><path class="cls-1" d="M191.37,0H195V3.29h-3.67Zm0,5.45H195V19.3h-3.67Z"/><path class="cls-1" d="M197.69,5.45h1.92V1.13h3.59V5.45h2.37V7.88H203.2v7.34a1.22,1.22,0,0,0,1.38,1.38c.45,0,1.08,0,1.08,0v2.7s-.84.06-2.3.06c-1.78,0-3.75-.71-3.75-3.32V7.88h-1.92Z"/><path class="cls-1" d="M208.55,5.45h3.53V7.31h.08a4.55,4.55,0,0,1,4-2.24A4.15,4.15,0,0,1,220,7.5h0a4.84,4.84,0,0,1,4.16-2.43c2.91,0,4.56,1.89,4.56,4.92V19.3h-3.67V10.61c0-1.57-.78-2.38-2.13-2.38-1.54,0-2.49,1.19-2.49,3v8h-3.67V10.61c0-1.57-.78-2.38-2.13-2.38s-2.48,1.19-2.48,3v8h-3.67Z"/><path class="cls-1" d="M240.43,17.76h-.05c-.71,1-1.7,1.86-4.08,1.86-2.83,0-4.83-1.48-4.83-4.23,0-3.05,2.48-4,5.56-4.46,2.29-.32,3.35-.51,3.35-1.56s-.79-1.65-2.33-1.65c-1.72,0-2.56.62-2.67,1.94h-3.26c.1-2.43,1.91-4.56,6-4.56s5.83,1.86,5.83,5.1v7.05c0,1.05.16,1.67.49,1.92v.13h-3.54A3.85,3.85,0,0,1,240.43,17.76Zm0-3.35V12.34a10.8,10.8,0,0,1-2.57.81C236,13.58,235,14,235,15.3s.87,1.76,2.16,1.76C239.3,17.06,240.46,15.76,240.46,14.41Z"/><path class="cls-1" d="M246.94,19.7h3.64c.3.87,1.08,1.54,2.78,1.54,2.08,0,3.08-1,3.08-2.89V16.84h-.08a4.47,4.47,0,0,1-3.62,1.62,6.23,6.23,0,0,1-6.1-6.61c0-4.13,2.49-6.78,6-6.78a4.48,4.48,0,0,1,3.84,1.84h0V5.45h3.54v12.8a5.37,5.37,0,0,1-1.65,4.21,7.23,7.23,0,0,1-5,1.56C249.64,24,247.32,22.4,246.94,19.7Zm9.69-7.93c0-2-1.08-3.75-3.29-3.75-1.87,0-3.11,1.45-3.11,3.78s1.24,3.72,3.13,3.72C255.69,15.52,256.63,13.82,256.63,11.77Z"/><path class="cls-1" d="M268.48,11.9c0-3.88,2.14-6.61,5.38-6.61a3.11,3.11,0,0,1,3.1,2H277l.19-1.7h3.38L279.66,13c-.19,1.38.08,2.16,1.16,2.16,1.24,0,2.62-1.43,2.62-5,0-5.38-3.54-8-8.56-8s-9.18,3.5-9.18,9.52c0,4.94,3,8.59,8.51,8.59a12.43,12.43,0,0,0,4.88-1l.76,1.78a12.45,12.45,0,0,1-5.59,1.24c-6.37,0-11-4.21-11-10.61C263.3,4.18,269,0,274.91,0c5.72,0,10.77,3.48,10.77,10,0,4.4-1.92,7.13-5.13,7.13-1.92,0-3.27-.7-3.81-2.13h-.08A4.09,4.09,0,0,1,273,17.19C270.21,17.19,268.48,15.12,268.48,11.9Zm8.16-1.29c0-1.57-.68-2.73-2.06-2.73-1.67,0-2.59,1.76-2.59,3.94,0,1.54.6,2.76,1.95,2.76C275.64,14.58,276.64,12.9,276.64,10.61Z"/><path class="cls-1" d="M288.68,19.7h3.64c.3.87,1.08,1.54,2.78,1.54,2.08,0,3.08-1,3.08-2.89V16.84h-.08a4.47,4.47,0,0,1-3.62,1.62,6.23,6.23,0,0,1-6.1-6.61c0-4.13,2.49-6.78,6-6.78a4.48,4.48,0,0,1,3.83,1.84h.05V5.45h3.54v12.8a5.37,5.37,0,0,1-1.65,4.21,7.23,7.23,0,0,1-5,1.56C291.38,24,289.06,22.4,288.68,19.7Zm9.69-7.93c0-2-1.08-3.75-3.29-3.75C293.21,8,292,9.47,292,11.8s1.24,3.72,3.13,3.72C297.43,15.52,298.37,13.82,298.37,11.77Z"/><path class="cls-1" d="M305.26,5.45h3.53V7.31h.09a4.52,4.52,0,0,1,4-2.24,4.15,4.15,0,0,1,3.83,2.43h0a4.85,4.85,0,0,1,4.16-2.43c2.92,0,4.56,1.89,4.56,4.92V19.3h-3.67V10.61c0-1.57-.78-2.38-2.13-2.38-1.54,0-2.48,1.19-2.48,3v8h-3.68V10.61c0-1.57-.78-2.38-2.13-2.38s-2.48,1.19-2.48,3v8h-3.67Z"/><path class="cls-1" d="M337.14,17.76h-.05c-.7,1-1.7,1.86-4.08,1.86-2.83,0-4.83-1.48-4.83-4.23,0-3.05,2.48-4,5.56-4.46,2.3-.32,3.35-.51,3.35-1.56s-.78-1.65-2.32-1.65c-1.73,0-2.57.62-2.68,1.94h-3.26c.11-2.43,1.92-4.56,6-4.56s5.83,1.86,5.83,5.1v7.05c0,1.05.17,1.67.49,1.92v.13h-3.54A3.85,3.85,0,0,1,337.14,17.76Zm0-3.35V12.34a10.86,10.86,0,0,1-2.56.81c-1.92.43-2.87.86-2.87,2.15s.87,1.76,2.16,1.76C336,17.06,337.17,15.76,337.17,14.41Z"/><path class="cls-1" d="M344,0h3.67V3.29H344Zm0,5.45h3.67V19.3H344Z"/><path class="cls-1" d="M351.21,0h3.67V19.3h-3.67Z"/><path class="cls-1" d="M358.18,15.39h3.94V19.3h-3.94Z"/><path class="cls-1" d="M364.15,12.39c0-4.13,2.69-7.32,6.91-7.32,3.59,0,5.8,2.08,6.28,5.08h-3.59A2.52,2.52,0,0,0,371.22,8c-2.22,0-3.35,1.7-3.35,4.37s1.05,4.37,3.29,4.37a2.58,2.58,0,0,0,2.78-2.35h3.54c-.24,2.95-2.54,5.29-6.23,5.29C366.87,19.7,364.15,16.52,364.15,12.39Z"/><path class="cls-1" d="M379.48,12.39a7.24,7.24,0,1,1,14.47,0,7.24,7.24,0,1,1-14.47,0Zm10.74,0c0-2.7-1.26-4.54-3.5-4.54s-3.51,1.84-3.51,4.54,1.24,4.51,3.51,4.51S390.22,15.09,390.22,12.39Z"/><path class="cls-1" d="M396.73,5.45h3.54V7.31h.08a4.55,4.55,0,0,1,4-2.24,4.15,4.15,0,0,1,3.84,2.43h.05a4.84,4.84,0,0,1,4.16-2.43C415.33,5.07,417,7,417,10V19.3h-3.67V10.61c0-1.57-.78-2.38-2.13-2.38-1.54,0-2.49,1.19-2.49,3v8H405V10.61c0-1.57-.78-2.38-2.13-2.38s-2.48,1.19-2.48,3v8h-3.68Z"/></g></g></svg>