<svg xmlns="http://www.w3.org/2000/svg" viewBox="0 0 222.19 45.34"><defs><style>.cls-1{fill:none;stroke:#fff;stroke-miterlimit:10;stroke-width:4px;}</style></defs><g id="Layer_2" data-name="Layer 2"><g id="Layer_1-2" data-name="Layer 1"><path class="cls-1" d="M2,29.75H13.91c.39,3.16,2.83,4.66,6.66,4.66,2.28,0,5.05-.89,5.05-3.27s-2.66-3-7.54-4.22C11.42,25.25,3.37,23,3.37,14.54,3.37,5.44,10.81,2,19.74,2,28,2,35.5,5.44,35.67,14.1H24.18c-.33-2.17-1.89-3.55-5.05-3.55-2.55,0-4.33,1.16-4.33,2.77,0,2.33,3.39,2.66,9.33,4.11C30.78,19,37.44,21.65,37.44,30.08c0,8.66-7.71,13.26-17.09,13.26C10,43.34,2.2,38.91,2,29.75Z"/><path class="cls-1" d="M41.44,27.25V2.72H53v25.2c0,3.66,2,5.93,6.27,5.93,3.94,0,5.94-2.55,5.94-6.16v-25H76.84V27.25c0,9.77-5.82,15.87-17.7,15.87S41.44,37.18,41.44,27.25Z"/><path class="cls-1" d="M82.45,2.72H103c3.89,0,6.77.94,8.88,2.55a9.6,9.6,0,0,1,3.78,7.83,7.5,7.5,0,0,1-4.94,7.6v.17a9.61,9.61,0,0,1,6.82,9.54A11.06,11.06,0,0,1,113,39.9c-2.38,1.67-5.49,2.5-9.6,2.5H82.45ZM101,18.15c2.22,0,3.72-1.06,3.72-3.16s-1.56-3.28-3.78-3.28H93.83v6.44Zm1,15.15c2.5,0,4.22-1.5,4.22-3.88,0-2.56-1.88-3.83-4.27-3.83H93.83V33.3Z"/><path class="cls-1" d="M121.57,2.72h15.1l6.1,22.2h.11L149,2.72h15.2V42.4H153.7V17.54h-.11L147,42.4H138.5l-6.61-24.86h-.11V42.4H121.57Z"/><path class="cls-1" d="M170.08,2.72h11.59V42.4H170.08Z"/><path class="cls-1" d="M186,2.72h34.19V12.6H208.81V42.4h-11.6V12.6H186Z"/></g></g></svg>