<svg xmlns="http://www.w3.org/2000/svg" viewBox="0 0 137.34 28.42"><defs><style>.cls-1{fill:#fff;}</style></defs><g id="Layer_2" data-name="Layer 2"><g id="Layer_1-2" data-name="Layer 1"><path class="cls-1" d="M0,19.37H5.33C5.14,22.84,7.69,24,11.25,24c2.71,0,5.23-1,5.23-3.55,0-1.91-1.3-2.75-5.92-4.44-4.85-1.75-7.72-3.43-7.72-7.71,0-5.23,4-8.29,10-8.29C18.39,0,23.24,2.37,23,8.52H17.74c.11-2.68-1.72-4.17-5.12-4.17-2,0-4.54.77-4.58,3.21,0,1.84,1.22,2.37,5.54,3.86,5.42,1.87,8.32,3.94,8.32,8.29,0,5.77-4.58,8.71-10.81,8.71S-.33,25.67,0,19.37Z"/><path class="cls-1" d="M24.69,18.22,28.13.5h5.46L30.08,18.64c-.65,3.25.57,5.23,4.39,5.23,3.44,0,4.93-1.91,5.46-4.54L43.56.5H49L45.24,19.83c-1.07,5.42-4.62,8.44-10.88,8.44C27.63,28.27,23.39,25,24.69,18.22Z"/><path class="cls-1" d="M52.88.5h11A8.85,8.85,0,0,1,69.5,2.18,6,6,0,0,1,71.64,7.1c0,3.21-1.84,5.47-5,6.38v.12a5.29,5.29,0,0,1,4.2,5.69A7.64,7.64,0,0,1,68.28,25c-1.88,1.8-4.36,2.79-8.06,2.79H47.61ZM54,23.26h6.3c3,0,5-1.33,5-4.2,0-2.33-1.57-3.48-3.86-3.48h-6ZM61.9,11.54c2.25,0,4.43-.73,4.43-3.71,0-1.72-1-2.86-3.21-2.86H57.5l-1.26,6.57Z"/><path class="cls-1" d="M77.33.5h7.6L86,14c.31,3.82.35,7.76.35,7.76h0s1.23-3.67,2.79-7.07L95.7.5h7.87L98.3,27.81H93.22l3-15.66c.46-2.37,1.33-5.73,1.33-5.73H97.5s-1.19,2.94-2.26,5.23L87.72,27.81h-5.2L81.23,11.69c-.16-2-.2-5.27-.2-5.27H81s-.46,3.51-.88,5.73l-3,15.66h-5Z"/><path class="cls-1" d="M108,.5h5.47l-5.27,27.31h-5.47Z"/><path class="cls-1" d="M116.1.5h21.24l-.88,4.62h-7.91l-4.39,22.69H118.7l4.39-22.69h-7.87Z"/></g></g></svg>