<svg xmlns="http://www.w3.org/2000/svg" viewBox="0 0 139.55 30.42"><defs><style>.cls-1{fill:none;stroke:#fff;stroke-miterlimit:10;stroke-width:2px;}</style></defs><g id="Layer_2" data-name="Layer 2"><g id="Layer_1-2" data-name="Layer 1"><path class="cls-1" d="M1,20.37H6.33C6.14,23.84,8.69,25,12.25,25c2.71,0,5.23-1,5.23-3.55,0-1.91-1.3-2.75-5.92-4.44-4.85-1.75-7.72-3.43-7.72-7.71,0-5.23,4-8.29,10-8.29C19.39,1,24.24,3.37,24,9.52H18.74c.11-2.68-1.72-4.17-5.12-4.17-2,0-4.54.77-4.58,3.21,0,1.84,1.22,2.37,5.54,3.86,5.42,1.87,8.32,3.94,8.32,8.29,0,5.77-4.58,8.71-10.81,8.71S.67,26.67,1,20.37Z"/><path class="cls-1" d="M25.69,19.22,29.13,1.5h5.46L31.08,19.64c-.65,3.25.57,5.23,4.39,5.23,3.44,0,4.93-1.91,5.46-4.54L44.56,1.5H50L46.24,20.83c-1.07,5.42-4.62,8.44-10.88,8.44C28.63,29.27,24.39,26,25.69,19.22Z"/><path class="cls-1" d="M53.88,1.5h11A8.85,8.85,0,0,1,70.5,3.18,6,6,0,0,1,72.64,8.1c0,3.21-1.84,5.47-5,6.38v.12a5.29,5.29,0,0,1,4.2,5.69A7.64,7.64,0,0,1,69.28,26c-1.88,1.8-4.36,2.79-8.06,2.79H48.61ZM55,24.26h6.3c3,0,5-1.33,5-4.2,0-2.33-1.57-3.48-3.86-3.48h-6ZM62.9,12.54c2.25,0,4.43-.73,4.43-3.71,0-1.72-1-2.86-3.21-2.86H58.5l-1.26,6.57Z"/><path class="cls-1" d="M78.33,1.5h7.6L87,15c.31,3.82.35,7.76.35,7.76h0s1.23-3.67,2.79-7.07L96.7,1.5h7.87L99.3,28.81H94.22l3-15.66c.46-2.37,1.33-5.73,1.33-5.73H98.5s-1.19,2.94-2.26,5.23L88.72,28.81h-5.2L82.23,12.69c-.16-2-.2-5.27-.2-5.27H82s-.46,3.51-.88,5.73l-3,15.66h-5Z"/><path class="cls-1" d="M109,1.5h5.47l-5.27,27.31h-5.47Z"/><path class="cls-1" d="M117.1,1.5h21.24l-.88,4.62h-7.91l-4.39,22.69H119.7l4.39-22.69h-7.87Z"/></g></g></svg>