<svg xmlns="http://www.w3.org/2000/svg" viewBox="0 0 60.16 45.48"><defs><style>.cls-1{fill:#fff;}</style></defs><g id="Layer_2" data-name="Layer 2"><g id="Layer_1-2" data-name="Layer 1"><path class="cls-1" d="M49.66,0H10.5A10.78,10.78,0,0,0,0,11V34.47a10.78,10.78,0,0,0,10.5,11H49.66a10.78,10.78,0,0,0,10.5-11V11A10.78,10.78,0,0,0,49.66,0Zm6.2,34.47a6.36,6.36,0,0,1-6.2,6.5H10.5a6.36,6.36,0,0,1-6.2-6.5V11a6.36,6.36,0,0,1,6.2-6.5H49.66a6.36,6.36,0,0,1,6.2,6.5V34.47Z"/><path class="cls-1" d="M41.63,20.86l-16-11a2.08,2.08,0,0,0-2.21-.11,2.3,2.3,0,0,0-1.13,2v22a2.3,2.3,0,0,0,1.13,2,2.1,2.1,0,0,0,1,.27,2.08,2.08,0,0,0,1.19-.38l16-11a2.31,2.31,0,0,0,0-3.76Zm-15,8.71V15.91l9.89,6.83Z"/></g></g></svg>