<svg xmlns="http://www.w3.org/2000/svg" viewBox="0 0 753.55 126"><defs><style>.cls-1{fill:#ffe9d2;}</style></defs><g id="Layer_2" data-name="Layer 2"><g id="Layer_1-2" data-name="Layer 1"><circle class="cls-1" cx="63" cy="63" r="62.5"/><path d="M63,7.5a62,62,0,1,1-62,62,62.07,62.07,0,0,1,62-62m0-1a63,63,0,1,0,63,63,63,63,0,0,0-63-63Z" transform="translate(0 -6.5)"/><path d="M54,79.41c4.25,0,7.31-2,11.22-6.89L66,74.73c-3.65,6.55-8,9.35-13.85,9.35-10.38,0-17.35-8.5-17.35-20.82,0-12.92,7.65-21.68,17.77-21.68,4.76,0,9.35,2,13.77,8.59l-.85,2.21c-4.93-4.76-8.33-6.12-11.56-6.12-6.38,0-11.9,5.18-11.9,16.83C42,74.39,47.14,79.41,54,79.41Zm14.45,19.3,9.6,1.7v3H56.32v-3l10.46-1.7Zm2.72,4.67H64.14c.17-5.95.26-12.07.26-18v-8.5l-.26-1.19v-28l5.78-6.12,1.28.85-.26,11.48V85.36C70.94,91.31,71,97.43,71.2,103.38Z" transform="translate(0 -6.5)"/><path d="M86.58,78.13a6,6,0,1,1,6,6A6,6,0,0,1,86.58,78.13Z" transform="translate(0 -6.5)"/><path d="M154,18.27,157.86,14l-2.72,15.13h-4.76L151.06,14h46.41l.68,15.13h-4.76L190.67,14l3.83,4.25Zm21.08,48L187,67.58V71H161.51v-3.4l11.9-1.28Zm-4.67-25.93c0-8.75,0-17.59-.26-26.35h8.16c-.25,8.59-.25,17.43-.25,26.35v4.25c0,8.76,0,17.6.25,26.36h-8.16c.26-8.59.26-17.43.26-26.36Z" transform="translate(0 -6.5)"/><path d="M209,15.72,202,14.87v-3l12.75-3.83,1.19.68-.34,12.07v18l.26,1.11V53.12c0,5.27.08,14,.25,17.86h-7.31c.17-3.83.26-12.59.26-17.86ZM222,68v3H202.4V68l9.35-1.7h1.7ZM242,45.3v7.82c0,5.44.08,14,.25,17.86H235c.17-3.83.26-12.42.26-17.86V46c0-7.9-2-10.45-7.14-10.45-4.25,0-7.74,1.53-12.58,5.86H213.7V37.57H218l-3.83,1.53c4-5.36,11-9.52,17-9.52C238.52,29.58,242,34.08,242,45.3Zm-2.3,21,8.5,1.7v3H228.66V68L238,66.3Z" transform="translate(0 -6.5)"/><path d="M289.86,45.81a17.11,17.11,0,0,1-.59,4.76H257.9V47h20.23c4.08,0,5-2,5-4.33a9.44,9.44,0,0,0-9.44-9.27C268.27,33.4,262,38,262,50.15c0,10.79,5.44,16.58,13.94,16.58,5.44,0,8.84-2.47,11.9-6l2,1.53a17.27,17.27,0,0,1-16.24,9.86c-11.39,0-18.78-7.91-18.78-20.83s8.84-21.67,19.38-21.67C282.89,29.58,289.86,35.53,289.86,45.81Z" transform="translate(0 -6.5)"/><path d="M370,42.5c0,18.62-12.75,29.75-25.93,29.75s-26-10.37-26-29.75c0-18.62,12.92-29.75,26-29.75S370,23.12,370,42.5ZM344.09,68c12,0,17-12.75,17-25.5s-5-25.5-17-25.5S327,29.75,327,42.5,332.11,68,344.09,68Zm-4.25,3.49V68.34l7.65,1.28c-.59,9.69,4.08,15.13,11.9,15.13a24.88,24.88,0,0,0,6.63-1l.94,3a20.45,20.45,0,0,1-10.46,2.72C345.79,89.42,339.84,81,339.84,71.49Z" transform="translate(0 -6.5)"/><path d="M388.88,55.93c0,7.57,2.21,10.2,6.89,10.2,4.33,0,8.76-2.13,13-6.38h1.78v4.34h-4.33l3-1.27c-4.85,6.54-10.63,9.26-16.15,9.26-6.8,0-11.05-4.08-11-15.3l.26-22.44L384.12,36l-7.9-1.7v-3l12.24-1.11.85.85-.43,11.9Zm20.24,15.73-1.19-9.95.25-27.37L410,36l-7.91-1.7v-3l12.07-1.11L415,31l-.25,11.9V68.34l-2-2,7.9,1.7v3Z" transform="translate(0 -6.5)"/><path d="M441.41,48.7a94.16,94.16,0,0,1,13.18-3.57v3.06a77.46,77.46,0,0,0-11.39,3.4c-7.65,3-8.5,6.21-8.5,8.67,0,4.51,3,6.3,6.88,6.3,3,0,4.68-1.11,10-4.93l1.7-1.28,1.19,1.78L452,64.6c-5.1,5.1-8,7.48-13.18,7.48-6.2,0-11.39-3.57-11.39-10.62C427.47,56.69,430,52.87,441.41,48.7Zm9.78,14.46V43.77c0-8.33-2.38-10.37-8-10.37a19.84,19.84,0,0,0-7.65,1.53L439,32.3l-2.21,7.31c-.77,2.46-2,3.82-4.34,3.82a3.47,3.47,0,0,1-3.82-3.4c1.61-6.46,7.9-10.45,16.4-10.45,8.76,0,13,4,13,14.7v18c0,3.83,1.19,5.19,3.14,5.19a4.2,4.2,0,0,0,3.32-1.87l1.7,1.87c-2,3.23-4.34,4.34-7.23,4.34C454.25,71.83,451.19,68.43,451.19,63.16Z" transform="translate(0 -6.5)"/><path d="M476.35,53.12v-4c0-4.68-.09-7.31-.26-10.71l-6.8-.77v-3l11.56-5.1,1.28.85,1,10.62V53.12c0,5.27.08,14,.25,17.86h-7.31C476.26,67.15,476.35,58.39,476.35,53.12ZM470,68l9.35-1.7H481l9.35,1.7v3H470Zm9.78-26.35h4.84l-2.12.59c2.72-7.9,7.9-12.66,12.92-12.66,2.46,0,5,1.19,6,2.89,0,4-1.53,6.2-4.93,6.2a7.73,7.73,0,0,1-5.1-2l-2.29-2,4.16-.85c-5.27,2.72-8.33,7-10.28,13.51h-3.23Z" transform="translate(0 -6.5)"/><path d="M519,48.7a94,94,0,0,1,13.17-3.57v3.06a77.83,77.83,0,0,0-11.39,3.4c-7.65,3-8.5,6.21-8.5,8.67,0,4.51,3,6.3,6.89,6.3,3,0,4.67-1.11,10-4.93l1.7-1.28,1.19,1.78-2.47,2.47c-5.1,5.1-8,7.48-13.17,7.48-6.21,0-11.39-3.57-11.39-10.62C505.08,56.69,507.63,52.87,519,48.7Zm9.77,14.46V43.77c0-8.33-2.38-10.37-8-10.37a19.91,19.91,0,0,0-7.65,1.53l3.4-2.63-2.21,7.31c-.76,2.46-2,3.82-4.33,3.82a3.47,3.47,0,0,1-3.83-3.4c1.62-6.46,7.91-10.45,16.41-10.45,8.75,0,13,4,13,14.7v18c0,3.83,1.19,5.19,3.14,5.19a4.2,4.2,0,0,0,3.32-1.87l1.7,1.87c-2,3.23-4.34,4.34-7.23,4.34C531.85,71.83,528.79,68.43,528.79,63.16Z" transform="translate(0 -6.5)"/><path d="M553.7,71c.17-3.83.25-12.59.25-17.86v-4c0-4.68-.08-7.31-.25-10.71l-6.8-.77v-3l11.56-5.1,1.27.85,1,9.86V53.12c0,5.27.09,14,.26,17.86ZM567,68v3H547.41V68l9.35-1.7h1.7ZM586.6,45.3v7.82c0,5.44.08,14,.25,17.86h-7.31c.17-3.83.26-12.42.26-17.86V46c0-7.9-2-10.45-7.14-10.45-4.26,0-7.74,1.7-12.59,5.86h-1.78V37.57h4.33L559,39.1c4-5.36,10.79-9.52,16.83-9.52C583.11,29.58,586.6,34.08,586.6,45.3Zm-2.3,21,8.5,1.7v3H573.25V68l9.35-1.7Z" transform="translate(0 -6.5)"/><path d="M630.62,30.68v3L603.59,71V67.41H628L624.25,71l3.4-13.86h4.25L631.05,71H597.9V68L625,30.68v3.57H602.74l3.06-3.57-3.14,13-4.25-.34.68-12.67Z" transform="translate(0 -6.5)"/><path d="M643.46,71c.17-3.83.25-12.59.25-17.86v-4c0-4.68-.08-7.31-.25-10.71l-7-.77v-3l12.83-5.1,1.28.85-.26,11.47V53.12c0,5.27.09,14,.26,17.86Zm13.09-3v3H637V68l9.35-1.7h1.7ZM641.33,14.62A5.62,5.62,0,1,1,646.94,20,5.3,5.3,0,0,1,641.33,14.62Z" transform="translate(0 -6.5)"/><path d="M669,71c.17-3.83.26-12.59.26-17.86v-4c0-4.68-.09-7.31-.26-10.71l-6.8-.77v-3l11.56-5.1,1.28.85,1,9.86V53.12c0,5.27.08,14,.25,17.86Zm13.26-3v3H662.75V68l9.35-1.7h1.7Zm19.64-22.7v7.82c0,5.44.08,14,.25,17.86h-7.31c.17-3.83.26-12.42.26-17.86V46c0-7.9-2-10.45-7.14-10.45-4.25,0-7.74,1.7-12.58,5.86h-1.79V37.57H678l-3.66,1.53c4-5.36,10.8-9.52,16.83-9.52C698.45,29.58,701.94,34.08,701.94,45.3Zm-2.3,21,8.5,1.7v3H688.59V68l9.35-1.7Z" transform="translate(0 -6.5)"/><path d="M749.71,45.81a17.06,17.06,0,0,1-.6,4.76H717.75V47H738c4.08,0,5-2,5-4.33a9.43,9.43,0,0,0-9.43-9.27c-5.44,0-11.73,4.59-11.73,16.75,0,10.79,5.44,16.58,13.94,16.58,5.44,0,8.84-2.47,11.9-6l2,1.53a17.27,17.27,0,0,1-16.23,9.86c-11.39,0-18.79-7.91-18.79-20.83S723.44,29.58,734,29.58C742.74,29.58,749.71,35.53,749.71,45.81Z" transform="translate(0 -6.5)"/><path d="M157.34,118.34l4.6-.55h.92l5.06.55v1.48H157.34ZM171.05,95h2.76l10.58,24.85h-4.27l-9.25-22h1.06l-9.39,22h-2.16Zm-5.38,15.09h12.42l.74,1.69h-13.9Zm9.06,8.28,5.8-.55h.92l5.7.55v1.48H174.73Z" transform="translate(0 -6.5)"/><path d="M216.27,114c0-2.4-1.79-3.46-5.8-4.71l-1.74-.56c-4.7-1.47-7.92-3.6-7.92-7.36,0-4.23,4.46-6.81,10.31-6.81a14.3,14.3,0,0,1,7.5,2l-.28,4.78h-2.76l-1.29-5.56,3,1.22v1.84a9.35,9.35,0,0,0-6.4-2.4c-3.59,0-6.3,1.44-6.3,4.2,0,2.32,1.88,3.68,5.24,4.71l1.8.55c6.07,1.88,8.42,4,8.42,7.48,0,4.34-4.56,7-10.86,7a21.2,21.2,0,0,1-8.93-2l.28-5.16h2.76l1.2,5.67-3-1v-1.77c2.85,1.66,4.41,2.4,7.54,2.4C213.37,118.53,216.27,116.91,216.27,114Z" transform="translate(0 -6.5)"/><path d="M224.27,97l2.07-1.84-1.47,6.55h-2.58l.37-6.55h25.12l.37,6.55h-2.58l-1.47-6.55L246.17,97Zm11.41,20.79,6.44.55v1.48h-13.8v-1.48l6.44-.55Zm-2.53-11.22c0-3.79,0-7.62-.14-11.41h4.42c-.14,3.71-.14,7.54-.14,11.41v1.84c0,3.79,0,7.61.14,11.41H233c.14-3.72.14-7.55.14-11.41Z" transform="translate(0 -6.5)"/><path d="M250.45,96.63V95.16h12.88v1.47l-6,.55h-.92Zm15.73,21.16c5.29,0,8-2.39,8-9V95.16h2.3v14.61c0,7.73-4.69,10.6-10.9,10.6-6.67,0-11.18-3-11.18-9.83v-4c0-3.79,0-7.62-.14-11.41h4.42c-.14,3.71-.14,7.54-.14,11.41v2.9C258.5,115.8,261.49,117.79,266.18,117.79Zm8.28-20.61-5.06-.55V95.16h11v1.47l-5.06.55Z" transform="translate(0 -6.5)"/><path d="M283.2,96.63V95.16h6.44v2h-.46Zm6.44,21.16v2H283.2v-1.48l6-.55Zm-2.07-11.22c0-3.79,0-7.62-.14-11.41h4.42c-.14,3.71-.14,7.54-.14,11.41V108c0,4.24,0,8.06.14,11.86h-4.42c.14-3.72.14-7.55.14-11.86Zm2.07,11.55h5.93c7.23,0,11.18-3.9,11.18-10.6,0-7-3.95-10.67-10.76-10.67h-6.35V95.16h7.13c8.74,0,14.81,4.34,14.81,12.36s-6.81,12.3-15.73,12.3h-6.21Z" transform="translate(0 -6.5)"/><path d="M314.48,96.63V95.16h6.44v2h-.46Zm6.44,21.16v2h-6.44v-1.48l6-.55Zm-2.07-11.22c0-3.79,0-7.62-.14-11.41h4.42c-.14,3.71-.14,7.54-.14,11.41V108c0,4.24,0,8.06.14,11.86h-4.42c.14-3.72.14-7.55.14-11.41Zm14.81-11.41L335.73,97H320.92V95.16h16.42l.32,6.55h-2.57Zm-2.34,12.92h-10.4v-1.7h10.4Zm7.26,5.18-.32,6.56H320.92V118h15.73l-2.07,1.84,1.43-6.56Zm-8.74-6.51.69-3.9h2.07v8.72h-2.07l-.69-4.08Z" transform="translate(0 -6.5)"/><path d="M342,118.34l4.83-.55h.92l5.29.55v1.48H342Zm2.9-22,2.85.88-5.52-.55V95.16h6.9l19.09,21v3.9h-1.47Zm1-1.14,2.3,1.47v23.19h-2.3Zm15.18,0h11.05v1.47l-4.61.55h-.92l-5.52-.55Zm4.83,0h2.3v24.91l-2.3-1.84Z" transform="translate(0 -6.5)"/><path d="M376.9,97,379,95.16l-1.47,6.55h-2.58l.37-6.55h25.12l.37,6.55H398.2l-1.47-6.55L398.8,97Zm11.41,20.79,6.44.55v1.48H381v-1.48l6.44-.55Zm-2.53-11.22c0-3.79,0-7.62-.14-11.41h4.42c-.14,3.71-.14,7.54-.14,11.41v1.84c0,3.79,0,7.61.14,11.41h-4.42c.14-3.72.14-7.55.14-11.41Z" transform="translate(0 -6.5)"/><path d="M401.69,109.4h10.58v2.35H401.69Z" transform="translate(0 -6.5)"/><path d="M416.18,96.63V95.16h6.44v2h-.46Zm6.9,21.16,6,.55v1.48H416.18v-1.48l6-.55Zm-2.53-11.22c0-3.79,0-7.62-.13-11.41h4.41c-.14,3.82-.14,7.43-.14,11.77V108c0,4.16,0,8,.14,11.78h-4.41c.13-3.72.13-7.55.13-11.41Zm2.07.18h5.75c5,0,7.36-2.13,7.36-5.12s-2.07-4.78-6.85-4.78h-6.26V95.16h6.31c7,0,11.18,2.39,11.18,6.47,0,3.13-3.09,6-9.11,6.37l.13-.29c3.32.25,5.34,1.47,6.58,4.78L440,118.6l-1.43-.7,4.74.44v1.48a13.15,13.15,0,0,1-3.31.36c-2.86,0-4.1-.59-4.65-2.28l-1.89-6c-.92-3-2.62-3.49-6.44-3.49h-4.37Z" transform="translate(0 -6.5)"/><path d="M444.43,96.63V95.16h12.88v1.47l-6,.55h-.92Zm15.73,21.16c5.29,0,8-2.39,8-9V95.16h2.3v14.61c0,7.73-4.69,10.6-10.9,10.6-6.67,0-11.18-3-11.18-9.83v-4c0-3.79,0-7.62-.14-11.41h4.42c-.14,3.71-.14,7.54-.14,11.41v2.9C452.48,115.8,455.47,117.79,460.16,117.79Zm8.28-20.61-5.06-.55V95.16h11v1.47l-5.06.55Z" transform="translate(0 -6.5)"/><path d="M477.41,118.34l4.83-.55h.92l5.29.55v1.48h-11Zm2.9-22,2.85.88-5.52-.55V95.16h6.9l19.09,21v3.9h-1.47Zm1-1.14,2.3,1.47v23.19h-2.3Zm15.18,0h11v1.47l-4.6.55H502l-5.52-.55Zm4.83,0h2.3v24.91l-2.3-1.84Z" transform="translate(0 -6.5)"/><path d="M522,95.16h6.07v2h-.55L522,96.63Zm0,23.18,4.83-.55h.92l4.51.55v1.48H522Zm4.14-23.18h1.93l.42,11v13.7h-2.35Zm0,0h4.09l11.27,22.08H540l10.67-22.08h2.44l-12,24.66h-2.25Zm21,23.18,5.52-.55h.92l6,.55v1.48H547.15Zm4-9.93V95.16h4.18c-.13,3.71-.13,7.54-.13,11.41v1.84c0,3.79,0,7.61.13,11.41H551C551.15,116.1,551.15,112.27,551.15,108.41Zm2-13.25h6.44v1.47l-6,.55h-.46Z" transform="translate(0 -6.5)"/><path d="M561.86,118.34l4.6-.55h.92l5.06.55v1.48H561.86ZM575.57,95h2.76l10.58,24.85h-4.28l-9.24-22h1.06l-9.39,22H564.9Zm-5.38,15.09h12.42l.74,1.69h-13.9Zm9.06,8.28,5.8-.55H586l5.7.55v1.48H579.25Z" transform="translate(0 -6.5)"/><path d="M618.08,118.2A25.35,25.35,0,0,1,608,120.37c-9.21,0-15.46-5.49-15.46-12.88s6.3-12.89,15.64-12.89a20.94,20.94,0,0,1,9.25,1.77l.18,5.34h-2.81l-1.15-5.45,2.86.74v2.09a12.78,12.78,0,0,0-8-2.65c-6.44,0-11.18,4-11.18,11s4.32,11,11.5,11A18,18,0,0,0,616,117l-2.07,1.73v-2.13c0-2.8-.05-5.67-.14-8.47h4.41c-.09,2.76-.13,5.6-.13,8.47ZM609,109.58v-1.47h12v1.47l-5.06.37H615Z" transform="translate(0 -6.5)"/><path d="M621.43,118.34l4.6-.55H627l5.06.55v1.48H621.43ZM635.14,95h2.76l10.58,24.85h-4.27l-9.25-22H636l-9.39,22h-2.16Zm-5.38,15.09h12.42l.74,1.69H629Zm9.06,8.28,5.8-.55h.92l5.7.55v1.48H638.82Z" transform="translate(0 -6.5)"/><path d="M675.07,95.16v1.28l-19,23.38h-3.41v-1.29l19.09-23.37Zm-22,6.55.37-6.55h20.06V97H655.06l2.53-1.84-1.75,6.55Zm23,11.55-.36,6.56H654.23V118h19.88l-2.53,1.84,1.74-6.56Z" transform="translate(0 -6.5)"/><path d="M679.07,96.63V95.16H692v1.47l-6,.55h-.92Zm6.9,21.16,6,.55v1.48H679.07v-1.48l6-.55Zm-2.53-11.22c0-3.79,0-7.62-.14-11.41h4.42c-.14,3.71-.14,7.54-.14,11.41v1.84c0,3.79,0,7.61.14,11.41H683.3c.14-3.72.14-7.55.14-11.41Z" transform="translate(0 -6.5)"/><path d="M695.86,118.34l4.83-.55h.92l5.29.55v1.48h-11Zm2.9-22,2.85.88-5.52-.55V95.16H703l19.09,21v3.9h-1.47Zm1-1.14,2.3,1.47v23.19h-2.3Zm15.18,0h11v1.47l-4.6.55h-.92L715,96.63Zm4.83,0h2.3v24.91l-2.3-1.84Z" transform="translate(0 -6.5)"/><path d="M729.44,96.63V95.16h6.44v2h-.46Zm6.44,21.16v2h-6.44v-1.48l6-.55Zm-2.07-11.22c0-3.79,0-7.62-.14-11.41h4.42c-.14,3.71-.14,7.54-.14,11.41V108c0,4.24,0,8.06.14,11.86h-4.42c.14-3.72.14-7.55.14-11.41Zm14.82-11.41L750.69,97H735.88V95.16H752.3l.33,6.55h-2.58Zm-2.35,12.92h-10.4v-1.7h10.4Zm7.27,5.18-.33,6.56H735.88V118h15.74l-2.08,1.84,1.43-6.56Zm-8.74-6.51.69-3.9h2.07v8.72H745.5l-.69-4.08Z" transform="translate(0 -6.5)"/></g></g></svg>