<svg xmlns="http://www.w3.org/2000/svg" viewBox="0 0 840.61 134.15"><defs><style>.cls-1{fill:#ffe9d2;}.cls-2{font-size:85px;font-family:EssonnesHeadline-Bold, Essonnes;font-weight:700;}</style></defs><g id="Layer_2" data-name="Layer 2"><g id="Layer_1-2" data-name="Layer 1"><circle class="cls-1" cx="63" cy="71.15" r="62.5"/><path d="M63,9.15a62,62,0,1,1-62,62,62.07,62.07,0,0,1,62-62m0-1a63,63,0,1,0,63,63,63,63,0,0,0-63-63Z"/><path d="M54,81.07c4.25,0,7.31-2,11.22-6.89L66,76.39c-3.65,6.55-8,9.35-13.85,9.35-10.38,0-17.35-8.5-17.35-20.83,0-12.92,7.65-21.67,17.77-21.67,4.76,0,9.35,1.95,13.77,8.58L65.5,54c-4.93-4.76-8.33-6.12-11.56-6.12C47.56,47.91,42,53.1,42,64.74,42,76.05,47.14,81.07,54,81.07Zm14.45,19.29,9.6,1.7v3H56.32v-3l10.46-1.7ZM71.2,105H64.14c.17-6,.26-12.07.26-18v-8.5l-.26-1.19v-28l5.78-6.12,1.28.85-.26,11.47V87C70.94,93,71,99.09,71.2,105Z"/><path d="M86.58,79.79a6,6,0,1,1,6,5.95A6,6,0,0,1,86.58,79.79Z"/><text class="cls-2" transform="translate(148.68 73.74)">The Quaranzine</text><path d="M157.34,120l4.6-.55h.92l5.06.55v1.47H157.34Zm13.71-23.37h2.76l10.58,24.84h-4.27l-9.25-22h1.06l-9.39,22h-2.16Zm-5.38,15.09h12.42l.74,1.69h-13.9Zm9.06,8.28,5.8-.55h.92l5.7.55v1.47H174.73Z"/><path d="M216.27,115.69c0-2.39-1.79-3.46-5.8-4.71l-1.74-.55c-4.7-1.47-7.92-3.61-7.92-7.36,0-4.23,4.46-6.81,10.31-6.81a14.39,14.39,0,0,1,7.5,1.95l-.28,4.79h-2.76l-1.29-5.56,3,1.21v1.84a9.39,9.39,0,0,0-6.4-2.39c-3.59,0-6.3,1.44-6.3,4.2,0,2.32,1.88,3.68,5.24,4.71l1.8.55c6.07,1.88,8.42,4,8.42,7.47,0,4.35-4.56,7-10.86,7a21,21,0,0,1-8.93-2l.28-5.15h2.76l1.2,5.67-3-1v-1.77c2.85,1.66,4.41,2.39,7.54,2.39C213.37,120.18,216.27,118.57,216.27,115.69Z"/><path d="M224.27,98.65l2.07-1.84-1.47,6.56h-2.58l.37-6.56h25.12l.37,6.56h-2.58l-1.47-6.56,2.07,1.84Zm11.41,20.8,6.44.55v1.47h-13.8V120l6.44-.55Zm-2.53-11.23c0-3.79,0-7.62-.14-11.41h4.42c-.14,3.72-.14,7.55-.14,11.41v1.84c0,3.79,0,7.62.14,11.41H233c.14-3.71.14-7.54.14-11.41Z"/><path d="M250.45,98.29V96.81h12.88v1.48l-6,.55h-.92Zm15.73,21.16c5.29,0,8-2.39,8-9V96.81h2.3v14.61c0,7.73-4.69,10.6-10.9,10.6-6.67,0-11.18-3-11.18-9.82v-4c0-3.79,0-7.62-.14-11.41h4.42c-.14,3.72-.14,7.55-.14,11.41v2.91C258.5,117.46,261.49,119.45,266.18,119.45Zm8.28-20.61-5.06-.55V96.81h11v1.48l-5.06.55Z"/><path d="M283.2,98.29V96.81h6.44v2h-.46Zm6.44,21.16v2H283.2V120l6-.55Zm-2.07-11.23c0-3.79,0-7.62-.14-11.41h4.42c-.14,3.72-.14,7.55-.14,11.41v1.4c0,4.23,0,8.06.14,11.85h-4.42c.14-3.71.14-7.54.14-11.85Zm2.07,11.56h5.93c7.23,0,11.18-3.9,11.18-10.6,0-7-3.95-10.67-10.76-10.67h-6.35v-1.7h7.13c8.74,0,14.81,4.35,14.81,12.37s-6.81,12.29-15.73,12.29h-6.21Z"/><path d="M314.48,98.29V96.81h6.44v2h-.46Zm6.44,21.16v2h-6.44V120l6-.55Zm-2.07-11.23c0-3.79,0-7.62-.14-11.41h4.42c-.14,3.72-.14,7.55-.14,11.41v1.4c0,4.23,0,8.06.14,11.85h-4.42c.14-3.71.14-7.54.14-11.41Zm14.81-11.41,2.07,1.84H320.92V96.81h16.42l.32,6.56h-2.57Zm-2.34,12.92h-10.4V108h10.4Zm7.26,5.19-.32,6.55H320.92v-1.84h15.73l-2.07,1.84,1.43-6.55Zm-8.74-6.51.69-3.9h2.07v8.72h-2.07l-.69-4.09Z"/><path d="M342,120l4.83-.55h.92l5.29.55v1.47H342Zm2.9-22,2.85.88-5.52-.55V96.81h6.9l19.09,21v3.9h-1.47Zm1-1.15,2.3,1.48v23.18h-2.3Zm15.18,0h11.05v1.48l-4.61.55h-.92l-5.52-.55Zm4.83,0h2.3v24.92l-2.3-1.84Z"/><path d="M376.9,98.65,379,96.81l-1.47,6.56h-2.58l.37-6.56h25.12l.37,6.56H398.2l-1.47-6.56,2.07,1.84Zm11.41,20.8,6.44.55v1.47H381V120l6.44-.55Zm-2.53-11.23c0-3.79,0-7.62-.14-11.41h4.42c-.14,3.72-.14,7.55-.14,11.41v1.84c0,3.79,0,7.62.14,11.41h-4.42c.14-3.71.14-7.54.14-11.41Z"/><path d="M401.69,111.06h10.58v2.35H401.69Z"/><path d="M416.18,98.29V96.81h6.44v2h-.46Zm6.9,21.16,6,.55v1.47H416.18V120l6-.55Zm-2.53-11.23c0-3.79,0-7.62-.13-11.41h4.41c-.14,3.83-.14,7.44-.14,11.78v1.11c0,4.15,0,8,.14,11.77h-4.41c.13-3.71.13-7.54.13-11.41Zm2.07.19h5.75c5,0,7.36-2.14,7.36-5.12s-2.07-4.78-6.85-4.78h-6.26v-1.7h6.31c7,0,11.18,2.4,11.18,6.48,0,3.13-3.09,6-9.11,6.37l.13-.3c3.32.26,5.34,1.48,6.58,4.79l2.26,6.11-1.43-.7,4.74.44v1.47a13.09,13.09,0,0,1-3.31.37c-2.86,0-4.1-.59-4.65-2.28l-1.89-6c-.92-3-2.62-3.5-6.44-3.5h-4.37Z"/><path d="M444.43,98.29V96.81h12.88v1.48l-6,.55h-.92Zm15.73,21.16c5.29,0,8-2.39,8-9V96.81h2.3v14.61c0,7.73-4.69,10.6-10.9,10.6-6.67,0-11.18-3-11.18-9.82v-4c0-3.79,0-7.62-.14-11.41h4.42c-.14,3.72-.14,7.55-.14,11.41v2.91C452.48,117.46,455.47,119.45,460.16,119.45Zm8.28-20.61-5.06-.55V96.81h11v1.48l-5.06.55Z"/><path d="M477.41,120l4.83-.55h.92l5.29.55v1.47h-11Zm2.9-22,2.85.88-5.52-.55V96.81h6.9l19.09,21v3.9h-1.47Zm1-1.15,2.3,1.48v23.18h-2.3Zm15.18,0h11v1.48l-4.6.55H502l-5.52-.55Zm4.83,0h2.3v24.92l-2.3-1.84Z"/><path d="M522,96.81h6.07v2h-.55L522,98.29ZM522,120l4.83-.55h.92l4.51.55v1.47H522Zm4.14-23.19h1.93l.42,11v13.69h-2.35Zm0,0h4.09l11.27,22.09H540l10.67-22.09h2.44l-12,24.66h-2.25Zm21,23.19,5.52-.55h.92l6,.55v1.47H547.15Zm4-9.94V96.81h4.18c-.13,3.72-.13,7.55-.13,11.41v1.84c0,3.79,0,7.62.13,11.41H551C551.15,117.76,551.15,113.93,551.15,110.06Zm2-13.25h6.44v1.48l-6,.55h-.46Z"/><path d="M561.86,120l4.6-.55h.92l5.06.55v1.47H561.86Zm13.71-23.37h2.76l10.58,24.84h-4.28l-9.24-22h1.06l-9.39,22H564.9Zm-5.38,15.09h12.42l.74,1.69h-13.9Zm9.06,8.28,5.8-.55H586l5.7.55v1.47H579.25Z"/><path d="M618.08,119.85A25.18,25.18,0,0,1,608,122c-9.21,0-15.46-5.48-15.46-12.88s6.3-12.88,15.64-12.88A20.8,20.8,0,0,1,617.39,98l.18,5.34h-2.81l-1.15-5.45,2.86.73v2.1a12.78,12.78,0,0,0-8-2.65c-6.44,0-11.18,4-11.18,11s4.32,11,11.5,11a18,18,0,0,0,7.18-1.51l-2.07,1.73v-2.14c0-2.79-.05-5.66-.14-8.46h4.41c-.09,2.76-.13,5.59-.13,8.46ZM609,111.24v-1.47h12v1.47l-5.06.37H615Z"/><path d="M621.43,120l4.6-.55H627L632,120v1.47H621.43Zm13.71-23.37h2.76l10.58,24.84h-4.27l-9.25-22H636l-9.39,22h-2.16Zm-5.38,15.09h12.42l.74,1.69H629Zm9.06,8.28,5.8-.55h.92l5.7.55v1.47H638.82Z"/><path d="M675.07,96.81V98.1l-19,23.37h-3.41v-1.29l19.09-23.37Zm-22,6.56.37-6.56h20.06v1.84H655.06l2.53-1.84-1.75,6.56Zm23,11.55-.36,6.55H654.23v-1.84h19.88l-2.53,1.84,1.74-6.55Z"/><path d="M679.07,98.29V96.81H692v1.48l-6,.55h-.92Zm6.9,21.16,6,.55v1.47H679.07V120l6-.55Zm-2.53-11.23c0-3.79,0-7.62-.14-11.41h4.42c-.14,3.72-.14,7.55-.14,11.41v1.84c0,3.79,0,7.62.14,11.41H683.3c.14-3.71.14-7.54.14-11.41Z"/><path d="M695.86,120l4.83-.55h.92l5.29.55v1.47h-11Zm2.9-22,2.85.88-5.52-.55V96.81H703l19.09,21v3.9h-1.47Zm1-1.15,2.3,1.48v23.18h-2.3Zm15.18,0h11v1.48l-4.6.55h-.92L715,98.29Zm4.83,0h2.3v24.92l-2.3-1.84Z"/><path d="M729.44,98.29V96.81h6.44v2h-.46Zm6.44,21.16v2h-6.44V120l6-.55Zm-2.07-11.23c0-3.79,0-7.62-.14-11.41h4.42c-.14,3.72-.14,7.55-.14,11.41v1.4c0,4.23,0,8.06.14,11.85h-4.42c.14-3.71.14-7.54.14-11.41Zm14.82-11.41,2.06,1.84H735.88V96.81H752.3l.33,6.56h-2.58Zm-2.35,12.92h-10.4V108h10.4Zm7.27,5.19-.33,6.55H735.88v-1.84h15.74l-2.08,1.84,1.43-6.55Zm-8.74-6.51.69-3.9h2.07v8.72H745.5l-.69-4.09Z"/></g></g></svg>
