<svg xmlns="http://www.w3.org/2000/svg" viewBox="0 0 126 126"><defs><style>.cls-1{fill:#ffe9d2;}</style></defs><g id="Layer_2" data-name="Layer 2"><g id="Layer_1-2" data-name="Layer 1"><circle class="cls-1" cx="63" cy="63" r="62.5"/><path d="M63,1A62,62,0,1,1,1,63,62.07,62.07,0,0,1,63,1m0-1a63,63,0,1,0,63,63A63,63,0,0,0,63,0Z"/><path d="M54,72.91c4.25,0,7.31-2,11.22-6.88L66,68.24c-3.65,6.54-8,9.35-13.85,9.35-10.38,0-17.35-8.5-17.35-20.83,0-12.92,7.65-21.67,17.77-21.67,4.76,0,9.35,1.95,13.77,8.58l-.85,2.21c-4.93-4.76-8.33-6.12-11.56-6.12C47.56,39.76,42,45,42,56.59,42,67.9,47.14,72.91,54,72.91Zm14.45,19.3,9.6,1.7v3H56.32v-3l10.46-1.7Zm2.72,4.68H64.14c.17-6,.26-12.08.26-18v-8.5l-.26-1.19v-28l5.78-6.12,1.28.85-.26,11.47V78.86C70.94,84.81,71,90.94,71.2,96.89Z"/><path d="M86.58,71.64a6,6,0,1,1,6,6A6,6,0,0,1,86.58,71.64Z"/></g></g></svg>