<svg xmlns="http://www.w3.org/2000/svg" viewBox="0 0 98.11 39.25"><defs><style>.cls-1{fill:#975c69;}.cls-2{fill:#d0b3b9;}.cls-3,.cls-4{font-size:24px;font-family:AmericanTypewriterITCPro-Bold, American Typewriter ITC Pro;font-weight:700;}.cls-4{fill:#fff;}</style></defs><g id="Layer_2" data-name="Layer 2"><g id="Layer_5" data-name="Layer 5"><rect class="cls-1" x="3.8" width="94.31" height="35.47"/><path class="cls-2" d="M90.31,7.78V35.25H4V7.78H90.31m4-4H0V39.25H94.31V3.78Z"/><polygon class="cls-2" points="16.55 3.78 0 28.84 0 39.25 4.12 39.25 27.55 3.78 16.55 3.78"/><polygon class="cls-2" points="40.39 3.78 16.96 39.25 27.96 39.25 51.39 3.78 40.39 3.78"/><polygon class="cls-2" points="65.47 3.78 42.04 39.25 53.04 39.25 76.47 3.78 65.47 3.78"/><polygon class="cls-2" points="94.31 3.78 90.31 3.78 66.88 39.25 77.88 39.25 94.31 14.38 94.31 3.78"/><text class="cls-3" transform="translate(14.96 30.88)">SHOP</text><text class="cls-4" transform="translate(13.3 29.7)">SHOP</text></g></g></svg>