<svg xmlns="http://www.w3.org/2000/svg" viewBox="0 0 94.51 35.69"><defs><style>.cls-1{fill:#653e46;}.cls-2{fill:#985d69;}.cls-3,.cls-4{font-size:24px;font-family:AmericanTypewriterITCPro-Bold, American Typewriter ITC Pro;font-weight:700;}.cls-4{fill:#d0b3b9;}</style></defs><g id="Layer_2" data-name="Layer 2"><g id="Layer_5" data-name="Layer 5"><rect class="cls-1" y="0.22" width="94.31" height="35.47"/><path class="cls-2" d="M90.51,4V31.47H4.2V4H90.51m4-4H.2V35.47H94.51V0Z"/><polygon class="cls-2" points="16.75 0 0.2 25.05 0.2 35.47 4.32 35.47 27.75 0 16.75 0"/><polygon class="cls-2" points="40.59 0 17.16 35.47 28.16 35.47 51.59 0 40.59 0"/><polygon class="cls-2" points="65.67 0 42.24 35.47 53.24 35.47 76.67 0 65.67 0"/><polygon class="cls-2" points="94.51 0 90.52 0 67.08 35.47 78.08 35.47 94.51 10.6 94.51 0"/><text class="cls-3" transform="translate(15.16 27.1)">SHOP</text><text class="cls-4" transform="translate(13.5 25.92)">SHOP</text></g></g></svg>