<svg xmlns="http://www.w3.org/2000/svg" viewBox="0 0 123.86 38.77"><defs><style>.cls-1{fill:#bd9575;}.cls-2{fill:#decaba;}.cls-3,.cls-4{font-size:24px;font-family:AmericanTypewriterITCPro-Bold, American Typewriter ITC Pro;font-weight:700;}.cls-4{fill:#fff;}</style></defs><g id="Layer_2" data-name="Layer 2"><g id="Layer_1-2" data-name="Layer 1"><rect class="cls-1" x="3.86" width="120" height="35.47"/></g><g id="Layer_2-2" data-name="Layer 2"><path class="cls-2" d="M116,7.3V34.77H4V7.3H116m4-4H0V38.77H120V3.3Z"/></g><g id="Layer_3" data-name="Layer 3"><circle class="cls-2" cx="6.86" cy="15.7" r="5"/><path class="cls-2" d="M93.36,15.7A15.49,15.49,0,0,0,79.84,38.77h27A15.49,15.49,0,0,0,93.36,15.7Z"/><circle class="cls-2" cx="22.86" cy="31.7" r="6"/><path class="cls-2" d="M47.36,22.7A14.46,14.46,0,0,0,61,3.3H33.73A14.46,14.46,0,0,0,47.36,22.7Z"/><path class="cls-2" d="M56.86,30.7a8,8,0,0,0-8,8v.07h16V38.7A8,8,0,0,0,56.86,30.7Z"/><path class="cls-2" d="M102,3.3a11,11,0,0,0,10.87,9.4,10.94,10.94,0,0,0,6.28-2V3.3Z"/><circle class="cls-2" cx="6.86" cy="15.7" r="5"/><path class="cls-2" d="M93.36,15.7A15.49,15.49,0,0,0,79.84,38.77h27A15.49,15.49,0,0,0,93.36,15.7Z"/><circle class="cls-2" cx="22.86" cy="31.7" r="6"/><path class="cls-2" d="M47.36,22.7A14.46,14.46,0,0,0,61,3.3H33.73A14.46,14.46,0,0,0,47.36,22.7Z"/><path class="cls-2" d="M56.86,30.7a8,8,0,0,0-8,8v.07h16V38.7A8,8,0,0,0,56.86,30.7Z"/><path class="cls-2" d="M102,3.3a11,11,0,0,0,10.87,9.4,10.94,10.94,0,0,0,6.28-2V3.3Z"/></g><g id="Layer_5" data-name="Layer 5"><text class="cls-3" transform="translate(7.32 31.4)">SUBMIT</text><text class="cls-4" transform="translate(6.34 29.7)">SUBMIT</text></g></g></svg>