<svg xmlns="http://www.w3.org/2000/svg" viewBox="0 0 120.14 35.77"><defs><style>.cls-1{fill:#6e4f35;}.cls-2{fill:#bd9575;}.cls-3,.cls-4{font-size:24px;font-family:AmericanTypewriterITCPro-Bold, American Typewriter ITC Pro;font-weight:700;}.cls-4{fill:#decaba;}</style></defs><g id="Layer_2" data-name="Layer 2"><g id="Layer_5" data-name="Layer 5"><rect class="cls-1" width="120" height="35.47"/><path class="cls-2" d="M116.14,4.3V31.77H4.14V4.3h112m4-4H.14V35.77h120V.3Z"/><circle class="cls-2" cx="7" cy="12.7" r="5"/><path class="cls-2" d="M93.5,12.7A15.49,15.49,0,0,0,80,35.77h27A15.49,15.49,0,0,0,93.5,12.7Z"/><circle class="cls-2" cx="23" cy="28.7" r="6"/><path class="cls-2" d="M47.5,19.7A14.46,14.46,0,0,0,61.13.3H33.87A14.46,14.46,0,0,0,47.5,19.7Z"/><path class="cls-2" d="M57,27.7a8,8,0,0,0-8,8v.07H65V35.7A8,8,0,0,0,57,27.7Z"/><path class="cls-2" d="M102.13.3A11,11,0,0,0,113,9.7a10.94,10.94,0,0,0,6.28-2V.3Z"/><text class="cls-3" transform="translate(7.46 28.4)">SUBMIT</text><text class="cls-4" transform="translate(6.48 26.7)">SUBMIT</text></g></g></svg>